  0
SECTION
  2
HEADER
  9
$ACADVER
  1
AC1009
  9
$INSBASE
 10
0.0
 20
0.0
 30
0.0
  9
$EXTMIN
 10
0.0
 20
0.0
 30
0.0
  9
$EXTMAX
 10
0.0
 20
0.0
 30
0.0
  0
ENDSEC
  0
SECTION
  2
TABLES
  0
TABLE
  2
VPORT
 70
0
  0
ENDTAB
  0
TABLE
  2
LTYPE
 70
1
  0
LTYPE
  2
CONTINUOUS
 70
0
  3
Solid line
 72
65
 73
0
 40
0.0
  0
ENDTAB
  0
TABLE
  2
LAYER
 70
1
  0
LAYER
  2
0
 70
64
 62
7
  6
continuous
  0
ENDTAB
  0
TABLE
  2
STYLE
 70
1
  0
STYLE
  2
STANDARD
 70
0
 40
0
 41
1.0
 50
0.0
 71
0
 42
1
 3
ARIAL.TTF
 4

  0
ENDTAB
  0
TABLE
  2
VIEW
 70
0
  0
ENDTAB
  0
ENDSEC
  0
SECTION
  2
BLOCKS
  0
BLOCK
  8
0
  2
SHAPE
 70
0
 10
0.0
 20
0.0
 30
0.0
  3
SHAPE
  0
POLYLINE
  8
0
 62
0
 70
0
 66
1
 10
0.0
 20
0.0
 30
0.0
  0
VERTEX
  8
0
 10
49.962403101865014
 20
-1.938627423525593
 30
0.0
  0
VERTEX
  8
0
 10
49.937460888595446
 20
-2.5000000000000124
 30
0.0
  0
SEQEND
  8
0
  0
POLYLINE
  8
0
 62
0
 70
0
 66
1
 10
0.0
 20
0.0
 30
0.0
  0
VERTEX
  8
0
 10
50.0
 20
5.953145785544942e-15
 30
0.0
  0
VERTEX
  8
0
 10
49.93746088859541
 20
2.500000000000007
 30
0.0
  0
SEQEND
  8
0
  0
POLYLINE
  8
0
 62
0
 70
0
 66
1
 10
0.0
 20
0.0
 30
0.0
  0
VERTEX
  8
0
 10
49.937460888595446
 20
2.500000000000007
 30
0.0
  0
VERTEX
  8
0
 10
50.0
 20
3.0817192613497296e-15
 30
0.0
  0
SEQEND
  8
0
  0
CIRCLE
  8
0
 62
0
 10
0.0
 20
0.0
 30
0.0
 40
50.0
  0
POLYLINE
  8
0
 62
0
 70
0
 66
1
 10
0.0
 20
0.0
 30
0.0
  0
VERTEX
  8
0
 10
2.500000000000004
 20
49.93746088859545
 30
0.0
  0
VERTEX
  8
0
 10
1.5987017471319531
 20
49.974434989388364
 30
0.0
  0
SEQEND
  8
0
  0
POLYLINE
  8
0
 62
0
 70
0
 66
1
 10
0.0
 20
0.0
 30
0.0
  0
VERTEX
  8
0
 10
1.0592969526276073
 20
49.98877764082312
 30
0.0
  0
VERTEX
  8
0
 10
0.7626961606148933
 20
49.99418260303527
 30
0.0
  0
SEQEND
  8
0
  0
POLYLINE
  8
0
 62
0
 70
0
 66
1
 10
0.0
 20
0.0
 30
0.0
  0
VERTEX
  8
0
 10
0.5277905137134198
 20
49.99721428080296
 30
0.0
  0
VERTEX
  8
0
 10
0.44682688050148733
 20
49.998003392753155
 30
0.0
  0
SEQEND
  8
0
  0
POLYLINE
  8
0
 62
0
 70
0
 66
1
 10
0.0
 20
0.0
 30
0.0
  0
VERTEX
  8
0
 10
0.08551741838386251
 20
49.999926883077876
 30
0.0
  0
VERTEX
  8
0
 10
-0.2038145370382685
 20
49.99958459684976
 30
0.0
  0
SEQEND
  8
0
  0
POLYLINE
  8
0
 62
0
 70
0
 66
1
 10
0.0
 20
0.0
 30
0.0
  0
VERTEX
  8
0
 10
-0.46332896228629156
 20
49.99785319901092
 30
0.0
  0
VERTEX
  8
0
 10
-2.499999999999993
 20
49.93746088859541
 30
0.0
  0
SEQEND
  8
0
  0
POLYLINE
  8
0
 62
0
 70
0
 66
1
 10
0.0
 20
0.0
 30
0.0
  0
VERTEX
  8
0
 10
-0.09548722158438722
 20
49.999908843907235
 30
0.0
  0
VERTEX
  8
0
 10
2.6645352591003757e-15
 20
50.0
 30
0.0
  0
SEQEND
  8
0
  0
POLYLINE
  8
0
 62
0
 70
0
 66
1
 10
0.0
 20
0.0
 30
0.0
  0
VERTEX
  8
0
 10
-22.803666934836603
 20
44.4971097300155
 30
0.0
  0
VERTEX
  8
0
 10
-23.602701182946873
 20
44.078481106469695
 30
0.0
  0
SEQEND
  8
0
  0
POLYLINE
  8
0
 62
0
 70
0
 66
1
 10
0.0
 20
0.0
 30
0.0
  0
VERTEX
  8
0
 10
-24.077010761728474
 20
43.821199810561055
 30
0.0
  0
VERTEX
  8
0
 10
-24.33657065167413
 20
43.6775838216253
 30
0.0
  0
SEQEND
  8
0
  0
POLYLINE
  8
0
 62
0
 70
0
 66
1
 10
0.0
 20
0.0
 30
0.0
  0
VERTEX
  8
0
 10
-24.541682451871214
 20
43.56266544984422
 30
0.0
  0
VERTEX
  8
0
 10
-24.612039042697603
 20
43.5229540780911
 30
0.0
  0
SEQEND
  8
0
  0
POLYLINE
  8
0
 62
0
 70
0
 66
1
 10
0.0
 20
0.0
 30
0.0
  0
VERTEX
  8
0
 10
-24.925903185525044
 20
43.34396557685753
 30
0.0
  0
VERTEX
  8
0
 10
-25.17630251241485
 20
43.199002211004746
 30
0.0
  0
SEQEND
  8
0
  0
POLYLINE
  8
0
 62
0
 70
0
 66
1
 10
0.0
 20
0.0
 30
0.0
  0
VERTEX
  8
0
 10
-25.40018163129824
 20
43.067746299687
 30
0.0
  0
VERTEX
  8
0
 10
-27.13379395375881
 20
41.997109730015495
 30
0.0
  0
SEQEND
  8
0
  0
POLYLINE
  8
0
 62
0
 70
0
 66
1
 10
0.0
 20
0.0
 30
0.0
  0
VERTEX
  8
0
 10
-41.99710973001549
 20
27.13379395375882
 30
0.0
  0
VERTEX
  8
0
 10
-42.47977942679681
 20
26.37173372449328
 30
0.0
  0
SEQEND
  8
0
  0
POLYLINE
  8
0
 62
0
 70
0
 66
1
 10
0.0
 20
0.0
 30
0.0
  0
VERTEX
  8
0
 10
-42.761902911492626
 20
25.911766814433587
 30
0.0
  0
VERTEX
  8
0
 10
-42.914882402626866
 20
25.657608383240785
 30
0.0
  0
SEQEND
  8
0
  0
POLYLINE
  8
0
 62
0
 70
0
 66
1
 10
0.0
 20
0.0
 30
0.0
  0
VERTEX
  8
0
 10
-43.03496250131103
 20
25.45568701052171
 30
0.0
  0
VERTEX
  8
0
 10
-43.07612792074739
 20
25.385964643446137
 30
0.0
  0
SEQEND
  8
0
  0
POLYLINE
  8
0
 62
0
 70
0
 66
1
 10
0.0
 20
0.0
 30
0.0
  0
VERTEX
  8
0
 10
-43.25844816267369
 20
25.074023691846016
 30
0.0
  0
VERTEX
  8
0
 10
-43.40282020188394
 20
24.82327937130612
 30
0.0
  0
SEQEND
  8
0
  0
POLYLINE
  8
0
 62
0
 70
0
 66
1
 10
0.0
 20
0.0
 30
0.0
  0
VERTEX
  8
0
 10
-43.531076154391236
 20
24.597670765292584
 30
0.0
  0
VERTEX
  8
0
 10
-44.49710973001549
 20
22.80366693483663
 30
0.0
  0
SEQEND
  8
0
  0
POLYLINE
  8
0
 62
0
 70
0
 66
1
 10
0.0
 20
0.0
 30
0.0
  0
VERTEX
  8
0
 10
-43.34893483605305
 20
24.917260097935074
 30
0.0
  0
VERTEX
  8
0
 10
-43.30127018922193
 20
25.000000000000004
 30
0.0
  0
SEQEND
  8
0
  0
POLYLINE
  8
0
 62
0
 70
0
 66
1
 10
0.0
 20
0.0
 30
0.0
  0
VERTEX
  8
0
 10
-44.4971097300155
 20
-22.803666934836603
 30
0.0
  0
VERTEX
  8
0
 10
-44.07848107958168
 20
-23.602701233160733
 30
0.0
  0
SEQEND
  8
0
  0
POLYLINE
  8
0
 62
0
 70
0
 66
1
 10
0.0
 20
0.0
 30
0.0
  0
VERTEX
  8
0
 10
-43.82119979139392
 20
-24.077010796613436
 30
0.0
  0
VERTEX
  8
0
 10
-43.67758119236304
 20
-24.336575370490774
 30
0.0
  0
SEQEND
  8
0
  0
POLYLINE
  8
0
 62
0
 70
0
 66
1
 10
0.0
 20
0.0
 30
0.0
  0
VERTEX
  8
0
 10
-43.56275220772469
 20
-24.5415284518965
 30
0.0
  0
VERTEX
  8
0
 10
-43.52295421514853
 20
-24.612038800330684
 30
0.0
  0
SEQEND
  8
0
  0
POLYLINE
  8
0
 62
0
 70
0
 66
1
 10
0.0
 20
0.0
 30
0.0
  0
VERTEX
  8
0
 10
-43.34396557177247
 20
-24.925903194367518
 30
0.0
  0
VERTEX
  8
0
 10
-43.19900418304016
 20
-25.17629912867953
 30
0.0
  0
SEQEND
  8
0
  0
POLYLINE
  8
0
 62
0
 70
0
 66
1
 10
0.0
 20
0.0
 30
0.0
  0
VERTEX
  8
0
 10
-43.067745843348334
 20
-25.400182405051694
 30
0.0
  0
VERTEX
  8
0
 10
-41.997109730015495
 20
-27.133793953758808
 30
0.0
  0
SEQEND
  8
0
  0
POLYLINE
  8
0
 62
0
 70
0
 66
1
 10
0.0
 20
0.0
 30
0.0
  0
VERTEX
  8
0
 10
-41.997109730015495
 20
-27.133793953758808
 30
0.0
  0
VERTEX
  8
0
 10
-43.30127018922195
 20
-24.999999999999982
 30
0.0
  0
SEQEND
  8
0
  0
POLYLINE
  8
0
 62
0
 70
0
 66
1
 10
0.0
 20
0.0
 30
0.0
  0
VERTEX
  8
0
 10
-49.937460888595446
 20
-2.4999999999999885
 30
0.0
  0
VERTEX
  8
0
 10
-50.0
 20
5.773159728050814e-15
 30
0.0
  0
SEQEND
  8
0
  0
POLYLINE
  8
0
 62
0
 70
0
 66
1
 10
0.0
 20
0.0
 30
0.0
  0
VERTEX
  8
0
 10
22.80366693483663
 20
-44.497109730015495
 30
0.0
  0
VERTEX
  8
0
 10
23.602701244759267
 20
-44.07848107337101
 30
0.0
  0
SEQEND
  8
0
  0
POLYLINE
  8
0
 62
0
 70
0
 66
1
 10
0.0
 20
0.0
 30
0.0
  0
VERTEX
  8
0
 10
24.077010809173245
 20
-43.82119978449311
 30
0.0
  0
VERTEX
  8
0
 10
24.33657407539583
 20
-43.67758191397288
 30
0.0
  0
SEQEND
  8
0
  0
POLYLINE
  8
0
 62
0
 70
0
 66
1
 10
0.0
 20
0.0
 30
0.0
  0
VERTEX
  8
0
 10
24.541680915999134
 20
-43.56266631510113
 30
0.0
  0
VERTEX
  8
0
 10
24.612039529627346
 20
-43.522953802734314
 30
0.0
  0
SEQEND
  8
0
  0
POLYLINE
  8
0
 62
0
 70
0
 66
1
 10
0.0
 20
0.0
 30
0.0
  0
VERTEX
  8
0
 10
24.925903189797317
 20
-43.3439655744007
 30
0.0
  0
VERTEX
  8
0
 10
25.176305079207808
 20
-43.199000715081766
 30
0.0
  0
SEQEND
  8
0
  0
POLYLINE
  8
0
 62
0
 70
0
 66
1
 10
0.0
 20
0.0
 30
0.0
  0
VERTEX
  8
0
 10
25.400182599665634
 20
-43.067745728570294
 30
0.0
  0
VERTEX
  8
0
 10
27.133793953758833
 20
-41.997109730015474
 30
0.0
  0
SEQEND
  8
0
  0
POLYLINE
  8
0
 62
0
 70
0
 66
1
 10
0.0
 20
0.0
 30
0.0
  0
VERTEX
  8
0
 10
27.133793953758833
 20
-41.997109730015474
 30
0.0
  0
VERTEX
  8
0
 10
25.000000000000004
 20
-43.30127018922193
 30
0.0
  0
SEQEND
  8
0
  0
POLYLINE
  8
0
 62
0
 70
0
 66
1
 10
0.0
 20
0.0
 30
0.0
  0
VERTEX
  8
0
 10
-2.5000000000000164
 20
-49.93746088859545
 30
0.0
  0
VERTEX
  8
0
 10
-1.598701681342353
 20
-49.97443499149302
 30
0.0
  0
SEQEND
  8
0
  0
POLYLINE
  8
0
 62
0
 70
0
 66
1
 10
0.0
 20
0.0
 30
0.0
  0
VERTEX
  8
0
 10
-1.0592969014598308
 20
-49.98877764190739
 30
0.0
  0
VERTEX
  8
0
 10
-0.7626995888760353
 20
-49.994182550734585
 30
0.0
  0
SEQEND
  8
0
  0
POLYLINE
  8
0
 62
0
 70
0
 66
1
 10
0.0
 20
0.0
 30
0.0
  0
VERTEX
  8
0
 10
-0.527793581736906
 20
-49.99721424841619
 30
0.0
  0
VERTEX
  8
0
 10
-0.4468261120865488
 20
-49.9980033996204
 30
0.0
  0
SEQEND
  8
0
  0
POLYLINE
  8
0
 62
0
 70
0
 66
1
 10
0.0
 20
0.0
 30
0.0
  0
VERTEX
  8
0
 10
-0.08551740798832422
 20
-49.999926883095625
 30
0.0
  0
VERTEX
  8
0
 10
0.20381548544405875
 20
-49.9995845929836
 30
0.0
  0
SEQEND
  8
0
  0
POLYLINE
  8
0
 62
0
 70
0
 66
1
 10
0.0
 20
0.0
 30
0.0
  0
VERTEX
  8
0
 10
0.4633285520599771
 20
-49.99785320281252
 30
0.0
  0
VERTEX
  8
0
 10
2.499999999999998
 20
-49.93746088859545
 30
0.0
  0
SEQEND
  8
0
  0
POLYLINE
  8
0
 62
0
 70
0
 66
1
 10
0.0
 20
0.0
 30
0.0
  0
VERTEX
  8
0
 10
-27.13379395375884
 20
-41.99710973001546
 30
0.0
  0
VERTEX
  8
0
 10
-26.371733701766274
 20
-42.47977944090591
 30
0.0
  0
SEQEND
  8
0
  0
POLYLINE
  8
0
 62
0
 70
0
 66
1
 10
0.0
 20
0.0
 30
0.0
  0
VERTEX
  8
0
 10
-25.911766799928873
 20
-42.76190292028184
 30
0.0
  0
VERTEX
  8
0
 10
-25.657608343295554
 20
-42.914882426509024
 30
0.0
  0
SEQEND
  8
0
  0
POLYLINE
  8
0
 62
0
 70
0
 66
1
 10
0.0
 20
0.0
 30
0.0
  0
VERTEX
  8
0
 10
-25.45568493038196
 20
-43.034963731737584
 30
0.0
  0
VERTEX
  8
0
 10
-25.385965123529406
 20
-43.076127637820974
 30
0.0
  0
SEQEND
  8
0
  0
POLYLINE
  8
0
 62
0
 70
0
 66
1
 10
0.0
 20
0.0
 30
0.0
  0
VERTEX
  8
0
 10
-25.07402368462057
 20
-43.25844816686181
 30
0.0
  0
VERTEX
  8
0
 10
-24.823279924524368
 20
-43.402819885483154
 30
0.0
  0
SEQEND
  8
0
  0
POLYLINE
  8
0
 62
0
 70
0
 66
1
 10
0.0
 20
0.0
 30
0.0
  0
VERTEX
  8
0
 10
-24.59767198730359
 20
-43.53107546388168
 30
0.0
  0
VERTEX
  8
0
 10
-22.80366693483665
 20
-44.49710973001549
 30
0.0
  0
SEQEND
  8
0
  0
POLYLINE
  8
0
 62
0
 70
0
 66
1
 10
0.0
 20
0.0
 30
0.0
  0
VERTEX
  8
0
 10
27.13379395375882
 20
41.997109730015474
 30
0.0
  0
VERTEX
  8
0
 10
26.37173372055346
 20
42.47977942924268
 30
0.0
  0
SEQEND
  8
0
  0
POLYLINE
  8
0
 62
0
 70
0
 66
1
 10
0.0
 20
0.0
 30
0.0
  0
VERTEX
  8
0
 10
25.911766805529105
 20
42.76190291688834
 30
0.0
  0
VERTEX
  8
0
 10
25.65761002449366
 20
42.91488142136752
 30
0.0
  0
SEQEND
  8
0
  0
POLYLINE
  8
0
 62
0
 70
0
 66
1
 10
0.0
 20
0.0
 30
0.0
  0
VERTEX
  8
0
 10
25.455535807831897
 20
43.035051939085285
 30
0.0
  0
VERTEX
  8
0
 10
25.385966779878824
 20
43.0761266616882
 30
0.0
  0
SEQEND
  8
0
  0
POLYLINE
  8
0
 62
0
 70
0
 66
1
 10
0.0
 20
0.0
 30
0.0
  0
VERTEX
  8
0
 10
25.07402369098809
 20
43.258448163170904
 30
0.0
  0
VERTEX
  8
0
 10
24.82328337579156
 20
43.40281791160784
 30
0.0
  0
SEQEND
  8
0
  0
POLYLINE
  8
0
 62
0
 70
0
 66
1
 10
0.0
 20
0.0
 30
0.0
  0
VERTEX
  8
0
 10
24.597670928240962
 20
43.53107606231572
 30
0.0
  0
VERTEX
  8
0
 10
22.803666934836656
 20
44.49710973001548
 30
0.0
  0
SEQEND
  8
0
  0
POLYLINE
  8
0
 62
0
 70
0
 66
1
 10
0.0
 20
0.0
 30
0.0
  0
VERTEX
  8
0
 10
41.99710973001546
 20
-27.133793953758843
 30
0.0
  0
VERTEX
  8
0
 10
42.47977936044369
 20
-26.371733831375394
 30
0.0
  0
SEQEND
  8
0
  0
POLYLINE
  8
0
 62
0
 70
0
 66
1
 10
0.0
 20
0.0
 30
0.0
  0
VERTEX
  8
0
 10
42.76190286470201
 20
-25.911766891651652
 30
0.0
  0
VERTEX
  8
0
 10
42.91488247115089
 20
-25.65760826862757
 30
0.0
  0
SEQEND
  8
0
  0
POLYLINE
  8
0
 62
0
 70
0
 66
1
 10
0.0
 20
0.0
 30
0.0
  0
VERTEX
  8
0
 10
43.035050873096445
 20
-25.455537609990046
 30
0.0
  0
VERTEX
  8
0
 10
43.07612673934089
 20
-25.385966648113843
 30
0.0
  0
SEQEND
  8
0
  0
POLYLINE
  8
0
 62
0
 70
0
 66
1
 10
0.0
 20
0.0
 30
0.0
  0
VERTEX
  8
0
 10
43.25844815877102
 20
-25.074023698579026
 30
0.0
  0
VERTEX
  8
0
 10
43.40282043199106
 20
-24.823278968970072
 30
0.0
  0
SEQEND
  8
0
  0
POLYLINE
  8
0
 62
0
 70
0
 66
1
 10
0.0
 20
0.0
 30
0.0
  0
VERTEX
  8
0
 10
43.531076135382335
 20
-24.597670798933173
 30
0.0
  0
VERTEX
  8
0
 10
44.49710973001549
 20
-22.803666934836652
 30
0.0
  0
SEQEND
  8
0
  0
POLYLINE
  8
0
 62
0
 70
0
 66
1
 10
0.0
 20
0.0
 30
0.0
  0
VERTEX
  8
0
 10
45.0
 20
1.2346979308880265e-15
 30
0.0
  0
VERTEX
  8
0
 10
44.899478814023865
 20
1.22381097064746
 30
0.0
  0
SEQEND
  8
0
  0
POLYLINE
  8
0
 62
0
 70
0
 66
1
 10
0.0
 20
0.0
 30
0.0
  0
VERTEX
  8
0
 10
44.88834451098316
 20
1.2893274943694926
 30
0.0
  0
VERTEX
  8
0
 10
44.571067811865476
 20
2.500000000000002
 30
0.0
  0
SEQEND
  8
0
  0
POLYLINE
  8
0
 62
0
 70
0
 66
1
 10
0.0
 20
0.0
 30
0.0
  0
VERTEX
  8
0
 10
44.571067811865476
 20
2.4999999999999996
 30
0.0
  0
VERTEX
  8
0
 10
45.0
 20
5.837174559431274e-16
 30
0.0
  0
SEQEND
  8
0
  0
POLYLINE
  8
0
 62
0
 70
0
 66
1
 10
0.0
 20
0.0
 30
0.0
  0
VERTEX
  8
0
 10
45.0
 20
-4.440892098500626e-16
 30
0.0
  0
VERTEX
  8
0
 10
44.571067811865476
 20
-2.5
 30
0.0
  0
SEQEND
  8
0
  0
POLYLINE
  8
0
 62
0
 70
0
 66
1
 10
0.0
 20
0.0
 30
0.0
  0
VERTEX
  8
0
 10
44.571067811865476
 20
-2.5
 30
0.0
  0
VERTEX
  8
0
 10
44.856454091325524
 20
-1.4603366825350947
 30
0.0
  0
SEQEND
  8
0
  0
POLYLINE
  8
0
 62
0
 70
0
 66
1
 10
0.0
 20
0.0
 30
0.0
  0
VERTEX
  8
0
 10
44.86003187278354
 20
-1.4421965377104011
 30
0.0
  0
VERTEX
  8
0
 10
44.89909894214376
 20
-1.2261055594233878
 30
0.0
  0
SEQEND
  8
0
  0
POLYLINE
  8
0
 62
0
 70
0
 66
1
 10
0.0
 20
0.0
 30
0.0
  0
VERTEX
  8
0
 10
44.90032340821561
 20
-1.2186933386477363
 30
0.0
  0
VERTEX
  8
0
 10
45.0
 20
4.440892098500626e-16
 30
0.0
  0
SEQEND
  8
0
  0
CIRCLE
  8
0
 62
0
 10
18.750000000000004
 20
-32.47595264191645
 30
0.0
 40
7.5
  0
CIRCLE
  8
0
 62
0
 10
32.475952641916436
 20
-18.750000000000018
 30
0.0
 40
7.5
  0
CIRCLE
  8
0
 62
0
 10
17.5
 20
0.0
 30
0.0
 40
7.5
  0
CIRCLE
  8
0
 62
0
 10
16.249999999999996
 20
-16.250000000000004
 30
0.0
 40
7.5
  0
CIRCLE
  8
0
 62
0
 10
32.47595264191645
 20
18.749999999999996
 30
0.0
 40
7.5
  0
CIRCLE
  8
0
 62
0
 10
16.25
 20
16.25
 30
0.0
 40
7.5
  0
CIRCLE
  8
0
 62
0
 10
18.750000000000004
 20
32.47595264191645
 30
0.0
 40
7.5
  0
CIRCLE
  8
0
 62
0
 10
-18.750000000000018
 20
-32.475952641916436
 30
0.0
 40
7.5
  0
CIRCLE
  8
0
 62
0
 10
-32.47595264191645
 20
-18.750000000000004
 30
0.0
 40
7.5
  0
CIRCLE
  8
0
 62
0
 10
-17.5
 20
2.1431318985078682e-15
 30
0.0
 40
7.5
  0
CIRCLE
  8
0
 62
0
 10
-16.250000000000004
 20
-16.25
 30
0.0
 40
7.5
  0
CIRCLE
  8
0
 62
0
 10
0.0
 20
0.0
 30
0.0
 40
5.0
  0
CIRCLE
  8
0
 62
0
 10
-3.214697847761802e-15
 20
-17.5
 30
0.0
 40
7.5
  0
CIRCLE
  8
0
 62
0
 10
-6.8886382452038615e-15
 20
-37.5
 30
0.0
 40
7.5
  0
CIRCLE
  8
0
 62
0
 10
-18.749999999999993
 20
32.47595264191645
 30
0.0
 40
7.5
  0
CIRCLE
  8
0
 62
0
 10
-16.25
 20
16.25
 30
0.0
 40
7.5
  0
CIRCLE
  8
0
 62
0
 10
-32.47595264191645
 20
18.749999999999996
 30
0.0
 40
7.5
  0
CIRCLE
  8
0
 62
0
 10
1.0715659492539341e-15
 20
17.5
 30
0.0
 40
7.5
  0
CIRCLE
  8
0
 62
0
 10
2.296212748401287e-15
 20
37.5
 30
0.0
 40
7.5
  0
CIRCLE
  8
0
 62
0
 10
-37.5
 20
4.592425496802574e-15
 30
0.0
 40
7.5
  0
CIRCLE
  8
0
 62
0
 10
37.5
 20
0.0
 30
0.0
 40
7.5
  0
POLYLINE
  8
0
 62
0
 70
0
 66
1
 10
0.0
 20
0.0
 30
0.0
  0
VERTEX
  8
0
 10
2.220446049250313e-15
 20
45.0
 30
0.0
  0
VERTEX
  8
0
 10
2.4999999999936007
 20
44.57106781196493
 30
0.0
  0
SEQEND
  8
0
  0
POLYLINE
  8
0
 62
0
 70
0
 66
1
 10
0.0
 20
0.0
 30
0.0
  0
VERTEX
  8
0
 10
-2.4999999999999973
 20
44.571067811865476
 30
0.0
  0
VERTEX
  8
0
 10
2.220446049250313e-15
 20
45.0
 30
0.0
  0
SEQEND
  8
0
  0
POLYLINE
  8
0
 62
0
 70
0
 66
1
 10
0.0
 20
0.0
 30
0.0
  0
VERTEX
  8
0
 10
-22.499999999999996
 20
38.97114317029974
 30
0.0
  0
VERTEX
  8
0
 10
-20.120470396526898
 20
39.849676998957314
 30
0.0
  0
SEQEND
  8
0
  0
POLYLINE
  8
0
 62
0
 70
0
 66
1
 10
0.0
 20
0.0
 30
0.0
  0
VERTEX
  8
0
 10
-24.45059741539382
 20
37.34967699887439
 30
0.0
  0
VERTEX
  8
0
 10
-22.499999999999996
 20
38.97114317029974
 30
0.0
  0
SEQEND
  8
0
  0
POLYLINE
  8
0
 62
0
 70
0
 66
1
 10
0.0
 20
0.0
 30
0.0
  0
VERTEX
  8
0
 10
-38.97114317029974
 20
22.5
 30
0.0
  0
VERTEX
  8
0
 10
-37.349676998963716
 20
24.45059741543803
 30
0.0
  0
SEQEND
  8
0
  0
POLYLINE
  8
0
 62
0
 70
0
 66
1
 10
0.0
 20
0.0
 30
0.0
  0
VERTEX
  8
0
 10
-39.849676998874386
 20
20.12047039647163
 30
0.0
  0
VERTEX
  8
0
 10
-38.97114317029974
 20
22.5
 30
0.0
  0
SEQEND
  8
0
  0
POLYLINE
  8
0
 62
0
 70
0
 66
1
 10
0.0
 20
0.0
 30
0.0
  0
VERTEX
  8
0
 10
-38.97114317029975
 20
-22.499999999999996
 30
0.0
  0
VERTEX
  8
0
 10
-39.84967699895732
 20
-20.1204703965269
 30
0.0
  0
SEQEND
  8
0
  0
POLYLINE
  8
0
 62
0
 70
0
 66
1
 10
0.0
 20
0.0
 30
0.0
  0
VERTEX
  8
0
 10
-37.34967699887442
 20
-24.450597415393837
 30
0.0
  0
VERTEX
  8
0
 10
-38.97114317029975
 20
-22.499999999999996
 30
0.0
  0
SEQEND
  8
0
  0
POLYLINE
  8
0
 62
0
 70
0
 66
1
 10
0.0
 20
0.0
 30
0.0
  0
VERTEX
  8
0
 10
-45.0
 20
7.993605777301127e-15
 30
0.0
  0
VERTEX
  8
0
 10
-44.571067811865476
 20
2.500000000000007
 30
0.0
  0
SEQEND
  8
0
  0
POLYLINE
  8
0
 62
0
 70
0
 66
1
 10
0.0
 20
0.0
 30
0.0
  0
VERTEX
  8
0
 10
-44.571067811865476
 20
-2.499999999999993
 30
0.0
  0
VERTEX
  8
0
 10
-45.0
 20
7.993605777301127e-15
 30
0.0
  0
SEQEND
  8
0
  0
POLYLINE
  8
0
 62
0
 70
0
 66
1
 10
0.0
 20
0.0
 30
0.0
  0
VERTEX
  8
0
 10
22.500000000000004
 20
-38.97114317029974
 30
0.0
  0
VERTEX
  8
0
 10
20.120470396532678
 20
-39.84967699895618
 30
0.0
  0
SEQEND
  8
0
  0
POLYLINE
  8
0
 62
0
 70
0
 66
1
 10
0.0
 20
0.0
 30
0.0
  0
VERTEX
  8
0
 10
24.450597415393844
 20
-37.34967699887439
 30
0.0
  0
VERTEX
  8
0
 10
22.500000000000004
 20
-38.97114317029974
 30
0.0
  0
SEQEND
  8
0
  0
POLYLINE
  8
0
 62
0
 70
0
 66
1
 10
0.0
 20
0.0
 30
0.0
  0
VERTEX
  8
0
 10
-7.993605777301127e-15
 20
-45.0
 30
0.0
  0
VERTEX
  8
0
 10
-2.499999999988041
 20
-44.57106781196681
 30
0.0
  0
SEQEND
  8
0
  0
POLYLINE
  8
0
 62
0
 70
0
 66
1
 10
0.0
 20
0.0
 30
0.0
  0
VERTEX
  8
0
 10
2.4999999999999907
 20
-44.571067811865476
 30
0.0
  0
VERTEX
  8
0
 10
-7.993605777301127e-15
 20
-45.0
 30
0.0
  0
SEQEND
  8
0
  0
POLYLINE
  8
0
 62
0
 70
0
 66
1
 10
0.0
 20
0.0
 30
0.0
  0
VERTEX
  8
0
 10
-22.50000000000002
 20
-38.97114317029973
 30
0.0
  0
VERTEX
  8
0
 10
-24.450597415434157
 20
-37.34967699896813
 30
0.0
  0
SEQEND
  8
0
  0
POLYLINE
  8
0
 62
0
 70
0
 66
1
 10
0.0
 20
0.0
 30
0.0
  0
VERTEX
  8
0
 10
-20.120470396471656
 20
-39.84967699887438
 30
0.0
  0
VERTEX
  8
0
 10
-22.50000000000002
 20
-38.97114317029973
 30
0.0
  0
SEQEND
  8
0
  0
POLYLINE
  8
0
 62
0
 70
0
 66
1
 10
0.0
 20
0.0
 30
0.0
  0
VERTEX
  8
0
 10
38.97114317029974
 20
22.5
 30
0.0
  0
VERTEX
  8
0
 10
39.84967699895617
 20
20.120470396532667
 30
0.0
  0
SEQEND
  8
0
  0
POLYLINE
  8
0
 62
0
 70
0
 66
1
 10
0.0
 20
0.0
 30
0.0
  0
VERTEX
  8
0
 10
37.349676998874386
 20
24.450597415393837
 30
0.0
  0
VERTEX
  8
0
 10
38.97114317029974
 20
22.5
 30
0.0
  0
SEQEND
  8
0
  0
POLYLINE
  8
0
 62
0
 70
0
 66
1
 10
0.0
 20
0.0
 30
0.0
  0
VERTEX
  8
0
 10
22.500000000000004
 20
38.97114317029974
 30
0.0
  0
VERTEX
  8
0
 10
24.450597415438015
 20
37.34967699896371
 30
0.0
  0
SEQEND
  8
0
  0
POLYLINE
  8
0
 62
0
 70
0
 66
1
 10
0.0
 20
0.0
 30
0.0
  0
VERTEX
  8
0
 10
20.120470396471642
 20
39.8496769988744
 30
0.0
  0
VERTEX
  8
0
 10
22.500000000000004
 20
38.97114317029974
 30
0.0
  0
SEQEND
  8
0
  0
POLYLINE
  8
0
 62
0
 70
0
 66
1
 10
0.0
 20
0.0
 30
0.0
  0
VERTEX
  8
0
 10
38.97114317029973
 20
-22.500000000000025
 30
0.0
  0
VERTEX
  8
0
 10
37.34967699896812
 20
-24.450597415434153
 30
0.0
  0
SEQEND
  8
0
  0
POLYLINE
  8
0
 62
0
 70
0
 66
1
 10
0.0
 20
0.0
 30
0.0
  0
VERTEX
  8
0
 10
39.849676998874386
 20
-20.12047039647166
 30
0.0
  0
VERTEX
  8
0
 10
38.97114317029973
 20
-22.500000000000025
 30
0.0
  0
SEQEND
  8
0
  0
ENDBLK
  0
ENDSEC
  0
SECTION
  2
ENTITIES
  0
INSERT
  2
SHAPE
  8
0
 62
0
 10
0.0
 20
0.0
 30
0.0
  0
ENDSEC
  0
EOF
