999
FreeCAD v0.20 29410 (Git)
  0
SECTION
  2
HEADER
  9
$ACADVER
  1
AC1014
  9
$ACADMAINTVER
 70
     9
  9
$DWGCODEPAGE
  3
ANSI_1252
  9
$TEXTSTYLE
  7
STANDARD
  9
$DIMSTYLE
  2
STANDARD
  9
$DIMTXSTY
  7
STANDARD
  9
$CMLSTYLE
  2
STANDARD
  9
$LUNITS
 70
2
  9
$INSUNITS
 70
4
  9
$PEXTMAX
 10
50
 20
50
 30
50
  9
$PEXTMIN
 10
0
 20
0
 30
0
  9
$HANDSEED
  5
FFFF
  0
ENDSEC
  0
SECTION
  2
CLASSES
  0
CLASS
  1
ACDBDICTIONARYWDFLT
  2
AcDbDictionaryWithDefault
  3
ObjectDBX Classes
 90
        0
280
     0
281
     0
  0
CLASS
  1
XRECORD
  2
AcDbXrecord
  3
ObjectDBX Classes
 90
        0
280
     0
281
     0
  0
CLASS
  1
LWPOLYLINE
  2
AcDbPolyline
  3
ObjectDBX Classes
 90
        0
280
     0
281
     1
  0
ENDSEC
  0
SECTION
  2
TABLES
  0
TABLE
  2
VPORT
  5
20
330
0
100
AcDbSymbolTable
 70
     1
  0
VPORT
  5
21
330
20
100
AcDbSymbolTableRecord
100
AcDbViewportTableRecord
  2
*ACTIVE
 70
     0
  0
ENDTAB
  0
TABLE
  2
LTYPE
  5
22
330
0
100
AcDbSymbolTable
 70
     1
  0
LTYPE
  5
23
330
21
100
AcDbSymbolTableRecord
100
AcDbLinetypeTableRecord
  2
BYBLOCK
 70
     0
  3

 72
    65
 73
     0
 40
0.0
  0
LTYPE
  5
24
330
21
100
AcDbSymbolTableRecord
100
AcDbLinetypeTableRecord
  2
BYLAYER
 70
     0
  3

 72
    65
 73
     0
 40
0.0
  0
LTYPE
  5
25
330
21
100
AcDbSymbolTableRecord
100
AcDbLinetypeTableRecord
  2
CONTINUOUS
 70
     0
  3
Solid line
 72
    65
 73
     0
 40
0.0
  0
ENDTAB
  0
TABLE
  2
LAYER
  5
ADC
330
0
100
AcDbSymbolTable
 70
3
  0
LAYER
  5
ADD
330
ADC
100
AcDbSymbolTableRecord
100
AcDbLayerTableRecord
  2
0
 70
   0
 62
   7
  6
CONTINUOUS
  0
LAYER
  5
ADE
330
ADC
100
AcDbSymbolTableRecord
100
AcDbLayerTableRecord
  2
none
 70
    0
 62
    7
  6
CONTINUOUS
  0
LAYER
  5
ADF
330
ADC
100
AcDbSymbolTableRecord
100
AcDbLayerTableRecord
  2
Shape
 70
    0
 62
    7
  6
CONTINUOUS
  0
ENDTAB
  0
TABLE
  2
STYLE
  5
70
330
0
100
AcDbSymbolTable
 70
     2
  0
STYLE
  5
71
330
70
100
AcDbSymbolTableRecord
100
AcDbTextStyleTableRecord
  2
STANDARD
 70
     0
 40
0.0
 41
1.0
 50
0.0
 71
     0
 42
2.5
  3
arial.ttf
  4

  0
STYLE
  5
72
330
70
100
AcDbSymbolTableRecord
100
AcDbTextStyleTableRecord
  2
ANNOTATIVE
 70
     0
 40
0.0
 41
1.0
 50
0.0
 71
     0
 42
2.5
  3
arial.ttf
  4

  0
ENDTAB
  0
TABLE
  2
VIEW
  5
73
330
0
100
AcDbSymbolTable
 70
     0
  0
ENDTAB
  0
TABLE
  2
UCS
  5
74
330
0
100
AcDbSymbolTable
 70
     0
  0
ENDTAB
  0
TABLE
  2
APPID
  5
75
330
0
100
AcDbSymbolTable
 70
     2
  0
APPID
  5
76
330
75
100
AcDbSymbolTableRecord
100
AcDbRegAppTableRecord
  2
ACAD
 70
     0
  0
APPID
  5
77
330
75
100
AcDbSymbolTableRecord
100
AcDbRegAppTableRecord
  2
ACADANNOTATIVE
 70
     0
  0
ENDTAB
  0
TABLE
  2
DIMSTYLE
  5
78
330
0
100
AcDbSymbolTable
 70
     2
  0
DIMSTYLE
105
79
330
78
100
AcDbSymbolTableRecord
100
AcDbDimStyleTableRecord
  2
STANDARD
 70
     0
  3

  4

  5

  6

  7

 40
0.0
 41
2.5
 42
0.625
 43
3.75
 44
1.25
 45
0.0
 46
0.0
 47
0.0
 48
0.0
140
2.5
141
2.5
142
0.0
143
0.03937007874016
144
1.0
145
0.0
146
1.0
147
0.625
 71
     0
 72
     0
 73
     0
 74
     0
 75
     0
 76
     0
 77
     1
 78
     8
170
     0
171
     3
172
     1
173
     0
174
     0
175
     0
176
     0
177
     0
178
     0
270
     2
271
     2
272
     2
273
     2
274
     3
340
71
275
     0
280
     0
281
     0
282
     0
283
     0
284
     8
285
     0
286
     0
287
     3
288
     0
  0
ENDTAB
  0
TABLE
  2
BLOCK_RECORD
  5
A01
330
0
100
AcDbSymbolTable
  70
5
  0
BLOCK_RECORD
  5
A02
330
A01
100
AcDbSymbolTableRecord
100
AcDbBlockTableRecord
  2
*MODEL_SPACE
  0
BLOCK_RECORD
  5
A03
330
A01
100
AcDbSymbolTableRecord
100
AcDbBlockTableRecord
  2
*PAPER_SPACE
  0
ENDTAB
  0
ENDSEC
  0
SECTION
  2
BLOCKS
  0
BLOCK
  5
A04
330
A02
100
AcDbEntity
  8
0
100
AcDbBlockBegin
  2
*MODEL_SPACE
 70
   0
 10
0
 20
0
 30
0
  3
*MODEL_SPACE
  1
 
  0
ENDBLK
  5
A05
330
A02
100
AcDbEntity
  8
0
100
AcDbBlockEnd
  0
BLOCK
  5
A06
330
A03
100
AcDbEntity
 67
1
  8
0
100
AcDbBlockBegin
  2
*PAPER_SPACE
 70
   0
 10
0
 20
0
 30
0
  3
*PAPER_SPACE
  1
 
  0
ENDBLK
  5
A07
330
A03
100
AcDbEntity
 67
    1
  8
0
100
AcDbBlockEnd
  0
ENDSEC
  0
SECTION
  2
ENTITIES
  0
SPLINE
  5
A08
330
A02
100
AcDbEntity
  8
Shape
100
AcDbSpline
210
0
220
0
230
1
 70
8
 71
3
 72
23
 73
19
 74
0
 40
0
 40
0
 40
0
 40
0
 40
0.122119
 40
0.122119
 40
0.122119
 40
0.244238
 40
0.244238
 40
0.244238
 40
0.500009
 40
0.500009
 40
0.500009
 40
0.755796
 40
0.755796
 40
0.755796
 40
0.877898
 40
0.877898
 40
0.877898
 40
1
 40
1
 40
1
 40
1
 10
50
 20
-3.10862e-15
 30
10
 10
50
 20
-0.38923
 30
10.0003
 10
49.9953
 20
-0.760507
 30
9.90825
 10
49.9883
 20
-1.08067
 30
9.75436
 10
49.9814
 20
-1.40155
 30
9.60096
 10
49.9725
 20
-1.67086
 30
9.38585
 10
49.9648
 20
-1.87528
 30
9.15328
 10
49.9484
 20
-2.30331
 30
8.66417
 10
49.9372
 20
-2.49874
 30
8.07797
 10
49.9375
 20
-2.5
 30
7.5
 10
49.9372
 20
-2.49873
 30
6.92201
 10
49.9484
 20
-2.30331
 30
6.33584
 10
49.9648
 20
-1.87528
 30
5.84672
 10
49.9725
 20
-1.6709
 30
5.61419
 10
49.9814
 20
-1.40157
 30
5.39904
 10
49.9883
 20
-1.08065
 30
5.24563
 10
49.9953
 20
-0.76045
 30
5.09172
 10
50
 20
-0.389135
 30
4.99973
 10
50
 20
0
 30
5
  0
LINE
  5
A09
330
A02
100
AcDbEntity
  8
Shape
100
AcDbLine
 10
50
 20
-1.22465e-14
 30
0
 11
50
 21
-1.22465e-14
 31
5
  0
CIRCLE
  5
A0A
330
A02
100
AcDbEntity
  8
Shape
100
AcDbCircle
 10
0
 20
0
 40
50
  0
LINE
  5
A0B
330
A02
100
AcDbEntity
  8
Shape
100
AcDbLine
 10
50
 20
-1.22465e-14
 30
0
 11
50
 21
-1.22465e-14
 31
5
  0
SPLINE
  5
A0C
330
A02
100
AcDbEntity
  8
Shape
100
AcDbSpline
210
0
220
0
230
1
 70
8
 71
3
 72
23
 73
19
 74
0
 40
0
 40
0
 40
0
 40
0
 40
0.122129
 40
0.122129
 40
0.122129
 40
0.244259
 40
0.244259
 40
0.244259
 40
0.500052
 40
0.500052
 40
0.500052
 40
0.755846
 40
0.755846
 40
0.755846
 40
0.877923
 40
0.877923
 40
0.877923
 40
1
 40
1
 40
1
 40
1
 10
50
 20
5.9952e-15
 30
5
 10
50
 20
0.38923
 30
4.99973
 10
49.9953
 20
0.760507
 30
5.09175
 10
49.9883
 20
1.08067
 30
5.24564
 10
49.9814
 20
1.40155
 30
5.39904
 10
49.9725
 20
1.67086
 30
5.61415
 10
49.9648
 20
1.87528
 30
5.84672
 10
49.9484
 20
2.30331
 30
6.33584
 10
49.9372
 20
2.49873
 30
6.92201
 10
49.9375
 20
2.5
 30
7.5
 10
49.9372
 20
2.49873
 30
8.07799
 10
49.9484
 20
2.30331
 30
8.66416
 10
49.9648
 20
1.87528
 30
9.15328
 10
49.9725
 20
1.67095
 30
9.38576
 10
49.9814
 20
1.40157
 30
9.60097
 10
49.9883
 20
1.08062
 30
9.75439
 10
49.9953
 20
0.760377
 30
9.90831
 10
50
 20
0.389046
 30
10.0003
 10
50
 20
3.10862e-15
 30
10
  0
LINE
  5
A0D
330
A02
100
AcDbEntity
  8
Shape
100
AcDbLine
 10
50
 20
-1.22465e-14
 30
10
 11
50
 21
-1.22465e-14
 31
15
  0
CIRCLE
  5
A0E
330
A02
100
AcDbEntity
  8
Shape
100
AcDbCircle
 10
0
 20
0
 40
50
  0
LINE
  5
A0F
330
A02
100
AcDbEntity
  8
Shape
100
AcDbLine
 10
50
 20
-1.22465e-14
 30
10
 11
50
 21
-1.22465e-14
 31
15
  0
SPLINE
  5
A10
330
A02
100
AcDbEntity
  8
Shape
100
AcDbSpline
210
0
220
0
230
1
 70
9
 71
3
 72
41
 73
37
 74
0
 40
0
 40
0
 40
0
 40
0
 40
0.0685441
 40
0.0685441
 40
0.0685441
 40
0.137088
 40
0.137088
 40
0.137088
 40
0.28065
 40
0.28065
 40
0.28065
 40
0.366606
 40
0.366606
 40
0.366606
 40
0.452562
 40
0.452562
 40
0.452562
 40
0.525492
 40
0.525492
 40
0.525492
 40
0.598422
 40
0.598422
 40
0.598422
 40
0.692583
 40
0.692583
 40
0.692583
 40
0.796163
 40
0.796163
 40
0.796163
 40
0.900454
 40
0.900454
 40
0.900454
 40
0.950227
 40
0.950227
 40
0.950227
 40
1
 40
1
 40
1
 40
1
 10
43.3013
 20
25
 30
10
 10
43.4959
 20
24.6629
 30
10.0003
 10
43.6774
 20
24.339
 30
9.90825
 10
43.8315
 20
24.0583
 30
9.75436
 10
43.9859
 20
23.7769
 30
9.60096
 10
44.1129
 20
23.5392
 30
9.38585
 10
44.2084
 20
23.3584
 30
9.15328
 10
44.4083
 20
22.9795
 30
8.66417
 10
44.4963
 20
22.8046
 30
8.07797
 10
44.4971
 20
22.8037
 30
7.5
 10
44.4975
 20
22.8031
 30
7.15012
 10
44.464
 20
22.8682
 30
6.80884
 10
44.3966
 20
22.9988
 30
6.47615
 10
44.3284
 20
23.1303
 30
6.14706
 10
44.2243
 20
23.3303
 30
5.83396
 10
44.0761
 20
23.6072
 30
5.57372
 10
43.9506
 20
23.8415
 30
5.35231
 10
43.7827
 20
24.1502
 30
5.16265
 10
43.5915
 20
24.4905
 30
5.06973
 10
43.4008
 20
24.8302
 30
4.97458
 10
43.1878
 20
25.1988
 30
4.97653
 10
42.9871
 20
25.5365
 30
5.07854
 10
42.7278
 20
25.9731
 30
5.20775
 10
42.4837
 20
26.3677
 30
5.50206
 10
42.306
 20
26.6497
 30
5.90644
 10
42.1092
 20
26.9617
 30
6.34957
 10
41.9961
 20
27.1351
 30
6.92355
 10
41.9971
 20
27.1338
 30
7.5
 10
41.9975
 20
27.1326
 30
8.07799
 10
42.1049
 20
26.9689
 30
8.66416
 10
42.3332
 20
26.6064
 30
9.15328
 10
42.442
 20
26.4333
 30
9.38576
 10
42.5844
 20
26.2045
 30
9.60097
 10
42.7508
 20
25.93
 30
9.75439
 10
42.917
 20
25.6561
 30
9.90831
 10
43.1068
 20
25.3369
 30
10.0003
 10
43.3013
 20
25
 30
10
  0
SPLINE
  5
A11
330
A02
100
AcDbEntity
  8
Shape
100
AcDbSpline
210
0
220
0
230
1
 70
9
 71
3
 72
41
 73
37
 74
0
 40
0
 40
0
 40
0
 40
0
 40
0.0685441
 40
0.0685441
 40
0.0685441
 40
0.137088
 40
0.137088
 40
0.137088
 40
0.28065
 40
0.28065
 40
0.28065
 40
0.366606
 40
0.366606
 40
0.366606
 40
0.452562
 40
0.452562
 40
0.452562
 40
0.525492
 40
0.525492
 40
0.525492
 40
0.598422
 40
0.598422
 40
0.598422
 40
0.692583
 40
0.692583
 40
0.692583
 40
0.796163
 40
0.796163
 40
0.796163
 40
0.900454
 40
0.900454
 40
0.900454
 40
0.950227
 40
0.950227
 40
0.950227
 40
1
 40
1
 40
1
 40
1
 10
25
 20
43.3013
 30
10
 10
25.3371
 20
43.1067
 30
10.0003
 10
25.6563
 20
42.9169
 30
9.90825
 10
25.9301
 20
42.7508
 30
9.75436
 10
26.2045
 20
42.5844
 30
9.60096
 10
26.4332
 20
42.442
 30
9.38585
 10
26.6064
 20
42.3332
 30
9.15328
 10
26.9689
 20
42.1049
 30
8.66417
 10
27.1326
 20
41.9975
 30
8.07797
 10
27.1338
 20
41.9971
 30
7.5
 10
27.1344
 20
41.9968
 30
7.15012
 10
27.0729
 20
42.0364
 30
6.80884
 10
26.9491
 20
42.1158
 30
6.47615
 10
26.8244
 20
42.1956
 30
6.14706
 10
26.6342
 20
42.3168
 30
5.83396
 10
26.3674
 20
42.4825
 30
5.57372
 10
26.1416
 20
42.6227
 30
5.35231
 10
25.8418
 20
42.8061
 30
5.16265
 10
25.506
 20
43.0051
 30
5.06973
 10
25.1711
 20
43.2039
 30
4.97458
 10
24.8023
 20
43.4167
 30
4.97653
 10
24.4596
 20
43.6088
 30
5.07854
 10
24.0168
 20
43.8573
 30
5.20775
 10
23.6082
 20
44.0769
 30
5.50206
 10
23.3132
 20
44.2323
 30
5.90644
 10
22.9867
 20
44.4042
 30
6.34957
 10
22.8021
 20
44.4977
 30
6.92355
 10
22.8037
 20
44.4971
 30
7.5
 10
22.8046
 20
44.4963
 30
8.07799
 10
22.9795
 20
44.4083
 30
8.66416
 10
23.3584
 20
44.2084
 30
9.15328
 10
23.5392
 20
44.1129
 30
9.38576
 10
23.7769
 20
43.9859
 30
9.60097
 10
24.0583
 20
43.8315
 30
9.75439
 10
24.3391
 20
43.6774
 30
9.90831
 10
24.6631
 20
43.4958
 30
10.0003
 10
25
 20
43.3013
 30
10
  0
SPLINE
  5
A12
330
A02
100
AcDbEntity
  8
Shape
100
AcDbSpline
210
0
220
0
230
1
 70
9
 71
3
 72
41
 73
37
 74
0
 40
0
 40
0
 40
0
 40
0
 40
0.0685441
 40
0.0685441
 40
0.0685441
 40
0.137088
 40
0.137088
 40
0.137088
 40
0.28065
 40
0.28065
 40
0.28065
 40
0.366606
 40
0.366606
 40
0.366606
 40
0.452562
 40
0.452562
 40
0.452562
 40
0.525492
 40
0.525492
 40
0.525492
 40
0.598422
 40
0.598422
 40
0.598422
 40
0.692583
 40
0.692583
 40
0.692583
 40
0.796163
 40
0.796163
 40
0.796163
 40
0.900454
 40
0.900454
 40
0.900454
 40
0.950227
 40
0.950227
 40
0.950227
 40
1
 40
1
 40
1
 40
1
 10
2.66454e-15
 20
50
 30
10
 10
0.38923
 20
50
 30
10.0003
 10
0.760507
 20
49.9953
 30
9.90825
 10
1.08067
 20
49.9883
 30
9.75436
 10
1.40155
 20
49.9814
 30
9.60096
 10
1.67086
 20
49.9725
 30
9.38585
 10
1.87528
 20
49.9648
 30
9.15328
 10
2.30331
 20
49.9484
 30
8.66417
 10
2.49874
 20
49.9372
 30
8.07797
 10
2.5
 20
49.9375
 30
7.5
 10
2.50069
 20
49.9376
 30
7.15012
 10
2.4276
 20
49.9411
 30
6.80884
 10
2.28073
 20
49.948
 30
6.47615
 10
2.13276
 20
49.9547
 30
6.14706
 10
1.9075
 20
49.9645
 30
5.83396
 10
1.59356
 20
49.9746
 30
5.57372
 10
1.32796
 20
49.9831
 30
5.35231
 10
0.976614
 20
49.992
 30
5.16265
 10
0.586317
 20
49.9966
 30
5.06973
 10
0.196805
 20
50.0012
 30
4.97458
 10
-0.228907
 20
50.0011
 30
4.97653
 10
-0.621725
 20
49.9961
 30
5.07854
 10
-1.12945
 20
49.9899
 30
5.20775
 10
-1.59319
 20
49.9758
 30
5.50206
 10
-1.92628
 20
49.9629
 30
5.90644
 10
-2.29497
 20
49.9485
 30
6.34957
 10
-2.50161
 20
49.9372
 30
6.92355
 10
-2.5
 20
49.9375
 30
7.5
 10
-2.49873
 20
49.9372
 30
8.07799
 10
-2.30331
 20
49.9484
 30
8.66416
 10
-1.87528
 20
49.9648
 30
9.15328
 10
-1.67095
 20
49.9725
 30
9.38576
 10
-1.40157
 20
49.9814
 30
9.60097
 10
-1.08062
 20
49.9883
 30
9.75439
 10
-0.760377
 20
49.9953
 30
9.90831
 10
-0.389046
 20
50
 30
10.0003
 10
2.66454e-15
 20
50
 30
10
  0
SPLINE
  5
A13
330
A02
100
AcDbEntity
  8
Shape
100
AcDbSpline
210
0
220
0
230
1
 70
9
 71
3
 72
41
 73
37
 74
0
 40
0
 40
0
 40
0
 40
0
 40
0.0685441
 40
0.0685441
 40
0.0685441
 40
0.137088
 40
0.137088
 40
0.137088
 40
0.28065
 40
0.28065
 40
0.28065
 40
0.366606
 40
0.366606
 40
0.366606
 40
0.452562
 40
0.452562
 40
0.452562
 40
0.525492
 40
0.525492
 40
0.525492
 40
0.598422
 40
0.598422
 40
0.598422
 40
0.692583
 40
0.692583
 40
0.692583
 40
0.796163
 40
0.796163
 40
0.796163
 40
0.900454
 40
0.900454
 40
0.900454
 40
0.950227
 40
0.950227
 40
0.950227
 40
1
 40
1
 40
1
 40
1
 10
-25
 20
43.3013
 30
10
 10
-24.6629
 20
43.4959
 30
10.0003
 10
-24.339
 20
43.6774
 30
9.90825
 10
-24.0583
 20
43.8315
 30
9.75436
 10
-23.7769
 20
43.9859
 30
9.60096
 10
-23.5392
 20
44.1129
 30
9.38585
 10
-23.3584
 20
44.2084
 30
9.15328
 10
-22.9795
 20
44.4083
 30
8.66417
 10
-22.8046
 20
44.4963
 30
8.07797
 10
-22.8037
 20
44.4971
 30
7.5
 10
-22.8031
 20
44.4975
 30
7.15012
 10
-22.8682
 20
44.464
 30
6.80884
 10
-22.9988
 20
44.3966
 30
6.47615
 10
-23.1303
 20
44.3284
 30
6.14706
 10
-23.3303
 20
44.2243
 30
5.83396
 10
-23.6072
 20
44.0761
 30
5.57372
 10
-23.8415
 20
43.9506
 30
5.35231
 10
-24.1502
 20
43.7827
 30
5.16265
 10
-24.4905
 20
43.5915
 30
5.06973
 10
-24.8302
 20
43.4008
 30
4.97458
 10
-25.1988
 20
43.1878
 30
4.97653
 10
-25.5365
 20
42.9871
 30
5.07854
 10
-25.9731
 20
42.7278
 30
5.20775
 10
-26.3677
 20
42.4837
 30
5.50206
 10
-26.6497
 20
42.306
 30
5.90644
 10
-26.9617
 20
42.1092
 30
6.34957
 10
-27.1351
 20
41.9961
 30
6.92355
 10
-27.1338
 20
41.9971
 30
7.5
 10
-27.1326
 20
41.9975
 30
8.07799
 10
-26.9689
 20
42.1049
 30
8.66416
 10
-26.6064
 20
42.3332
 30
9.15328
 10
-26.4333
 20
42.442
 30
9.38576
 10
-26.2045
 20
42.5844
 30
9.60097
 10
-25.93
 20
42.7508
 30
9.75439
 10
-25.6561
 20
42.917
 30
9.90831
 10
-25.3369
 20
43.1068
 30
10.0003
 10
-25
 20
43.3013
 30
10
  0
SPLINE
  5
A14
330
A02
100
AcDbEntity
  8
Shape
100
AcDbSpline
210
0
220
0
230
1
 70
9
 71
3
 72
41
 73
37
 74
0
 40
0
 40
0
 40
0
 40
0
 40
0.0685441
 40
0.0685441
 40
0.0685441
 40
0.137088
 40
0.137088
 40
0.137088
 40
0.28065
 40
0.28065
 40
0.28065
 40
0.366606
 40
0.366606
 40
0.366606
 40
0.452562
 40
0.452562
 40
0.452562
 40
0.525492
 40
0.525492
 40
0.525492
 40
0.598422
 40
0.598422
 40
0.598422
 40
0.692583
 40
0.692583
 40
0.692583
 40
0.796163
 40
0.796163
 40
0.796163
 40
0.900454
 40
0.900454
 40
0.900454
 40
0.950227
 40
0.950227
 40
0.950227
 40
1
 40
1
 40
1
 40
1
 10
-43.3013
 20
25
 30
10
 10
-43.1067
 20
25.3371
 30
10.0003
 10
-42.9169
 20
25.6563
 30
9.90825
 10
-42.7508
 20
25.9301
 30
9.75436
 10
-42.5844
 20
26.2045
 30
9.60096
 10
-42.442
 20
26.4332
 30
9.38585
 10
-42.3332
 20
26.6064
 30
9.15328
 10
-42.1049
 20
26.9689
 30
8.66417
 10
-41.9975
 20
27.1326
 30
8.07797
 10
-41.9971
 20
27.1338
 30
7.5
 10
-41.9968
 20
27.1344
 30
7.15012
 10
-42.0364
 20
27.0729
 30
6.80884
 10
-42.1158
 20
26.9491
 30
6.47615
 10
-42.1956
 20
26.8244
 30
6.14706
 10
-42.3168
 20
26.6342
 30
5.83396
 10
-42.4825
 20
26.3674
 30
5.57372
 10
-42.6227
 20
26.1416
 30
5.35231
 10
-42.8061
 20
25.8418
 30
5.16265
 10
-43.0051
 20
25.506
 30
5.06973
 10
-43.2039
 20
25.1711
 30
4.97458
 10
-43.4167
 20
24.8023
 30
4.97653
 10
-43.6088
 20
24.4596
 30
5.07854
 10
-43.8573
 20
24.0168
 30
5.20775
 10
-44.0769
 20
23.6082
 30
5.50206
 10
-44.2323
 20
23.3132
 30
5.90644
 10
-44.4042
 20
22.9867
 30
6.34957
 10
-44.4977
 20
22.8021
 30
6.92355
 10
-44.4971
 20
22.8037
 30
7.5
 10
-44.4963
 20
22.8046
 30
8.07799
 10
-44.4083
 20
22.9795
 30
8.66416
 10
-44.2084
 20
23.3584
 30
9.15328
 10
-44.1129
 20
23.5392
 30
9.38576
 10
-43.9859
 20
23.7769
 30
9.60097
 10
-43.8315
 20
24.0583
 30
9.75439
 10
-43.6774
 20
24.3391
 30
9.90831
 10
-43.4958
 20
24.6631
 30
10.0003
 10
-43.3013
 20
25
 30
10
  0
SPLINE
  5
A15
330
A02
100
AcDbEntity
  8
Shape
100
AcDbSpline
210
0
220
0
230
1
 70
9
 71
3
 72
41
 73
37
 74
0
 40
0
 40
0
 40
0
 40
0
 40
0.0610597
 40
0.0610597
 40
0.0610597
 40
0.122119
 40
0.122119
 40
0.122119
 40
0.250006
 40
0.250006
 40
0.250006
 40
0.3779
 40
0.3779
 40
0.3779
 40
0.438951
 40
0.438951
 40
0.438951
 40
0.500003
 40
0.500003
 40
0.500003
 40
0.561069
 40
0.561069
 40
0.561069
 40
0.622135
 40
0.622135
 40
0.622135
 40
0.75003
 40
0.75003
 40
0.75003
 40
0.877925
 40
0.877925
 40
0.877925
 40
0.938962
 40
0.938962
 40
0.938962
 40
1
 40
1
 40
1
 40
1
 10
-50
 20
5.77316e-15
 30
10
 10
-50
 20
0.38923
 30
10.0003
 10
-49.9953
 20
0.760507
 30
9.90825
 10
-49.9883
 20
1.08067
 30
9.75436
 10
-49.9814
 20
1.40155
 30
9.60096
 10
-49.9725
 20
1.67086
 30
9.38585
 10
-49.9648
 20
1.87528
 30
9.15328
 10
-49.9484
 20
2.30331
 30
8.66417
 10
-49.9372
 20
2.49874
 30
8.07797
 10
-49.9375
 20
2.5
 30
7.5
 10
-49.9372
 20
2.49873
 30
6.92201
 10
-49.9484
 20
2.30331
 30
6.33584
 10
-49.9648
 20
1.87528
 30
5.84672
 10
-49.9725
 20
1.6709
 30
5.61419
 10
-49.9814
 20
1.40157
 30
5.39904
 10
-49.9883
 20
1.08065
 30
5.24563
 10
-49.9953
 20
0.76045
 30
5.09172
 10
-50
 20
0.389135
 30
4.99973
 10
-50
 20
7.53601e-15
 30
5
 10
-50
 20
-0.38923
 30
4.99973
 10
-49.9953
 20
-0.760507
 30
5.09175
 10
-49.9883
 20
-1.08067
 30
5.24564
 10
-49.9814
 20
-1.40155
 30
5.39904
 10
-49.9725
 20
-1.67086
 30
5.61415
 10
-49.9648
 20
-1.87528
 30
5.84672
 10
-49.9484
 20
-2.30331
 30
6.33583
 10
-49.9372
 20
-2.49874
 30
6.92202
 10
-49.9375
 20
-2.5
 30
7.5
 10
-49.9372
 20
-2.49873
 30
8.07799
 10
-49.9484
 20
-2.30331
 30
8.66416
 10
-49.9648
 20
-1.87528
 30
9.15328
 10
-49.9725
 20
-1.67095
 30
9.38576
 10
-49.9814
 20
-1.40157
 30
9.60097
 10
-49.9883
 20
-1.08062
 30
9.75439
 10
-49.9953
 20
-0.760377
 30
9.90831
 10
-50
 20
-0.389046
 30
10.0003
 10
-50
 20
5.77316e-15
 30
10
  0
SPLINE
  5
A16
330
A02
100
AcDbEntity
  8
Shape
100
AcDbSpline
210
0
220
0
230
1
 70
9
 71
3
 72
41
 73
37
 74
0
 40
0
 40
0
 40
0
 40
0
 40
0.0685441
 40
0.0685441
 40
0.0685441
 40
0.137088
 40
0.137088
 40
0.137088
 40
0.28065
 40
0.28065
 40
0.28065
 40
0.366606
 40
0.366606
 40
0.366606
 40
0.452562
 40
0.452562
 40
0.452562
 40
0.525492
 40
0.525492
 40
0.525492
 40
0.598422
 40
0.598422
 40
0.598422
 40
0.692583
 40
0.692583
 40
0.692583
 40
0.796163
 40
0.796163
 40
0.796163
 40
0.900454
 40
0.900454
 40
0.900454
 40
0.950227
 40
0.950227
 40
0.950227
 40
1
 40
1
 40
1
 40
1
 10
-43.3013
 20
-25
 30
10
 10
-43.4959
 20
-24.6629
 30
10.0003
 10
-43.6774
 20
-24.339
 30
9.90825
 10
-43.8315
 20
-24.0583
 30
9.75436
 10
-43.9859
 20
-23.7769
 30
9.60096
 10
-44.1129
 20
-23.5392
 30
9.38585
 10
-44.2084
 20
-23.3584
 30
9.15328
 10
-44.4083
 20
-22.9795
 30
8.66417
 10
-44.4963
 20
-22.8046
 30
8.07797
 10
-44.4971
 20
-22.8037
 30
7.5
 10
-44.4975
 20
-22.8031
 30
7.15012
 10
-44.464
 20
-22.8682
 30
6.80884
 10
-44.3966
 20
-22.9988
 30
6.47615
 10
-44.3284
 20
-23.1303
 30
6.14706
 10
-44.2243
 20
-23.3303
 30
5.83396
 10
-44.0761
 20
-23.6072
 30
5.57372
 10
-43.9506
 20
-23.8415
 30
5.35231
 10
-43.7827
 20
-24.1502
 30
5.16265
 10
-43.5915
 20
-24.4905
 30
5.06973
 10
-43.4008
 20
-24.8302
 30
4.97458
 10
-43.1878
 20
-25.1988
 30
4.97653
 10
-42.9871
 20
-25.5365
 30
5.07854
 10
-42.7278
 20
-25.9731
 30
5.20775
 10
-42.4837
 20
-26.3677
 30
5.50206
 10
-42.306
 20
-26.6497
 30
5.90644
 10
-42.1092
 20
-26.9617
 30
6.34957
 10
-41.9961
 20
-27.1351
 30
6.92355
 10
-41.9971
 20
-27.1338
 30
7.5
 10
-41.9975
 20
-27.1326
 30
8.07799
 10
-42.1049
 20
-26.9689
 30
8.66416
 10
-42.3332
 20
-26.6064
 30
9.15328
 10
-42.442
 20
-26.4333
 30
9.38576
 10
-42.5844
 20
-26.2045
 30
9.60097
 10
-42.7508
 20
-25.93
 30
9.75439
 10
-42.917
 20
-25.6561
 30
9.90831
 10
-43.1068
 20
-25.3369
 30
10.0003
 10
-43.3013
 20
-25
 30
10
  0
SPLINE
  5
A17
330
A02
100
AcDbEntity
  8
Shape
100
AcDbSpline
210
0
220
0
230
1
 70
9
 71
3
 72
41
 73
37
 74
0
 40
0
 40
0
 40
0
 40
0
 40
0.0685441
 40
0.0685441
 40
0.0685441
 40
0.137088
 40
0.137088
 40
0.137088
 40
0.28065
 40
0.28065
 40
0.28065
 40
0.366606
 40
0.366606
 40
0.366606
 40
0.452562
 40
0.452562
 40
0.452562
 40
0.525492
 40
0.525492
 40
0.525492
 40
0.598422
 40
0.598422
 40
0.598422
 40
0.692583
 40
0.692583
 40
0.692583
 40
0.796163
 40
0.796163
 40
0.796163
 40
0.900454
 40
0.900454
 40
0.900454
 40
0.950227
 40
0.950227
 40
0.950227
 40
1
 40
1
 40
1
 40
1
 10
-25
 20
-43.3013
 30
10
 10
-25.3371
 20
-43.1067
 30
10.0003
 10
-25.6563
 20
-42.9169
 30
9.90825
 10
-25.9301
 20
-42.7508
 30
9.75436
 10
-26.2045
 20
-42.5844
 30
9.60096
 10
-26.4332
 20
-42.442
 30
9.38585
 10
-26.6064
 20
-42.3332
 30
9.15328
 10
-26.9689
 20
-42.1049
 30
8.66417
 10
-27.1326
 20
-41.9975
 30
8.07797
 10
-27.1338
 20
-41.9971
 30
7.5
 10
-27.1344
 20
-41.9968
 30
7.15012
 10
-27.0729
 20
-42.0364
 30
6.80884
 10
-26.9491
 20
-42.1158
 30
6.47615
 10
-26.8244
 20
-42.1956
 30
6.14706
 10
-26.6342
 20
-42.3168
 30
5.83396
 10
-26.3674
 20
-42.4825
 30
5.57372
 10
-26.1416
 20
-42.6227
 30
5.35231
 10
-25.8418
 20
-42.8061
 30
5.16265
 10
-25.506
 20
-43.0051
 30
5.06973
 10
-25.1711
 20
-43.2039
 30
4.97458
 10
-24.8023
 20
-43.4167
 30
4.97653
 10
-24.4596
 20
-43.6088
 30
5.07854
 10
-24.0168
 20
-43.8573
 30
5.20775
 10
-23.6082
 20
-44.0769
 30
5.50206
 10
-23.3132
 20
-44.2323
 30
5.90644
 10
-22.9867
 20
-44.4042
 30
6.34957
 10
-22.8021
 20
-44.4977
 30
6.92355
 10
-22.8037
 20
-44.4971
 30
7.5
 10
-22.8046
 20
-44.4963
 30
8.07799
 10
-22.9795
 20
-44.4083
 30
8.66416
 10
-23.3584
 20
-44.2084
 30
9.15328
 10
-23.5392
 20
-44.1129
 30
9.38576
 10
-23.7769
 20
-43.9859
 30
9.60097
 10
-24.0583
 20
-43.8315
 30
9.75439
 10
-24.3391
 20
-43.6774
 30
9.90831
 10
-24.6631
 20
-43.4958
 30
10.0003
 10
-25
 20
-43.3013
 30
10
  0
SPLINE
  5
A18
330
A02
100
AcDbEntity
  8
Shape
100
AcDbSpline
210
0
220
0
230
1
 70
9
 71
3
 72
41
 73
37
 74
0
 40
0
 40
0
 40
0
 40
0
 40
0.0685441
 40
0.0685441
 40
0.0685441
 40
0.137088
 40
0.137088
 40
0.137088
 40
0.28065
 40
0.28065
 40
0.28065
 40
0.366606
 40
0.366606
 40
0.366606
 40
0.452562
 40
0.452562
 40
0.452562
 40
0.525492
 40
0.525492
 40
0.525492
 40
0.598422
 40
0.598422
 40
0.598422
 40
0.692583
 40
0.692583
 40
0.692583
 40
0.796163
 40
0.796163
 40
0.796163
 40
0.900454
 40
0.900454
 40
0.900454
 40
0.950227
 40
0.950227
 40
0.950227
 40
1
 40
1
 40
1
 40
1
 10
-8.43769e-15
 20
-50
 30
10
 10
-0.38923
 20
-50
 30
10.0003
 10
-0.760507
 20
-49.9953
 30
9.90825
 10
-1.08067
 20
-49.9883
 30
9.75436
 10
-1.40155
 20
-49.9814
 30
9.60096
 10
-1.67086
 20
-49.9725
 30
9.38585
 10
-1.87528
 20
-49.9648
 30
9.15328
 10
-2.30331
 20
-49.9484
 30
8.66417
 10
-2.49874
 20
-49.9372
 30
8.07797
 10
-2.5
 20
-49.9375
 30
7.5
 10
-2.50069
 20
-49.9376
 30
7.15012
 10
-2.4276
 20
-49.9411
 30
6.80884
 10
-2.28073
 20
-49.948
 30
6.47615
 10
-2.13276
 20
-49.9547
 30
6.14706
 10
-1.9075
 20
-49.9645
 30
5.83396
 10
-1.59356
 20
-49.9746
 30
5.57372
 10
-1.32796
 20
-49.9831
 30
5.35231
 10
-0.976614
 20
-49.992
 30
5.16265
 10
-0.586317
 20
-49.9966
 30
5.06973
 10
-0.196805
 20
-50.0012
 30
4.97458
 10
0.228907
 20
-50.0011
 30
4.97653
 10
0.621725
 20
-49.9961
 30
5.07854
 10
1.12945
 20
-49.9899
 30
5.20775
 10
1.59319
 20
-49.9758
 30
5.50206
 10
1.92628
 20
-49.9629
 30
5.90644
 10
2.29497
 20
-49.9485
 30
6.34957
 10
2.50161
 20
-49.9372
 30
6.92355
 10
2.5
 20
-49.9375
 30
7.5
 10
2.49873
 20
-49.9372
 30
8.07799
 10
2.30331
 20
-49.9484
 30
8.66416
 10
1.87528
 20
-49.9648
 30
9.15328
 10
1.67095
 20
-49.9725
 30
9.38576
 10
1.40157
 20
-49.9814
 30
9.60097
 10
1.08062
 20
-49.9883
 30
9.75439
 10
0.760377
 20
-49.9953
 30
9.90831
 10
0.389046
 20
-50
 30
10.0003
 10
-8.43769e-15
 20
-50
 30
10
  0
SPLINE
  5
A19
330
A02
100
AcDbEntity
  8
Shape
100
AcDbSpline
210
0
220
0
230
1
 70
9
 71
3
 72
41
 73
37
 74
0
 40
0
 40
0
 40
0
 40
0
 40
0.0685441
 40
0.0685441
 40
0.0685441
 40
0.137088
 40
0.137088
 40
0.137088
 40
0.28065
 40
0.28065
 40
0.28065
 40
0.366606
 40
0.366606
 40
0.366606
 40
0.452562
 40
0.452562
 40
0.452562
 40
0.525492
 40
0.525492
 40
0.525492
 40
0.598422
 40
0.598422
 40
0.598422
 40
0.692583
 40
0.692583
 40
0.692583
 40
0.796163
 40
0.796163
 40
0.796163
 40
0.900454
 40
0.900454
 40
0.900454
 40
0.950227
 40
0.950227
 40
0.950227
 40
1
 40
1
 40
1
 40
1
 10
25
 20
-43.3013
 30
10
 10
24.6629
 20
-43.4959
 30
10.0003
 10
24.339
 20
-43.6774
 30
9.90825
 10
24.0583
 20
-43.8315
 30
9.75436
 10
23.7769
 20
-43.9859
 30
9.60096
 10
23.5392
 20
-44.1129
 30
9.38585
 10
23.3584
 20
-44.2084
 30
9.15328
 10
22.9795
 20
-44.4083
 30
8.66417
 10
22.8046
 20
-44.4963
 30
8.07797
 10
22.8037
 20
-44.4971
 30
7.5
 10
22.8031
 20
-44.4975
 30
7.15012
 10
22.8682
 20
-44.464
 30
6.80884
 10
22.9988
 20
-44.3966
 30
6.47615
 10
23.1303
 20
-44.3284
 30
6.14706
 10
23.3303
 20
-44.2243
 30
5.83396
 10
23.6072
 20
-44.0761
 30
5.57372
 10
23.8415
 20
-43.9506
 30
5.35231
 10
24.1502
 20
-43.7827
 30
5.16265
 10
24.4905
 20
-43.5915
 30
5.06973
 10
24.8302
 20
-43.4008
 30
4.97458
 10
25.1988
 20
-43.1878
 30
4.97653
 10
25.5365
 20
-42.9871
 30
5.07854
 10
25.9731
 20
-42.7278
 30
5.20775
 10
26.3677
 20
-42.4837
 30
5.50206
 10
26.6497
 20
-42.306
 30
5.90644
 10
26.9617
 20
-42.1092
 30
6.34957
 10
27.1351
 20
-41.9961
 30
6.92355
 10
27.1338
 20
-41.9971
 30
7.5
 10
27.1326
 20
-41.9975
 30
8.07799
 10
26.9689
 20
-42.1049
 30
8.66416
 10
26.6064
 20
-42.3332
 30
9.15328
 10
26.4333
 20
-42.442
 30
9.38576
 10
26.2045
 20
-42.5844
 30
9.60097
 10
25.93
 20
-42.7508
 30
9.75439
 10
25.6561
 20
-42.917
 30
9.90831
 10
25.3369
 20
-43.1068
 30
10.0003
 10
25
 20
-43.3013
 30
10
  0
SPLINE
  5
A1A
330
A02
100
AcDbEntity
  8
Shape
100
AcDbSpline
210
0
220
0
230
1
 70
9
 71
3
 72
41
 73
37
 74
0
 40
0
 40
0
 40
0
 40
0
 40
0.0685441
 40
0.0685441
 40
0.0685441
 40
0.137088
 40
0.137088
 40
0.137088
 40
0.28065
 40
0.28065
 40
0.28065
 40
0.366606
 40
0.366606
 40
0.366606
 40
0.452562
 40
0.452562
 40
0.452562
 40
0.525492
 40
0.525492
 40
0.525492
 40
0.598422
 40
0.598422
 40
0.598422
 40
0.692583
 40
0.692583
 40
0.692583
 40
0.796163
 40
0.796163
 40
0.796163
 40
0.900454
 40
0.900454
 40
0.900454
 40
0.950227
 40
0.950227
 40
0.950227
 40
1
 40
1
 40
1
 40
1
 10
43.3013
 20
-25
 30
10
 10
43.1067
 20
-25.3371
 30
10.0003
 10
42.9169
 20
-25.6563
 30
9.90825
 10
42.7508
 20
-25.9301
 30
9.75436
 10
42.5844
 20
-26.2045
 30
9.60096
 10
42.442
 20
-26.4332
 30
9.38585
 10
42.3332
 20
-26.6064
 30
9.15328
 10
42.1049
 20
-26.9689
 30
8.66417
 10
41.9975
 20
-27.1326
 30
8.07797
 10
41.9971
 20
-27.1338
 30
7.5
 10
41.9968
 20
-27.1344
 30
7.15012
 10
42.0364
 20
-27.0729
 30
6.80884
 10
42.1158
 20
-26.9491
 30
6.47615
 10
42.1956
 20
-26.8244
 30
6.14706
 10
42.3168
 20
-26.6342
 30
5.83396
 10
42.4825
 20
-26.3674
 30
5.57372
 10
42.6227
 20
-26.1416
 30
5.35231
 10
42.8061
 20
-25.8418
 30
5.16265
 10
43.0051
 20
-25.506
 30
5.06973
 10
43.2039
 20
-25.1711
 30
4.97458
 10
43.4167
 20
-24.8023
 30
4.97653
 10
43.6088
 20
-24.4596
 30
5.07854
 10
43.8573
 20
-24.0168
 30
5.20775
 10
44.0769
 20
-23.6082
 30
5.50206
 10
44.2323
 20
-23.3132
 30
5.90644
 10
44.4042
 20
-22.9867
 30
6.34957
 10
44.4977
 20
-22.8021
 30
6.92355
 10
44.4971
 20
-22.8037
 30
7.5
 10
44.4963
 20
-22.8046
 30
8.07799
 10
44.4083
 20
-22.9795
 30
8.66416
 10
44.2084
 20
-23.3584
 30
9.15328
 10
44.1129
 20
-23.5392
 30
9.38576
 10
43.9859
 20
-23.7769
 30
9.60097
 10
43.8315
 20
-24.0583
 30
9.75439
 10
43.6774
 20
-24.3391
 30
9.90831
 10
43.4958
 20
-24.6631
 30
10.0003
 10
43.3013
 20
-25
 30
10
  0
SPLINE
  5
A1B
330
A02
100
AcDbEntity
  8
Shape
100
AcDbSpline
210
0
220
0
230
1
 70
8
 71
3
 72
23
 73
19
 74
0
 40
0
 40
0
 40
0
 40
0
 40
0.122119
 40
0.122119
 40
0.122119
 40
0.244238
 40
0.244238
 40
0.244238
 40
0.500009
 40
0.500009
 40
0.500009
 40
0.755796
 40
0.755796
 40
0.755796
 40
0.877898
 40
0.877898
 40
0.877898
 40
1
 40
1
 40
1
 40
1
 10
50
 20
-3.10862e-15
 30
10
 10
50
 20
-0.38923
 30
10.0003
 10
49.9953
 20
-0.760507
 30
9.90825
 10
49.9883
 20
-1.08067
 30
9.75436
 10
49.9814
 20
-1.40155
 30
9.60096
 10
49.9725
 20
-1.67086
 30
9.38585
 10
49.9648
 20
-1.87528
 30
9.15328
 10
49.9484
 20
-2.30331
 30
8.66417
 10
49.9372
 20
-2.49874
 30
8.07797
 10
49.9375
 20
-2.5
 30
7.5
 10
49.9372
 20
-2.49873
 30
6.92201
 10
49.9484
 20
-2.30331
 30
6.33584
 10
49.9648
 20
-1.87528
 30
5.84672
 10
49.9725
 20
-1.6709
 30
5.61419
 10
49.9814
 20
-1.40157
 30
5.39904
 10
49.9883
 20
-1.08065
 30
5.24563
 10
49.9953
 20
-0.76045
 30
5.09172
 10
50
 20
-0.389135
 30
4.99973
 10
50
 20
0
 30
5
  0
SPLINE
  5
A1C
330
A02
100
AcDbEntity
  8
Shape
100
AcDbSpline
210
0
220
0
230
1
 70
8
 71
3
 72
23
 73
19
 74
0
 40
0
 40
0
 40
0
 40
0
 40
0.122129
 40
0.122129
 40
0.122129
 40
0.244259
 40
0.244259
 40
0.244259
 40
0.500052
 40
0.500052
 40
0.500052
 40
0.755846
 40
0.755846
 40
0.755846
 40
0.877923
 40
0.877923
 40
0.877923
 40
1
 40
1
 40
1
 40
1
 10
50
 20
5.9952e-15
 30
5
 10
50
 20
0.38923
 30
4.99973
 10
49.9953
 20
0.760507
 30
5.09175
 10
49.9883
 20
1.08067
 30
5.24564
 10
49.9814
 20
1.40155
 30
5.39904
 10
49.9725
 20
1.67086
 30
5.61415
 10
49.9648
 20
1.87528
 30
5.84672
 10
49.9484
 20
2.30331
 30
6.33584
 10
49.9372
 20
2.49873
 30
6.92201
 10
49.9375
 20
2.5
 30
7.5
 10
49.9372
 20
2.49873
 30
8.07799
 10
49.9484
 20
2.30331
 30
8.66416
 10
49.9648
 20
1.87528
 30
9.15328
 10
49.9725
 20
1.67095
 30
9.38576
 10
49.9814
 20
1.40157
 30
9.60097
 10
49.9883
 20
1.08062
 30
9.75439
 10
49.9953
 20
0.760377
 30
9.90831
 10
50
 20
0.389046
 30
10.0003
 10
50
 20
3.10862e-15
 30
10
  0
LINE
  5
A1D
330
A02
100
AcDbEntity
  8
Shape
100
AcDbLine
 10
45
 20
0
 30
10
 11
50
 21
0
 31
10
  0
SPLINE
  5
A1E
330
A02
100
AcDbEntity
  8
Shape
100
AcDbSpline
210
0
220
0
230
1
 70
8
 71
3
 72
23
 73
19
 74
0
 40
0
 40
0
 40
0
 40
0
 40
0.0848144
 40
0.0848144
 40
0.0848144
 40
0.266991
 40
0.266991
 40
0.266991
 40
0.500082
 40
0.500082
 40
0.500082
 40
0.732916
 40
0.732916
 40
0.732916
 40
0.85987
 40
0.85987
 40
0.85987
 40
1
 40
1
 40
1
 40
1
 10
45
 20
1.22125e-15
 30
5
 10
45.0002
 20
0.266288
 30
4.9997
 10
44.9852
 20
0.531217
 30
5.04363
 10
44.9601
 20
0.772542
 30
5.12236
 10
44.9058
 20
1.29281
 30
5.29222
 10
44.8112
 20
1.69494
 30
5.60735
 10
44.736
 20
1.97239
 30
5.96388
 10
44.6373
 20
2.32889
 30
6.42345
 10
44.5697
 20
2.49933
 30
6.96291
 10
44.5711
 20
2.5
 30
7.5
 10
44.5697
 20
2.49933
 30
8.03649
 10
44.6371
 20
2.32926
 30
8.57535
 10
44.7357
 20
1.97358
 30
9.0346
 10
44.7885
 20
1.7794
 30
9.28415
 10
44.8494
 20
1.52791
 30
9.51053
 10
44.9009
 20
1.21549
 30
9.68463
 10
44.958
 20
0.87156
 30
9.87776
 10
45.0007
 20
0.44229
 30
10.0014
 10
45
 20
6.66134e-16
 30
10
  0
SPLINE
  5
A1F
330
A02
100
AcDbEntity
  8
Shape
100
AcDbSpline
210
0
220
0
230
1
 70
8
 71
3
 72
23
 73
19
 74
0
 40
0
 40
0
 40
0
 40
0
 40
0.0848143
 40
0.0848143
 40
0.0848143
 40
0.266991
 40
0.266991
 40
0.266991
 40
0.500082
 40
0.500082
 40
0.500082
 40
0.732915
 40
0.732915
 40
0.732915
 40
0.85987
 40
0.85987
 40
0.85987
 40
1
 40
1
 40
1
 40
1
 10
45
 20
-4.44089e-16
 30
10
 10
45.0002
 20
-0.266288
 30
10.0003
 10
44.9852
 20
-0.531217
 30
9.95637
 10
44.9601
 20
-0.772542
 30
9.87764
 10
44.9058
 20
-1.29281
 30
9.70778
 10
44.8112
 20
-1.69494
 30
9.39265
 10
44.736
 20
-1.97239
 30
9.03612
 10
44.6373
 20
-2.32889
 30
8.57655
 10
44.5697
 20
-2.49933
 30
8.03709
 10
44.5711
 20
-2.5
 30
7.5
 10
44.5697
 20
-2.49933
 30
6.96351
 10
44.6371
 20
-2.32926
 30
6.42465
 10
44.7357
 20
-1.97358
 30
5.9654
 10
44.7885
 20
-1.7794
 30
5.71585
 10
44.8494
 20
-1.52791
 30
5.48947
 10
44.9009
 20
-1.21549
 30
5.31537
 10
44.958
 20
-0.87156
 30
5.12224
 10
45.0007
 20
-0.44229
 30
4.99859
 10
45
 20
4.44089e-16
 30
5
  0
LINE
  5
A20
330
A02
100
AcDbEntity
  8
Shape
100
AcDbLine
 10
45
 20
0
 30
10
 11
50
 21
0
 31
10
  0
CIRCLE
  5
A21
330
A02
100
AcDbEntity
  8
Shape
100
AcDbCircle
 10
0
 20
0
 40
50
  0
CIRCLE
  5
A22
330
A02
100
AcDbEntity
  8
Shape
100
AcDbCircle
 10
-6.88864e-15
 20
-37.5
 40
7.5
  0
CIRCLE
  5
A23
330
A02
100
AcDbEntity
  8
Shape
100
AcDbCircle
 10
-18.75
 20
-32.476
 40
7.5
  0
CIRCLE
  5
A24
330
A02
100
AcDbEntity
  8
Shape
100
AcDbCircle
 10
-32.476
 20
-18.75
 40
7.5
  0
CIRCLE
  5
A25
330
A02
100
AcDbEntity
  8
Shape
100
AcDbCircle
 10
-16.25
 20
-16.25
 40
7.5
  0
CIRCLE
  5
A26
330
A02
100
AcDbEntity
  8
Shape
100
AcDbCircle
 10
18.75
 20
-32.476
 40
7.5
  0
CIRCLE
  5
A27
330
A02
100
AcDbEntity
  8
Shape
100
AcDbCircle
 10
-3.2147e-15
 20
-17.5
 40
7.5
  0
CIRCLE
  5
A28
330
A02
100
AcDbEntity
  8
Shape
100
AcDbCircle
 10
16.25
 20
-16.25
 40
7.5
  0
CIRCLE
  5
A29
330
A02
100
AcDbEntity
  8
Shape
100
AcDbCircle
 10
32.476
 20
-18.75
 40
7.5
  0
CIRCLE
  5
A2A
330
A02
100
AcDbEntity
  8
Shape
100
AcDbCircle
 10
-37.5
 20
4.59243e-15
 40
7.5
  0
CIRCLE
  5
A2B
330
A02
100
AcDbEntity
  8
Shape
100
AcDbCircle
 10
-32.476
 20
18.75
 40
7.5
  0
CIRCLE
  5
A2C
330
A02
100
AcDbEntity
  8
Shape
100
AcDbCircle
 10
-17.5
 20
2.14313e-15
 40
7.5
  0
CIRCLE
  5
A2D
330
A02
100
AcDbEntity
  8
Shape
100
AcDbCircle
 10
-16.25
 20
16.25
 40
7.5
  0
CIRCLE
  5
A2E
330
A02
100
AcDbEntity
  8
Shape
100
AcDbCircle
 10
-18.75
 20
32.476
 40
7.5
  0
CIRCLE
  5
A2F
330
A02
100
AcDbEntity
  8
Shape
100
AcDbCircle
 10
0
 20
0
 40
5
  0
CIRCLE
  5
A30
330
A02
100
AcDbEntity
  8
Shape
100
AcDbCircle
 10
17.5
 20
0
 40
7.5
  0
CIRCLE
  5
A31
330
A02
100
AcDbEntity
  8
Shape
100
AcDbCircle
 10
1.07157e-15
 20
17.5
 40
7.5
  0
CIRCLE
  5
A32
330
A02
100
AcDbEntity
  8
Shape
100
AcDbCircle
 10
16.25
 20
16.25
 40
7.5
  0
CIRCLE
  5
A33
330
A02
100
AcDbEntity
  8
Shape
100
AcDbCircle
 10
37.5
 20
0
 40
7.5
  0
CIRCLE
  5
A34
330
A02
100
AcDbEntity
  8
Shape
100
AcDbCircle
 10
32.476
 20
18.75
 40
7.5
  0
CIRCLE
  5
A35
330
A02
100
AcDbEntity
  8
Shape
100
AcDbCircle
 10
18.75
 20
32.476
 40
7.5
  0
CIRCLE
  5
A36
330
A02
100
AcDbEntity
  8
Shape
100
AcDbCircle
 10
2.29621e-15
 20
37.5
 40
7.5
  0
CIRCLE
  5
A37
330
A02
100
AcDbEntity
  8
Shape
100
AcDbCircle
 10
0
 20
0
 40
50
  0
CIRCLE
  5
A38
330
A02
100
AcDbEntity
  8
Shape
100
AcDbCircle
 10
-6.88864e-15
 20
-37.5
 40
7.5
  0
CIRCLE
  5
A39
330
A02
100
AcDbEntity
  8
Shape
100
AcDbCircle
 10
-18.75
 20
-32.476
 40
7.5
  0
CIRCLE
  5
A3A
330
A02
100
AcDbEntity
  8
Shape
100
AcDbCircle
 10
-32.476
 20
-18.75
 40
7.5
  0
CIRCLE
  5
A3B
330
A02
100
AcDbEntity
  8
Shape
100
AcDbCircle
 10
-16.25
 20
-16.25
 40
7.5
  0
CIRCLE
  5
A3C
330
A02
100
AcDbEntity
  8
Shape
100
AcDbCircle
 10
18.75
 20
-32.476
 40
7.5
  0
CIRCLE
  5
A3D
330
A02
100
AcDbEntity
  8
Shape
100
AcDbCircle
 10
-3.2147e-15
 20
-17.5
 40
7.5
  0
CIRCLE
  5
A3E
330
A02
100
AcDbEntity
  8
Shape
100
AcDbCircle
 10
16.25
 20
-16.25
 40
7.5
  0
CIRCLE
  5
A3F
330
A02
100
AcDbEntity
  8
Shape
100
AcDbCircle
 10
32.476
 20
-18.75
 40
7.5
  0
CIRCLE
  5
A40
330
A02
100
AcDbEntity
  8
Shape
100
AcDbCircle
 10
-37.5
 20
4.59243e-15
 40
7.5
  0
CIRCLE
  5
A41
330
A02
100
AcDbEntity
  8
Shape
100
AcDbCircle
 10
-32.476
 20
18.75
 40
7.5
  0
CIRCLE
  5
A42
330
A02
100
AcDbEntity
  8
Shape
100
AcDbCircle
 10
-17.5
 20
2.14313e-15
 40
7.5
  0
CIRCLE
  5
A43
330
A02
100
AcDbEntity
  8
Shape
100
AcDbCircle
 10
-16.25
 20
16.25
 40
7.5
  0
CIRCLE
  5
A44
330
A02
100
AcDbEntity
  8
Shape
100
AcDbCircle
 10
-18.75
 20
32.476
 40
7.5
  0
CIRCLE
  5
A45
330
A02
100
AcDbEntity
  8
Shape
100
AcDbCircle
 10
0
 20
0
 40
5
  0
CIRCLE
  5
A46
330
A02
100
AcDbEntity
  8
Shape
100
AcDbCircle
 10
17.5
 20
0
 40
7.5
  0
CIRCLE
  5
A47
330
A02
100
AcDbEntity
  8
Shape
100
AcDbCircle
 10
1.07157e-15
 20
17.5
 40
7.5
  0
CIRCLE
  5
A48
330
A02
100
AcDbEntity
  8
Shape
100
AcDbCircle
 10
16.25
 20
16.25
 40
7.5
  0
CIRCLE
  5
A49
330
A02
100
AcDbEntity
  8
Shape
100
AcDbCircle
 10
37.5
 20
0
 40
7.5
  0
CIRCLE
  5
A4A
330
A02
100
AcDbEntity
  8
Shape
100
AcDbCircle
 10
32.476
 20
18.75
 40
7.5
  0
CIRCLE
  5
A4B
330
A02
100
AcDbEntity
  8
Shape
100
AcDbCircle
 10
18.75
 20
32.476
 40
7.5
  0
CIRCLE
  5
A4C
330
A02
100
AcDbEntity
  8
Shape
100
AcDbCircle
 10
2.29621e-15
 20
37.5
 40
7.5
  0
SPLINE
  5
A4D
330
A02
100
AcDbEntity
  8
Shape
100
AcDbSpline
210
0
220
0
230
1
 70
9
 71
3
 72
41
 73
37
 74
0
 40
0
 40
0
 40
0
 40
0
 40
0.0685441
 40
0.0685441
 40
0.0685441
 40
0.137088
 40
0.137088
 40
0.137088
 40
0.28065
 40
0.28065
 40
0.28065
 40
0.366606
 40
0.366606
 40
0.366606
 40
0.452562
 40
0.452562
 40
0.452562
 40
0.525492
 40
0.525492
 40
0.525492
 40
0.598422
 40
0.598422
 40
0.598422
 40
0.692583
 40
0.692583
 40
0.692583
 40
0.796163
 40
0.796163
 40
0.796163
 40
0.900454
 40
0.900454
 40
0.900454
 40
0.950227
 40
0.950227
 40
0.950227
 40
1
 40
1
 40
1
 40
1
 10
43.3013
 20
25
 30
10
 10
43.4959
 20
24.6629
 30
10.0003
 10
43.6774
 20
24.339
 30
9.90825
 10
43.8315
 20
24.0583
 30
9.75436
 10
43.9859
 20
23.7769
 30
9.60096
 10
44.1129
 20
23.5392
 30
9.38585
 10
44.2084
 20
23.3584
 30
9.15328
 10
44.4083
 20
22.9795
 30
8.66417
 10
44.4963
 20
22.8046
 30
8.07797
 10
44.4971
 20
22.8037
 30
7.5
 10
44.4975
 20
22.8031
 30
7.15012
 10
44.464
 20
22.8682
 30
6.80884
 10
44.3966
 20
22.9988
 30
6.47615
 10
44.3284
 20
23.1303
 30
6.14706
 10
44.2243
 20
23.3303
 30
5.83396
 10
44.0761
 20
23.6072
 30
5.57372
 10
43.9506
 20
23.8415
 30
5.35231
 10
43.7827
 20
24.1502
 30
5.16265
 10
43.5915
 20
24.4905
 30
5.06973
 10
43.4008
 20
24.8302
 30
4.97458
 10
43.1878
 20
25.1988
 30
4.97653
 10
42.9871
 20
25.5365
 30
5.07854
 10
42.7278
 20
25.9731
 30
5.20775
 10
42.4837
 20
26.3677
 30
5.50206
 10
42.306
 20
26.6497
 30
5.90644
 10
42.1092
 20
26.9617
 30
6.34957
 10
41.9961
 20
27.1351
 30
6.92355
 10
41.9971
 20
27.1338
 30
7.5
 10
41.9975
 20
27.1326
 30
8.07799
 10
42.1049
 20
26.9689
 30
8.66416
 10
42.3332
 20
26.6064
 30
9.15328
 10
42.442
 20
26.4333
 30
9.38576
 10
42.5844
 20
26.2045
 30
9.60097
 10
42.7508
 20
25.93
 30
9.75439
 10
42.917
 20
25.6561
 30
9.90831
 10
43.1068
 20
25.3369
 30
10.0003
 10
43.3013
 20
25
 30
10
  0
LINE
  5
A4E
330
A02
100
AcDbEntity
  8
Shape
100
AcDbLine
 10
38.9711
 20
22.5
 30
10
 11
43.3013
 21
25
 31
10
  0
SPLINE
  5
A4F
330
A02
100
AcDbEntity
  8
Shape
100
AcDbSpline
210
0
220
0
230
1
 70
9
 71
3
 72
41
 73
37
 74
0
 40
0
 40
0
 40
0
 40
0
 40
0.0424095
 40
0.0424095
 40
0.0424095
 40
0.133503
 40
0.133503
 40
0.133503
 40
0.249311
 40
0.249311
 40
0.249311
 40
0.365427
 40
0.365427
 40
0.365427
 40
0.429948
 40
0.429948
 40
0.429948
 40
0.47072
 40
0.47072
 40
0.47072
 40
0.529694
 40
0.529694
 40
0.529694
 40
0.605753
 40
0.605753
 40
0.605753
 40
0.750256
 40
0.750256
 40
0.750256
 40
0.866572
 40
0.866572
 40
0.866572
 40
0.929995
 40
0.929995
 40
0.929995
 40
1
 40
1
 40
1
 40
1
 10
38.9711
 20
22.5
 30
10
 10
39.1044
 20
22.2695
 30
10.0003
 10
39.224
 20
22.0326
 30
9.95637
 10
39.3229
 20
21.811
 30
9.87764
 10
39.5359
 20
21.3333
 30
9.70778
 10
39.6551
 20
20.9377
 30
9.39265
 10
39.7287
 20
20.6599
 30
9.03612
 10
39.8209
 20
20.3041
 30
8.57949
 10
39.8478
 20
20.1227
 30
8.04396
 10
39.8497
 20
20.1205
 30
7.5103
 10
39.8486
 20
20.1181
 30
6.9752
 10
39.8225
 20
20.2958
 30
6.43738
 10
39.7316
 20
20.649
 30
5.97787
 10
39.6801
 20
20.8451
 30
5.72331
 10
39.6065
 20
21.0966
 30
5.49235
 10
39.493
 20
21.3978
 30
5.31537
 10
39.4215
 20
21.5897
 30
5.20164
 10
39.3327
 20
21.7964
 30
5.11658
 10
39.2266
 20
22.0178
 30
5.06021
 10
39.0735
 20
22.3357
 30
4.98016
 10
38.88
 20
22.6708
 30
4.98016
 10
38.6813
 20
22.9624
 30
5.06021
 10
38.4245
 20
23.3407
 30
5.16211
 10
38.1702
 20
23.6404
 30
5.38275
 10
37.9655
 20
23.8603
 30
5.64939
 10
37.5722
 20
24.2774
 30
6.1609
 10
37.3477
 20
24.4476
 30
6.83485
 10
37.3497
 20
24.4506
 30
7.5
 10
37.3489
 20
24.4494
 30
8.03649
 10
37.4922
 20
24.3358
 30
8.57535
 10
37.7554
 20
24.077
 30
9.0346
 10
37.8983
 20
23.9352
 30
9.28415
 10
38.0768
 20
23.7479
 30
9.51053
 10
38.2775
 20
23.5031
 30
9.68463
 10
38.499
 20
23.2338
 30
9.87776
 10
38.7506
 20
22.8834
 30
10.0014
 10
38.9711
 20
22.5
 30
10
  0
LINE
  5
A50
330
A02
100
AcDbEntity
  8
Shape
100
AcDbLine
 10
38.9711
 20
22.5
 30
10
 11
43.3013
 21
25
 31
10
  0
SPLINE
  5
A51
330
A02
100
AcDbEntity
  8
Shape
100
AcDbSpline
210
0
220
0
230
1
 70
9
 71
3
 72
41
 73
37
 74
0
 40
0
 40
0
 40
0
 40
0
 40
0.0685441
 40
0.0685441
 40
0.0685441
 40
0.137088
 40
0.137088
 40
0.137088
 40
0.28065
 40
0.28065
 40
0.28065
 40
0.366606
 40
0.366606
 40
0.366606
 40
0.452562
 40
0.452562
 40
0.452562
 40
0.525492
 40
0.525492
 40
0.525492
 40
0.598422
 40
0.598422
 40
0.598422
 40
0.692583
 40
0.692583
 40
0.692583
 40
0.796163
 40
0.796163
 40
0.796163
 40
0.900454
 40
0.900454
 40
0.900454
 40
0.950227
 40
0.950227
 40
0.950227
 40
1
 40
1
 40
1
 40
1
 10
25
 20
43.3013
 30
10
 10
25.3371
 20
43.1067
 30
10.0003
 10
25.6563
 20
42.9169
 30
9.90825
 10
25.9301
 20
42.7508
 30
9.75436
 10
26.2045
 20
42.5844
 30
9.60096
 10
26.4332
 20
42.442
 30
9.38585
 10
26.6064
 20
42.3332
 30
9.15328
 10
26.9689
 20
42.1049
 30
8.66417
 10
27.1326
 20
41.9975
 30
8.07797
 10
27.1338
 20
41.9971
 30
7.5
 10
27.1344
 20
41.9968
 30
7.15012
 10
27.0729
 20
42.0364
 30
6.80884
 10
26.9491
 20
42.1158
 30
6.47615
 10
26.8244
 20
42.1956
 30
6.14706
 10
26.6342
 20
42.3168
 30
5.83396
 10
26.3674
 20
42.4825
 30
5.57372
 10
26.1416
 20
42.6227
 30
5.35231
 10
25.8418
 20
42.8061
 30
5.16265
 10
25.506
 20
43.0051
 30
5.06973
 10
25.1711
 20
43.2039
 30
4.97458
 10
24.8023
 20
43.4167
 30
4.97653
 10
24.4596
 20
43.6088
 30
5.07854
 10
24.0168
 20
43.8573
 30
5.20775
 10
23.6082
 20
44.0769
 30
5.50206
 10
23.3132
 20
44.2323
 30
5.90644
 10
22.9867
 20
44.4042
 30
6.34957
 10
22.8021
 20
44.4977
 30
6.92355
 10
22.8037
 20
44.4971
 30
7.5
 10
22.8046
 20
44.4963
 30
8.07799
 10
22.9795
 20
44.4083
 30
8.66416
 10
23.3584
 20
44.2084
 30
9.15328
 10
23.5392
 20
44.1129
 30
9.38576
 10
23.7769
 20
43.9859
 30
9.60097
 10
24.0583
 20
43.8315
 30
9.75439
 10
24.3391
 20
43.6774
 30
9.90831
 10
24.6631
 20
43.4958
 30
10.0003
 10
25
 20
43.3013
 30
10
  0
LINE
  5
A52
330
A02
100
AcDbEntity
  8
Shape
100
AcDbLine
 10
22.5
 20
38.9711
 30
10
 11
25
 21
43.3013
 31
10
  0
SPLINE
  5
A53
330
A02
100
AcDbEntity
  8
Shape
100
AcDbSpline
210
0
220
0
230
1
 70
9
 71
3
 72
41
 73
37
 74
0
 40
0
 40
0
 40
0
 40
0
 40
0.0424095
 40
0.0424095
 40
0.0424095
 40
0.133503
 40
0.133503
 40
0.133503
 40
0.249311
 40
0.249311
 40
0.249311
 40
0.365426
 40
0.365426
 40
0.365426
 40
0.429948
 40
0.429948
 40
0.429948
 40
0.47072
 40
0.47072
 40
0.47072
 40
0.529694
 40
0.529694
 40
0.529694
 40
0.605753
 40
0.605753
 40
0.605753
 40
0.750256
 40
0.750256
 40
0.750256
 40
0.866572
 40
0.866572
 40
0.866572
 40
0.929995
 40
0.929995
 40
0.929995
 40
1
 40
1
 40
1
 40
1
 10
22.5
 20
38.9711
 30
10
 10
22.7307
 20
38.8381
 30
10.0003
 10
22.9527
 20
38.6928
 30
9.95637
 10
23.1491
 20
38.5503
 30
9.87764
 10
23.5725
 20
38.2431
 30
9.70778
 10
23.8735
 20
37.9602
 30
9.39265
 10
24.0761
 20
37.7563
 30
9.03612
 10
24.3339
 20
37.4943
 30
8.57949
 10
24.4478
 20
37.3507
 30
8.04396
 10
24.4506
 20
37.3497
 30
7.5103
 10
24.4509
 20
37.3471
 30
6.9752
 10
24.3393
 20
37.488
 30
6.43738
 10
24.084
 20
37.7483
 30
5.97787
 10
23.9414
 20
37.8924
 30
5.72331
 10
23.7519
 20
38.0734
 30
5.49235
 10
23.5031
 20
38.2775
 30
5.31537
 10
23.3452
 20
38.408
 30
5.20164
 10
23.165
 20
38.5426
 30
5.11658
 10
22.9624
 20
38.6813
 30
5.06021
 10
22.6708
 20
38.88
 30
4.98016
 10
22.3357
 20
39.0735
 30
4.98016
 10
22.0178
 20
39.2266
 30
5.06021
 10
21.6063
 20
39.4258
 30
5.16211
 10
21.2362
 20
39.5583
 30
5.38275
 10
20.949
 20
39.6463
 30
5.64939
 10
20.3998
 20
39.8109
 30
6.1609
 10
20.1203
 20
39.8461
 30
6.83485
 10
20.1205
 20
39.8497
 30
7.5
 10
20.1204
 20
39.8482
 30
8.03649
 10
20.3014
 20
39.8215
 30
8.57535
 10
20.6587
 20
39.729
 30
9.0346
 10
20.8532
 20
39.6777
 30
9.28415
 10
21.1015
 20
39.6047
 30
9.51053
 10
21.3978
 20
39.493
 30
9.68463
 10
21.7242
 20
39.3706
 30
9.87776
 10
22.1173
 20
39.1929
 30
10.0014
 10
22.5
 20
38.9711
 30
10
  0
LINE
  5
A54
330
A02
100
AcDbEntity
  8
Shape
100
AcDbLine
 10
22.5
 20
38.9711
 30
10
 11
25
 21
43.3013
 31
10
  0
SPLINE
  5
A55
330
A02
100
AcDbEntity
  8
Shape
100
AcDbSpline
210
0
220
0
230
1
 70
9
 71
3
 72
41
 73
37
 74
0
 40
0
 40
0
 40
0
 40
0
 40
0.0685441
 40
0.0685441
 40
0.0685441
 40
0.137088
 40
0.137088
 40
0.137088
 40
0.28065
 40
0.28065
 40
0.28065
 40
0.366606
 40
0.366606
 40
0.366606
 40
0.452562
 40
0.452562
 40
0.452562
 40
0.525492
 40
0.525492
 40
0.525492
 40
0.598422
 40
0.598422
 40
0.598422
 40
0.692583
 40
0.692583
 40
0.692583
 40
0.796163
 40
0.796163
 40
0.796163
 40
0.900454
 40
0.900454
 40
0.900454
 40
0.950227
 40
0.950227
 40
0.950227
 40
1
 40
1
 40
1
 40
1
 10
2.66454e-15
 20
50
 30
10
 10
0.38923
 20
50
 30
10.0003
 10
0.760507
 20
49.9953
 30
9.90825
 10
1.08067
 20
49.9883
 30
9.75436
 10
1.40155
 20
49.9814
 30
9.60096
 10
1.67086
 20
49.9725
 30
9.38585
 10
1.87528
 20
49.9648
 30
9.15328
 10
2.30331
 20
49.9484
 30
8.66417
 10
2.49874
 20
49.9372
 30
8.07797
 10
2.5
 20
49.9375
 30
7.5
 10
2.50069
 20
49.9376
 30
7.15012
 10
2.4276
 20
49.9411
 30
6.80884
 10
2.28073
 20
49.948
 30
6.47615
 10
2.13276
 20
49.9547
 30
6.14706
 10
1.9075
 20
49.9645
 30
5.83396
 10
1.59356
 20
49.9746
 30
5.57372
 10
1.32796
 20
49.9831
 30
5.35231
 10
0.976614
 20
49.992
 30
5.16265
 10
0.586317
 20
49.9966
 30
5.06973
 10
0.196805
 20
50.0012
 30
4.97458
 10
-0.228907
 20
50.0011
 30
4.97653
 10
-0.621725
 20
49.9961
 30
5.07854
 10
-1.12945
 20
49.9899
 30
5.20775
 10
-1.59319
 20
49.9758
 30
5.50206
 10
-1.92628
 20
49.9629
 30
5.90644
 10
-2.29497
 20
49.9485
 30
6.34957
 10
-2.50161
 20
49.9372
 30
6.92355
 10
-2.5
 20
49.9375
 30
7.5
 10
-2.49873
 20
49.9372
 30
8.07799
 10
-2.30331
 20
49.9484
 30
8.66416
 10
-1.87528
 20
49.9648
 30
9.15328
 10
-1.67095
 20
49.9725
 30
9.38576
 10
-1.40157
 20
49.9814
 30
9.60097
 10
-1.08062
 20
49.9883
 30
9.75439
 10
-0.760377
 20
49.9953
 30
9.90831
 10
-0.389046
 20
50
 30
10.0003
 10
2.66454e-15
 20
50
 30
10
  0
LINE
  5
A56
330
A02
100
AcDbEntity
  8
Shape
100
AcDbLine
 10
1.83697e-15
 20
45
 30
10
 11
1.83697e-15
 21
50
 31
10
  0
SPLINE
  5
A57
330
A02
100
AcDbEntity
  8
Shape
100
AcDbSpline
210
0
220
0
230
1
 70
9
 71
3
 72
41
 73
37
 74
0
 40
0
 40
0
 40
0
 40
0
 40
0.0424095
 40
0.0424095
 40
0.0424095
 40
0.133503
 40
0.133503
 40
0.133503
 40
0.249311
 40
0.249311
 40
0.249311
 40
0.365427
 40
0.365427
 40
0.365427
 40
0.429948
 40
0.429948
 40
0.429948
 40
0.47072
 40
0.47072
 40
0.47072
 40
0.529694
 40
0.529694
 40
0.529694
 40
0.605753
 40
0.605753
 40
0.605753
 40
0.750256
 40
0.750256
 40
0.750256
 40
0.866572
 40
0.866572
 40
0.866572
 40
0.929995
 40
0.929995
 40
0.929995
 40
1
 40
1
 40
1
 40
1
 10
2.22045e-15
 20
45
 30
10
 10
0.266288
 20
45.0002
 30
10.0003
 10
0.531217
 20
44.9852
 30
9.95637
 10
0.772542
 20
44.9601
 30
9.87764
 10
1.29281
 20
44.9058
 30
9.70778
 10
1.69494
 20
44.8112
 30
9.39265
 10
1.97239
 20
44.736
 30
9.03612
 10
2.32662
 20
44.6379
 30
8.57949
 10
2.49712
 20
44.5706
 30
8.04396
 10
2.49998
 20
44.5711
 30
7.5103
 10
2.50153
 20
44.569
 30
6.9752
 10
2.33451
 20
44.6352
 30
6.43738
 10
1.98321
 20
44.733
 30
5.97787
 10
1.78768
 20
44.7865
 30
5.72331
 10
1.53308
 20
44.8485
 30
5.49235
 10
1.21549
 20
44.9009
 30
5.31537
 10
1.01354
 20
44.9349
 30
5.20164
 10
0.79016
 20
44.9613
 30
5.11658
 10
0.545358
 20
44.9801
 30
5.06021
 10
0.193458
 20
45.0065
 30
4.98016
 10
-0.193458
 20
45.0065
 30
4.98016
 10
-0.545358
 20
44.9801
 30
5.06021
 10
-1.00136
 20
44.9469
 30
5.16211
 10
-1.38812
 20
44.8766
 30
5.38275
 10
-1.68085
 20
44.8092
 30
5.64939
 10
-2.23874
 20
44.6772
 30
6.1609
 10
-2.49835
 20
44.5679
 30
6.83485
 10
-2.5
 20
44.5711
 30
7.5
 10
-2.49933
 20
44.5697
 30
8.03649
 10
-2.32926
 20
44.6371
 30
8.57535
 10
-1.97358
 20
44.7357
 30
9.0346
 10
-1.7794
 20
44.7885
 30
9.28415
 10
-1.52791
 20
44.8494
 30
9.51053
 10
-1.21549
 20
44.9009
 30
9.68463
 10
-0.87156
 20
44.958
 30
9.87776
 10
-0.44229
 20
45.0007
 30
10.0014
 10
2.22045e-15
 20
45
 30
10
  0
LINE
  5
A58
330
A02
100
AcDbEntity
  8
Shape
100
AcDbLine
 10
1.83697e-15
 20
45
 30
10
 11
1.83697e-15
 21
50
 31
10
  0
SPLINE
  5
A59
330
A02
100
AcDbEntity
  8
Shape
100
AcDbSpline
210
0
220
0
230
1
 70
9
 71
3
 72
41
 73
37
 74
0
 40
0
 40
0
 40
0
 40
0
 40
0.0685441
 40
0.0685441
 40
0.0685441
 40
0.137088
 40
0.137088
 40
0.137088
 40
0.28065
 40
0.28065
 40
0.28065
 40
0.366606
 40
0.366606
 40
0.366606
 40
0.452562
 40
0.452562
 40
0.452562
 40
0.525492
 40
0.525492
 40
0.525492
 40
0.598422
 40
0.598422
 40
0.598422
 40
0.692583
 40
0.692583
 40
0.692583
 40
0.796163
 40
0.796163
 40
0.796163
 40
0.900454
 40
0.900454
 40
0.900454
 40
0.950227
 40
0.950227
 40
0.950227
 40
1
 40
1
 40
1
 40
1
 10
-25
 20
43.3013
 30
10
 10
-24.6629
 20
43.4959
 30
10.0003
 10
-24.339
 20
43.6774
 30
9.90825
 10
-24.0583
 20
43.8315
 30
9.75436
 10
-23.7769
 20
43.9859
 30
9.60096
 10
-23.5392
 20
44.1129
 30
9.38585
 10
-23.3584
 20
44.2084
 30
9.15328
 10
-22.9795
 20
44.4083
 30
8.66417
 10
-22.8046
 20
44.4963
 30
8.07797
 10
-22.8037
 20
44.4971
 30
7.5
 10
-22.8031
 20
44.4975
 30
7.15012
 10
-22.8682
 20
44.464
 30
6.80884
 10
-22.9988
 20
44.3966
 30
6.47615
 10
-23.1303
 20
44.3284
 30
6.14706
 10
-23.3303
 20
44.2243
 30
5.83396
 10
-23.6072
 20
44.0761
 30
5.57372
 10
-23.8415
 20
43.9506
 30
5.35231
 10
-24.1502
 20
43.7827
 30
5.16265
 10
-24.4905
 20
43.5915
 30
5.06973
 10
-24.8302
 20
43.4008
 30
4.97458
 10
-25.1988
 20
43.1878
 30
4.97653
 10
-25.5365
 20
42.9871
 30
5.07854
 10
-25.9731
 20
42.7278
 30
5.20775
 10
-26.3677
 20
42.4837
 30
5.50206
 10
-26.6497
 20
42.306
 30
5.90644
 10
-26.9617
 20
42.1092
 30
6.34957
 10
-27.1351
 20
41.9961
 30
6.92355
 10
-27.1338
 20
41.9971
 30
7.5
 10
-27.1326
 20
41.9975
 30
8.07799
 10
-26.9689
 20
42.1049
 30
8.66416
 10
-26.6064
 20
42.3332
 30
9.15328
 10
-26.4333
 20
42.442
 30
9.38576
 10
-26.2045
 20
42.5844
 30
9.60097
 10
-25.93
 20
42.7508
 30
9.75439
 10
-25.6561
 20
42.917
 30
9.90831
 10
-25.3369
 20
43.1068
 30
10.0003
 10
-25
 20
43.3013
 30
10
  0
LINE
  5
A5A
330
A02
100
AcDbEntity
  8
Shape
100
AcDbLine
 10
-22.5
 20
38.9711
 30
10
 11
-25
 21
43.3013
 31
10
  0
SPLINE
  5
A5B
330
A02
100
AcDbEntity
  8
Shape
100
AcDbSpline
210
0
220
0
230
1
 70
9
 71
3
 72
41
 73
37
 74
0
 40
0
 40
0
 40
0
 40
0
 40
0.0424095
 40
0.0424095
 40
0.0424095
 40
0.133503
 40
0.133503
 40
0.133503
 40
0.249311
 40
0.249311
 40
0.249311
 40
0.365427
 40
0.365427
 40
0.365427
 40
0.429948
 40
0.429948
 40
0.429948
 40
0.47072
 40
0.47072
 40
0.47072
 40
0.529694
 40
0.529694
 40
0.529694
 40
0.605753
 40
0.605753
 40
0.605753
 40
0.750256
 40
0.750256
 40
0.750256
 40
0.866572
 40
0.866572
 40
0.866572
 40
0.929995
 40
0.929995
 40
0.929995
 40
1
 40
1
 40
1
 40
1
 10
-22.5
 20
38.9711
 30
10
 10
-22.2695
 20
39.1044
 30
10.0003
 10
-22.0326
 20
39.224
 30
9.95637
 10
-21.811
 20
39.3229
 30
9.87764
 10
-21.3333
 20
39.5359
 30
9.70778
 10
-20.9377
 20
39.6551
 30
9.39265
 10
-20.6599
 20
39.7287
 30
9.03612
 10
-20.3041
 20
39.8209
 30
8.57949
 10
-20.1227
 20
39.8478
 30
8.04396
 10
-20.1205
 20
39.8497
 30
7.5103
 10
-20.1181
 20
39.8486
 30
6.9752
 10
-20.2958
 20
39.8225
 30
6.43738
 10
-20.649
 20
39.7316
 30
5.97787
 10
-20.8451
 20
39.6801
 30
5.72331
 10
-21.0966
 20
39.6065
 30
5.49235
 10
-21.3978
 20
39.493
 30
5.31537
 10
-21.5897
 20
39.4215
 30
5.20164
 10
-21.7964
 20
39.3327
 30
5.11658
 10
-22.0178
 20
39.2266
 30
5.06021
 10
-22.3357
 20
39.0735
 30
4.98016
 10
-22.6708
 20
38.88
 30
4.98016
 10
-22.9624
 20
38.6813
 30
5.06021
 10
-23.3407
 20
38.4245
 30
5.16211
 10
-23.6404
 20
38.1702
 30
5.38275
 10
-23.8603
 20
37.9655
 30
5.64939
 10
-24.2774
 20
37.5722
 30
6.1609
 10
-24.4476
 20
37.3477
 30
6.83485
 10
-24.4506
 20
37.3497
 30
7.5
 10
-24.4494
 20
37.3489
 30
8.03649
 10
-24.3358
 20
37.4922
 30
8.57535
 10
-24.077
 20
37.7554
 30
9.0346
 10
-23.9352
 20
37.8983
 30
9.28415
 10
-23.7479
 20
38.0768
 30
9.51053
 10
-23.5031
 20
38.2775
 30
9.68463
 10
-23.2338
 20
38.499
 30
9.87776
 10
-22.8834
 20
38.7506
 30
10.0014
 10
-22.5
 20
38.9711
 30
10
  0
LINE
  5
A5C
330
A02
100
AcDbEntity
  8
Shape
100
AcDbLine
 10
-22.5
 20
38.9711
 30
10
 11
-25
 21
43.3013
 31
10
  0
SPLINE
  5
A5D
330
A02
100
AcDbEntity
  8
Shape
100
AcDbSpline
210
0
220
0
230
1
 70
9
 71
3
 72
41
 73
37
 74
0
 40
0
 40
0
 40
0
 40
0
 40
0.0685441
 40
0.0685441
 40
0.0685441
 40
0.137088
 40
0.137088
 40
0.137088
 40
0.28065
 40
0.28065
 40
0.28065
 40
0.366606
 40
0.366606
 40
0.366606
 40
0.452562
 40
0.452562
 40
0.452562
 40
0.525492
 40
0.525492
 40
0.525492
 40
0.598422
 40
0.598422
 40
0.598422
 40
0.692583
 40
0.692583
 40
0.692583
 40
0.796163
 40
0.796163
 40
0.796163
 40
0.900454
 40
0.900454
 40
0.900454
 40
0.950227
 40
0.950227
 40
0.950227
 40
1
 40
1
 40
1
 40
1
 10
-43.3013
 20
25
 30
10
 10
-43.1067
 20
25.3371
 30
10.0003
 10
-42.9169
 20
25.6563
 30
9.90825
 10
-42.7508
 20
25.9301
 30
9.75436
 10
-42.5844
 20
26.2045
 30
9.60096
 10
-42.442
 20
26.4332
 30
9.38585
 10
-42.3332
 20
26.6064
 30
9.15328
 10
-42.1049
 20
26.9689
 30
8.66417
 10
-41.9975
 20
27.1326
 30
8.07797
 10
-41.9971
 20
27.1338
 30
7.5
 10
-41.9968
 20
27.1344
 30
7.15012
 10
-42.0364
 20
27.0729
 30
6.80884
 10
-42.1158
 20
26.9491
 30
6.47615
 10
-42.1956
 20
26.8244
 30
6.14706
 10
-42.3168
 20
26.6342
 30
5.83396
 10
-42.4825
 20
26.3674
 30
5.57372
 10
-42.6227
 20
26.1416
 30
5.35231
 10
-42.8061
 20
25.8418
 30
5.16265
 10
-43.0051
 20
25.506
 30
5.06973
 10
-43.2039
 20
25.1711
 30
4.97458
 10
-43.4167
 20
24.8023
 30
4.97653
 10
-43.6088
 20
24.4596
 30
5.07854
 10
-43.8573
 20
24.0168
 30
5.20775
 10
-44.0769
 20
23.6082
 30
5.50206
 10
-44.2323
 20
23.3132
 30
5.90644
 10
-44.4042
 20
22.9867
 30
6.34957
 10
-44.4977
 20
22.8021
 30
6.92355
 10
-44.4971
 20
22.8037
 30
7.5
 10
-44.4963
 20
22.8046
 30
8.07799
 10
-44.4083
 20
22.9795
 30
8.66416
 10
-44.2084
 20
23.3584
 30
9.15328
 10
-44.1129
 20
23.5392
 30
9.38576
 10
-43.9859
 20
23.7769
 30
9.60097
 10
-43.8315
 20
24.0583
 30
9.75439
 10
-43.6774
 20
24.3391
 30
9.90831
 10
-43.4958
 20
24.6631
 30
10.0003
 10
-43.3013
 20
25
 30
10
  0
LINE
  5
A5E
330
A02
100
AcDbEntity
  8
Shape
100
AcDbLine
 10
-38.9711
 20
22.5
 30
10
 11
-43.3013
 21
25
 31
10
  0
SPLINE
  5
A5F
330
A02
100
AcDbEntity
  8
Shape
100
AcDbSpline
210
0
220
0
230
1
 70
9
 71
3
 72
41
 73
37
 74
0
 40
0
 40
0
 40
0
 40
0
 40
0.0424095
 40
0.0424095
 40
0.0424095
 40
0.133503
 40
0.133503
 40
0.133503
 40
0.249311
 40
0.249311
 40
0.249311
 40
0.365426
 40
0.365426
 40
0.365426
 40
0.429948
 40
0.429948
 40
0.429948
 40
0.47072
 40
0.47072
 40
0.47072
 40
0.529694
 40
0.529694
 40
0.529694
 40
0.605753
 40
0.605753
 40
0.605753
 40
0.750256
 40
0.750256
 40
0.750256
 40
0.866572
 40
0.866572
 40
0.866572
 40
0.929995
 40
0.929995
 40
0.929995
 40
1
 40
1
 40
1
 40
1
 10
-38.9711
 20
22.5
 30
10
 10
-38.8381
 20
22.7307
 30
10.0003
 10
-38.6928
 20
22.9527
 30
9.95637
 10
-38.5503
 20
23.1491
 30
9.87764
 10
-38.2431
 20
23.5725
 30
9.70778
 10
-37.9602
 20
23.8735
 30
9.39265
 10
-37.7563
 20
24.0761
 30
9.03612
 10
-37.4943
 20
24.3339
 30
8.57949
 10
-37.3507
 20
24.4478
 30
8.04396
 10
-37.3497
 20
24.4506
 30
7.5103
 10
-37.3471
 20
24.4509
 30
6.9752
 10
-37.488
 20
24.3393
 30
6.43738
 10
-37.7483
 20
24.084
 30
5.97787
 10
-37.8924
 20
23.9414
 30
5.72331
 10
-38.0734
 20
23.7519
 30
5.49235
 10
-38.2775
 20
23.5031
 30
5.31537
 10
-38.408
 20
23.3452
 30
5.20164
 10
-38.5426
 20
23.165
 30
5.11658
 10
-38.6813
 20
22.9624
 30
5.06021
 10
-38.88
 20
22.6708
 30
4.98016
 10
-39.0735
 20
22.3357
 30
4.98016
 10
-39.2266
 20
22.0178
 30
5.06021
 10
-39.4258
 20
21.6063
 30
5.16211
 10
-39.5583
 20
21.2362
 30
5.38275
 10
-39.6463
 20
20.949
 30
5.64939
 10
-39.8109
 20
20.3998
 30
6.1609
 10
-39.8461
 20
20.1203
 30
6.83485
 10
-39.8497
 20
20.1205
 30
7.5
 10
-39.8482
 20
20.1204
 30
8.03649
 10
-39.8215
 20
20.3014
 30
8.57535
 10
-39.729
 20
20.6587
 30
9.0346
 10
-39.6777
 20
20.8532
 30
9.28415
 10
-39.6047
 20
21.1015
 30
9.51053
 10
-39.493
 20
21.3978
 30
9.68463
 10
-39.3706
 20
21.7242
 30
9.87776
 10
-39.1929
 20
22.1173
 30
10.0014
 10
-38.9711
 20
22.5
 30
10
  0
LINE
  5
A60
330
A02
100
AcDbEntity
  8
Shape
100
AcDbLine
 10
-38.9711
 20
22.5
 30
10
 11
-43.3013
 21
25
 31
10
  0
SPLINE
  5
A61
330
A02
100
AcDbEntity
  8
Shape
100
AcDbSpline
210
0
220
0
230
1
 70
9
 71
3
 72
41
 73
37
 74
0
 40
0
 40
0
 40
0
 40
0
 40
0.0610597
 40
0.0610597
 40
0.0610597
 40
0.122119
 40
0.122119
 40
0.122119
 40
0.250006
 40
0.250006
 40
0.250006
 40
0.3779
 40
0.3779
 40
0.3779
 40
0.438951
 40
0.438951
 40
0.438951
 40
0.500003
 40
0.500003
 40
0.500003
 40
0.561069
 40
0.561069
 40
0.561069
 40
0.622135
 40
0.622135
 40
0.622135
 40
0.75003
 40
0.75003
 40
0.75003
 40
0.877925
 40
0.877925
 40
0.877925
 40
0.938962
 40
0.938962
 40
0.938962
 40
1
 40
1
 40
1
 40
1
 10
-50
 20
5.77316e-15
 30
10
 10
-50
 20
0.38923
 30
10.0003
 10
-49.9953
 20
0.760507
 30
9.90825
 10
-49.9883
 20
1.08067
 30
9.75436
 10
-49.9814
 20
1.40155
 30
9.60096
 10
-49.9725
 20
1.67086
 30
9.38585
 10
-49.9648
 20
1.87528
 30
9.15328
 10
-49.9484
 20
2.30331
 30
8.66417
 10
-49.9372
 20
2.49874
 30
8.07797
 10
-49.9375
 20
2.5
 30
7.5
 10
-49.9372
 20
2.49873
 30
6.92201
 10
-49.9484
 20
2.30331
 30
6.33584
 10
-49.9648
 20
1.87528
 30
5.84672
 10
-49.9725
 20
1.6709
 30
5.61419
 10
-49.9814
 20
1.40157
 30
5.39904
 10
-49.9883
 20
1.08065
 30
5.24563
 10
-49.9953
 20
0.76045
 30
5.09172
 10
-50
 20
0.389135
 30
4.99973
 10
-50
 20
7.53601e-15
 30
5
 10
-50
 20
-0.38923
 30
4.99973
 10
-49.9953
 20
-0.760507
 30
5.09175
 10
-49.9883
 20
-1.08067
 30
5.24564
 10
-49.9814
 20
-1.40155
 30
5.39904
 10
-49.9725
 20
-1.67086
 30
5.61415
 10
-49.9648
 20
-1.87528
 30
5.84672
 10
-49.9484
 20
-2.30331
 30
6.33583
 10
-49.9372
 20
-2.49874
 30
6.92202
 10
-49.9375
 20
-2.5
 30
7.5
 10
-49.9372
 20
-2.49873
 30
8.07799
 10
-49.9484
 20
-2.30331
 30
8.66416
 10
-49.9648
 20
-1.87528
 30
9.15328
 10
-49.9725
 20
-1.67095
 30
9.38576
 10
-49.9814
 20
-1.40157
 30
9.60097
 10
-49.9883
 20
-1.08062
 30
9.75439
 10
-49.9953
 20
-0.760377
 30
9.90831
 10
-50
 20
-0.389046
 30
10.0003
 10
-50
 20
5.77316e-15
 30
10
  0
LINE
  5
A62
330
A02
100
AcDbEntity
  8
Shape
100
AcDbLine
 10
-45
 20
7.10543e-15
 30
10
 11
-50
 21
7.10543e-15
 31
10
  0
SPLINE
  5
A63
330
A02
100
AcDbEntity
  8
Shape
100
AcDbSpline
210
0
220
0
230
1
 70
9
 71
3
 72
41
 73
37
 74
0
 40
0
 40
0
 40
0
 40
0
 40
0.0423902
 40
0.0423902
 40
0.0423902
 40
0.133442
 40
0.133442
 40
0.133442
 40
0.249941
 40
0.249941
 40
0.249941
 40
0.366311
 40
0.366311
 40
0.366311
 40
0.429763
 40
0.429763
 40
0.429763
 40
0.470539
 40
0.470539
 40
0.470539
 40
0.529519
 40
0.529519
 40
0.529519
 40
0.605586
 40
0.605586
 40
0.605586
 40
0.750127
 40
0.750127
 40
0.750127
 40
0.866504
 40
0.866504
 40
0.866504
 40
0.929959
 40
0.929959
 40
0.929959
 40
1
 40
1
 40
1
 40
1
 10
-45
 20
7.99361e-15
 30
10
 10
-45.0002
 20
0.266288
 30
10.0003
 10
-44.9852
 20
0.531217
 30
9.95637
 10
-44.9601
 20
0.772542
 30
9.87764
 10
-44.9058
 20
1.29281
 30
9.70778
 10
-44.8112
 20
1.69494
 30
9.39265
 10
-44.736
 20
1.97239
 30
9.03612
 10
-44.6373
 20
2.32889
 30
8.57655
 10
-44.5697
 20
2.49933
 30
8.03709
 10
-44.5711
 20
2.5
 30
7.5
 10
-44.5697
 20
2.49933
 30
6.96351
 10
-44.6371
 20
2.32926
 30
6.42465
 10
-44.7357
 20
1.97358
 30
5.9654
 10
-44.7885
 20
1.7794
 30
5.71585
 10
-44.8494
 20
1.52791
 30
5.48947
 10
-44.9009
 20
1.21549
 30
5.31537
 10
-44.9349
 20
1.01354
 30
5.20164
 10
-44.9613
 20
0.79016
 30
5.11658
 10
-44.9801
 20
0.545358
 30
5.06021
 10
-45.0065
 20
0.193458
 30
4.98016
 10
-45.0065
 20
-0.193458
 30
4.98016
 10
-44.9801
 20
-0.545358
 30
5.06021
 10
-44.9469
 20
-1.00136
 30
5.16211
 10
-44.8766
 20
-1.38812
 30
5.38275
 10
-44.8092
 20
-1.68085
 30
5.64939
 10
-44.6771
 20
-2.23888
 30
6.16108
 10
-44.5679
 20
-2.49831
 30
6.83487
 10
-44.5711
 20
-2.5
 30
7.5
 10
-44.5697
 20
-2.49933
 30
8.03649
 10
-44.6371
 20
-2.32926
 30
8.57535
 10
-44.7357
 20
-1.97358
 30
9.0346
 10
-44.7885
 20
-1.7794
 30
9.28415
 10
-44.8494
 20
-1.52791
 30
9.51053
 10
-44.9009
 20
-1.21549
 30
9.68463
 10
-44.958
 20
-0.87156
 30
9.87776
 10
-45.0007
 20
-0.44229
 30
10.0014
 10
-45
 20
7.99361e-15
 30
10
  0
LINE
  5
A64
330
A02
100
AcDbEntity
  8
Shape
100
AcDbLine
 10
-45
 20
7.10543e-15
 30
10
 11
-50
 21
7.10543e-15
 31
10
  0
SPLINE
  5
A65
330
A02
100
AcDbEntity
  8
Shape
100
AcDbSpline
210
0
220
0
230
1
 70
9
 71
3
 72
41
 73
37
 74
0
 40
0
 40
0
 40
0
 40
0
 40
0.0685441
 40
0.0685441
 40
0.0685441
 40
0.137088
 40
0.137088
 40
0.137088
 40
0.28065
 40
0.28065
 40
0.28065
 40
0.366606
 40
0.366606
 40
0.366606
 40
0.452562
 40
0.452562
 40
0.452562
 40
0.525492
 40
0.525492
 40
0.525492
 40
0.598422
 40
0.598422
 40
0.598422
 40
0.692583
 40
0.692583
 40
0.692583
 40
0.796163
 40
0.796163
 40
0.796163
 40
0.900454
 40
0.900454
 40
0.900454
 40
0.950227
 40
0.950227
 40
0.950227
 40
1
 40
1
 40
1
 40
1
 10
-43.3013
 20
-25
 30
10
 10
-43.4959
 20
-24.6629
 30
10.0003
 10
-43.6774
 20
-24.339
 30
9.90825
 10
-43.8315
 20
-24.0583
 30
9.75436
 10
-43.9859
 20
-23.7769
 30
9.60096
 10
-44.1129
 20
-23.5392
 30
9.38585
 10
-44.2084
 20
-23.3584
 30
9.15328
 10
-44.4083
 20
-22.9795
 30
8.66417
 10
-44.4963
 20
-22.8046
 30
8.07797
 10
-44.4971
 20
-22.8037
 30
7.5
 10
-44.4975
 20
-22.8031
 30
7.15012
 10
-44.464
 20
-22.8682
 30
6.80884
 10
-44.3966
 20
-22.9988
 30
6.47615
 10
-44.3284
 20
-23.1303
 30
6.14706
 10
-44.2243
 20
-23.3303
 30
5.83396
 10
-44.0761
 20
-23.6072
 30
5.57372
 10
-43.9506
 20
-23.8415
 30
5.35231
 10
-43.7827
 20
-24.1502
 30
5.16265
 10
-43.5915
 20
-24.4905
 30
5.06973
 10
-43.4008
 20
-24.8302
 30
4.97458
 10
-43.1878
 20
-25.1988
 30
4.97653
 10
-42.9871
 20
-25.5365
 30
5.07854
 10
-42.7278
 20
-25.9731
 30
5.20775
 10
-42.4837
 20
-26.3677
 30
5.50206
 10
-42.306
 20
-26.6497
 30
5.90644
 10
-42.1092
 20
-26.9617
 30
6.34957
 10
-41.9961
 20
-27.1351
 30
6.92355
 10
-41.9971
 20
-27.1338
 30
7.5
 10
-41.9975
 20
-27.1326
 30
8.07799
 10
-42.1049
 20
-26.9689
 30
8.66416
 10
-42.3332
 20
-26.6064
 30
9.15328
 10
-42.442
 20
-26.4333
 30
9.38576
 10
-42.5844
 20
-26.2045
 30
9.60097
 10
-42.7508
 20
-25.93
 30
9.75439
 10
-42.917
 20
-25.6561
 30
9.90831
 10
-43.1068
 20
-25.3369
 30
10.0003
 10
-43.3013
 20
-25
 30
10
  0
LINE
  5
A66
330
A02
100
AcDbEntity
  8
Shape
100
AcDbLine
 10
-38.9711
 20
-22.5
 30
10
 11
-43.3013
 21
-25
 31
10
  0
SPLINE
  5
A67
330
A02
100
AcDbEntity
  8
Shape
100
AcDbSpline
210
0
220
0
230
1
 70
9
 71
3
 72
41
 73
37
 74
0
 40
0
 40
0
 40
0
 40
0
 40
0.0424095
 40
0.0424095
 40
0.0424095
 40
0.133503
 40
0.133503
 40
0.133503
 40
0.249311
 40
0.249311
 40
0.249311
 40
0.365426
 40
0.365426
 40
0.365426
 40
0.429948
 40
0.429948
 40
0.429948
 40
0.47072
 40
0.47072
 40
0.47072
 40
0.529694
 40
0.529694
 40
0.529694
 40
0.605753
 40
0.605753
 40
0.605753
 40
0.750256
 40
0.750256
 40
0.750256
 40
0.866572
 40
0.866572
 40
0.866572
 40
0.929995
 40
0.929995
 40
0.929995
 40
1
 40
1
 40
1
 40
1
 10
-38.9711
 20
-22.5
 30
10
 10
-39.1044
 20
-22.2695
 30
10.0003
 10
-39.224
 20
-22.0326
 30
9.95637
 10
-39.3229
 20
-21.811
 30
9.87764
 10
-39.5359
 20
-21.3333
 30
9.70778
 10
-39.6551
 20
-20.9377
 30
9.39265
 10
-39.7287
 20
-20.6599
 30
9.03612
 10
-39.8209
 20
-20.3041
 30
8.57949
 10
-39.8478
 20
-20.1227
 30
8.04396
 10
-39.8497
 20
-20.1205
 30
7.5103
 10
-39.8486
 20
-20.1181
 30
6.9752
 10
-39.8225
 20
-20.2958
 30
6.43738
 10
-39.7316
 20
-20.649
 30
5.97787
 10
-39.6801
 20
-20.8451
 30
5.72331
 10
-39.6065
 20
-21.0966
 30
5.49235
 10
-39.493
 20
-21.3978
 30
5.31537
 10
-39.4215
 20
-21.5897
 30
5.20164
 10
-39.3327
 20
-21.7964
 30
5.11658
 10
-39.2266
 20
-22.0178
 30
5.06021
 10
-39.0735
 20
-22.3357
 30
4.98016
 10
-38.88
 20
-22.6708
 30
4.98016
 10
-38.6813
 20
-22.9624
 30
5.06021
 10
-38.4245
 20
-23.3407
 30
5.16211
 10
-38.1702
 20
-23.6404
 30
5.38275
 10
-37.9655
 20
-23.8603
 30
5.64939
 10
-37.5722
 20
-24.2774
 30
6.1609
 10
-37.3477
 20
-24.4476
 30
6.83485
 10
-37.3497
 20
-24.4506
 30
7.5
 10
-37.3489
 20
-24.4494
 30
8.03649
 10
-37.4922
 20
-24.3358
 30
8.57535
 10
-37.7554
 20
-24.077
 30
9.0346
 10
-37.8983
 20
-23.9352
 30
9.28415
 10
-38.0768
 20
-23.7479
 30
9.51053
 10
-38.2775
 20
-23.5031
 30
9.68463
 10
-38.499
 20
-23.2338
 30
9.87776
 10
-38.7506
 20
-22.8834
 30
10.0014
 10
-38.9711
 20
-22.5
 30
10
  0
LINE
  5
A68
330
A02
100
AcDbEntity
  8
Shape
100
AcDbLine
 10
-38.9711
 20
-22.5
 30
10
 11
-43.3013
 21
-25
 31
10
  0
SPLINE
  5
A69
330
A02
100
AcDbEntity
  8
Shape
100
AcDbSpline
210
0
220
0
230
1
 70
9
 71
3
 72
41
 73
37
 74
0
 40
0
 40
0
 40
0
 40
0
 40
0.0685441
 40
0.0685441
 40
0.0685441
 40
0.137088
 40
0.137088
 40
0.137088
 40
0.28065
 40
0.28065
 40
0.28065
 40
0.366606
 40
0.366606
 40
0.366606
 40
0.452562
 40
0.452562
 40
0.452562
 40
0.525492
 40
0.525492
 40
0.525492
 40
0.598422
 40
0.598422
 40
0.598422
 40
0.692583
 40
0.692583
 40
0.692583
 40
0.796163
 40
0.796163
 40
0.796163
 40
0.900454
 40
0.900454
 40
0.900454
 40
0.950227
 40
0.950227
 40
0.950227
 40
1
 40
1
 40
1
 40
1
 10
-25
 20
-43.3013
 30
10
 10
-25.3371
 20
-43.1067
 30
10.0003
 10
-25.6563
 20
-42.9169
 30
9.90825
 10
-25.9301
 20
-42.7508
 30
9.75436
 10
-26.2045
 20
-42.5844
 30
9.60096
 10
-26.4332
 20
-42.442
 30
9.38585
 10
-26.6064
 20
-42.3332
 30
9.15328
 10
-26.9689
 20
-42.1049
 30
8.66417
 10
-27.1326
 20
-41.9975
 30
8.07797
 10
-27.1338
 20
-41.9971
 30
7.5
 10
-27.1344
 20
-41.9968
 30
7.15012
 10
-27.0729
 20
-42.0364
 30
6.80884
 10
-26.9491
 20
-42.1158
 30
6.47615
 10
-26.8244
 20
-42.1956
 30
6.14706
 10
-26.6342
 20
-42.3168
 30
5.83396
 10
-26.3674
 20
-42.4825
 30
5.57372
 10
-26.1416
 20
-42.6227
 30
5.35231
 10
-25.8418
 20
-42.8061
 30
5.16265
 10
-25.506
 20
-43.0051
 30
5.06973
 10
-25.1711
 20
-43.2039
 30
4.97458
 10
-24.8023
 20
-43.4167
 30
4.97653
 10
-24.4596
 20
-43.6088
 30
5.07854
 10
-24.0168
 20
-43.8573
 30
5.20775
 10
-23.6082
 20
-44.0769
 30
5.50206
 10
-23.3132
 20
-44.2323
 30
5.90644
 10
-22.9867
 20
-44.4042
 30
6.34957
 10
-22.8021
 20
-44.4977
 30
6.92355
 10
-22.8037
 20
-44.4971
 30
7.5
 10
-22.8046
 20
-44.4963
 30
8.07799
 10
-22.9795
 20
-44.4083
 30
8.66416
 10
-23.3584
 20
-44.2084
 30
9.15328
 10
-23.5392
 20
-44.1129
 30
9.38576
 10
-23.7769
 20
-43.9859
 30
9.60097
 10
-24.0583
 20
-43.8315
 30
9.75439
 10
-24.3391
 20
-43.6774
 30
9.90831
 10
-24.6631
 20
-43.4958
 30
10.0003
 10
-25
 20
-43.3013
 30
10
  0
LINE
  5
A6A
330
A02
100
AcDbEntity
  8
Shape
100
AcDbLine
 10
-22.5
 20
-38.9711
 30
10
 11
-25
 21
-43.3013
 31
10
  0
SPLINE
  5
A6B
330
A02
100
AcDbEntity
  8
Shape
100
AcDbSpline
210
0
220
0
230
1
 70
9
 71
3
 72
41
 73
37
 74
0
 40
0
 40
0
 40
0
 40
0
 40
0.0424095
 40
0.0424095
 40
0.0424095
 40
0.133503
 40
0.133503
 40
0.133503
 40
0.249311
 40
0.249311
 40
0.249311
 40
0.365426
 40
0.365426
 40
0.365426
 40
0.429948
 40
0.429948
 40
0.429948
 40
0.47072
 40
0.47072
 40
0.47072
 40
0.529694
 40
0.529694
 40
0.529694
 40
0.605753
 40
0.605753
 40
0.605753
 40
0.750256
 40
0.750256
 40
0.750256
 40
0.866572
 40
0.866572
 40
0.866572
 40
0.929995
 40
0.929995
 40
0.929995
 40
1
 40
1
 40
1
 40
1
 10
-22.5
 20
-38.9711
 30
10
 10
-22.7307
 20
-38.8381
 30
10.0003
 10
-22.9527
 20
-38.6928
 30
9.95637
 10
-23.1491
 20
-38.5503
 30
9.87764
 10
-23.5725
 20
-38.2431
 30
9.70778
 10
-23.8735
 20
-37.9602
 30
9.39265
 10
-24.0761
 20
-37.7563
 30
9.03612
 10
-24.3339
 20
-37.4943
 30
8.57949
 10
-24.4478
 20
-37.3507
 30
8.04396
 10
-24.4506
 20
-37.3497
 30
7.5103
 10
-24.4509
 20
-37.3471
 30
6.9752
 10
-24.3393
 20
-37.488
 30
6.43738
 10
-24.084
 20
-37.7483
 30
5.97787
 10
-23.9414
 20
-37.8924
 30
5.72331
 10
-23.7519
 20
-38.0734
 30
5.49235
 10
-23.5031
 20
-38.2775
 30
5.31537
 10
-23.3452
 20
-38.408
 30
5.20164
 10
-23.165
 20
-38.5426
 30
5.11658
 10
-22.9624
 20
-38.6813
 30
5.06021
 10
-22.6708
 20
-38.88
 30
4.98016
 10
-22.3357
 20
-39.0735
 30
4.98016
 10
-22.0178
 20
-39.2266
 30
5.06021
 10
-21.6063
 20
-39.4258
 30
5.16211
 10
-21.2362
 20
-39.5583
 30
5.38275
 10
-20.949
 20
-39.6463
 30
5.64939
 10
-20.3998
 20
-39.8109
 30
6.1609
 10
-20.1203
 20
-39.8461
 30
6.83485
 10
-20.1205
 20
-39.8497
 30
7.5
 10
-20.1204
 20
-39.8482
 30
8.03649
 10
-20.3014
 20
-39.8215
 30
8.57535
 10
-20.6587
 20
-39.729
 30
9.0346
 10
-20.8532
 20
-39.6777
 30
9.28415
 10
-21.1015
 20
-39.6047
 30
9.51053
 10
-21.3978
 20
-39.493
 30
9.68463
 10
-21.7242
 20
-39.3706
 30
9.87776
 10
-22.1173
 20
-39.1929
 30
10.0014
 10
-22.5
 20
-38.9711
 30
10
  0
LINE
  5
A6C
330
A02
100
AcDbEntity
  8
Shape
100
AcDbLine
 10
-22.5
 20
-38.9711
 30
10
 11
-25
 21
-43.3013
 31
10
  0
SPLINE
  5
A6D
330
A02
100
AcDbEntity
  8
Shape
100
AcDbSpline
210
0
220
0
230
1
 70
9
 71
3
 72
41
 73
37
 74
0
 40
0
 40
0
 40
0
 40
0
 40
0.0685441
 40
0.0685441
 40
0.0685441
 40
0.137088
 40
0.137088
 40
0.137088
 40
0.28065
 40
0.28065
 40
0.28065
 40
0.366606
 40
0.366606
 40
0.366606
 40
0.452562
 40
0.452562
 40
0.452562
 40
0.525492
 40
0.525492
 40
0.525492
 40
0.598422
 40
0.598422
 40
0.598422
 40
0.692583
 40
0.692583
 40
0.692583
 40
0.796163
 40
0.796163
 40
0.796163
 40
0.900454
 40
0.900454
 40
0.900454
 40
0.950227
 40
0.950227
 40
0.950227
 40
1
 40
1
 40
1
 40
1
 10
-8.43769e-15
 20
-50
 30
10
 10
-0.38923
 20
-50
 30
10.0003
 10
-0.760507
 20
-49.9953
 30
9.90825
 10
-1.08067
 20
-49.9883
 30
9.75436
 10
-1.40155
 20
-49.9814
 30
9.60096
 10
-1.67086
 20
-49.9725
 30
9.38585
 10
-1.87528
 20
-49.9648
 30
9.15328
 10
-2.30331
 20
-49.9484
 30
8.66417
 10
-2.49874
 20
-49.9372
 30
8.07797
 10
-2.5
 20
-49.9375
 30
7.5
 10
-2.50069
 20
-49.9376
 30
7.15012
 10
-2.4276
 20
-49.9411
 30
6.80884
 10
-2.28073
 20
-49.948
 30
6.47615
 10
-2.13276
 20
-49.9547
 30
6.14706
 10
-1.9075
 20
-49.9645
 30
5.83396
 10
-1.59356
 20
-49.9746
 30
5.57372
 10
-1.32796
 20
-49.9831
 30
5.35231
 10
-0.976614
 20
-49.992
 30
5.16265
 10
-0.586317
 20
-49.9966
 30
5.06973
 10
-0.196805
 20
-50.0012
 30
4.97458
 10
0.228907
 20
-50.0011
 30
4.97653
 10
0.621725
 20
-49.9961
 30
5.07854
 10
1.12945
 20
-49.9899
 30
5.20775
 10
1.59319
 20
-49.9758
 30
5.50206
 10
1.92628
 20
-49.9629
 30
5.90644
 10
2.29497
 20
-49.9485
 30
6.34957
 10
2.50161
 20
-49.9372
 30
6.92355
 10
2.5
 20
-49.9375
 30
7.5
 10
2.49873
 20
-49.9372
 30
8.07799
 10
2.30331
 20
-49.9484
 30
8.66416
 10
1.87528
 20
-49.9648
 30
9.15328
 10
1.67095
 20
-49.9725
 30
9.38576
 10
1.40157
 20
-49.9814
 30
9.60097
 10
1.08062
 20
-49.9883
 30
9.75439
 10
0.760377
 20
-49.9953
 30
9.90831
 10
0.389046
 20
-50
 30
10.0003
 10
-8.43769e-15
 20
-50
 30
10
  0
LINE
  5
A6E
330
A02
100
AcDbEntity
  8
Shape
100
AcDbLine
 10
-7.34788e-15
 20
-45
 30
10
 11
-7.9602e-15
 21
-50
 31
10
  0
SPLINE
  5
A6F
330
A02
100
AcDbEntity
  8
Shape
100
AcDbSpline
210
0
220
0
230
1
 70
9
 71
3
 72
41
 73
37
 74
0
 40
0
 40
0
 40
0
 40
0
 40
0.0424095
 40
0.0424095
 40
0.0424095
 40
0.133503
 40
0.133503
 40
0.133503
 40
0.249311
 40
0.249311
 40
0.249311
 40
0.365426
 40
0.365426
 40
0.365426
 40
0.429948
 40
0.429948
 40
0.429948
 40
0.47072
 40
0.47072
 40
0.47072
 40
0.529694
 40
0.529694
 40
0.529694
 40
0.605753
 40
0.605753
 40
0.605753
 40
0.750256
 40
0.750256
 40
0.750256
 40
0.866572
 40
0.866572
 40
0.866572
 40
0.929995
 40
0.929995
 40
0.929995
 40
1
 40
1
 40
1
 40
1
 10
-7.99361e-15
 20
-45
 30
10
 10
-0.266288
 20
-45.0002
 30
10.0003
 10
-0.531217
 20
-44.9852
 30
9.95637
 10
-0.772542
 20
-44.9601
 30
9.87764
 10
-1.29281
 20
-44.9058
 30
9.70778
 10
-1.69494
 20
-44.8112
 30
9.39265
 10
-1.97239
 20
-44.736
 30
9.03612
 10
-2.32662
 20
-44.6379
 30
8.57949
 10
-2.49712
 20
-44.5706
 30
8.04396
 10
-2.49998
 20
-44.5711
 30
7.5103
 10
-2.50153
 20
-44.569
 30
6.9752
 10
-2.33451
 20
-44.6352
 30
6.43738
 10
-1.98321
 20
-44.733
 30
5.97787
 10
-1.78768
 20
-44.7865
 30
5.72331
 10
-1.53308
 20
-44.8485
 30
5.49235
 10
-1.21549
 20
-44.9009
 30
5.31537
 10
-1.01354
 20
-44.9349
 30
5.20164
 10
-0.79016
 20
-44.9613
 30
5.11658
 10
-0.545358
 20
-44.9801
 30
5.06021
 10
-0.193458
 20
-45.0065
 30
4.98016
 10
0.193458
 20
-45.0065
 30
4.98016
 10
0.545358
 20
-44.9801
 30
5.06021
 10
1.00136
 20
-44.9469
 30
5.16211
 10
1.38812
 20
-44.8766
 30
5.38275
 10
1.68085
 20
-44.8092
 30
5.64939
 10
2.23874
 20
-44.6772
 30
6.1609
 10
2.49835
 20
-44.5679
 30
6.83485
 10
2.5
 20
-44.5711
 30
7.5
 10
2.49933
 20
-44.5697
 30
8.03649
 10
2.32926
 20
-44.6371
 30
8.57535
 10
1.97358
 20
-44.7357
 30
9.0346
 10
1.7794
 20
-44.7885
 30
9.28415
 10
1.52791
 20
-44.8494
 30
9.51053
 10
1.21549
 20
-44.9009
 30
9.68463
 10
0.87156
 20
-44.958
 30
9.87776
 10
0.44229
 20
-45.0007
 30
10.0014
 10
-7.99361e-15
 20
-45
 30
10
  0
LINE
  5
A70
330
A02
100
AcDbEntity
  8
Shape
100
AcDbLine
 10
-7.34788e-15
 20
-45
 30
10
 11
-7.9602e-15
 21
-50
 31
10
  0
SPLINE
  5
A71
330
A02
100
AcDbEntity
  8
Shape
100
AcDbSpline
210
0
220
0
230
1
 70
9
 71
3
 72
41
 73
37
 74
0
 40
0
 40
0
 40
0
 40
0
 40
0.0685441
 40
0.0685441
 40
0.0685441
 40
0.137088
 40
0.137088
 40
0.137088
 40
0.28065
 40
0.28065
 40
0.28065
 40
0.366606
 40
0.366606
 40
0.366606
 40
0.452562
 40
0.452562
 40
0.452562
 40
0.525492
 40
0.525492
 40
0.525492
 40
0.598422
 40
0.598422
 40
0.598422
 40
0.692583
 40
0.692583
 40
0.692583
 40
0.796163
 40
0.796163
 40
0.796163
 40
0.900454
 40
0.900454
 40
0.900454
 40
0.950227
 40
0.950227
 40
0.950227
 40
1
 40
1
 40
1
 40
1
 10
25
 20
-43.3013
 30
10
 10
24.6629
 20
-43.4959
 30
10.0003
 10
24.339
 20
-43.6774
 30
9.90825
 10
24.0583
 20
-43.8315
 30
9.75436
 10
23.7769
 20
-43.9859
 30
9.60096
 10
23.5392
 20
-44.1129
 30
9.38585
 10
23.3584
 20
-44.2084
 30
9.15328
 10
22.9795
 20
-44.4083
 30
8.66417
 10
22.8046
 20
-44.4963
 30
8.07797
 10
22.8037
 20
-44.4971
 30
7.5
 10
22.8031
 20
-44.4975
 30
7.15012
 10
22.8682
 20
-44.464
 30
6.80884
 10
22.9988
 20
-44.3966
 30
6.47615
 10
23.1303
 20
-44.3284
 30
6.14706
 10
23.3303
 20
-44.2243
 30
5.83396
 10
23.6072
 20
-44.0761
 30
5.57372
 10
23.8415
 20
-43.9506
 30
5.35231
 10
24.1502
 20
-43.7827
 30
5.16265
 10
24.4905
 20
-43.5915
 30
5.06973
 10
24.8302
 20
-43.4008
 30
4.97458
 10
25.1988
 20
-43.1878
 30
4.97653
 10
25.5365
 20
-42.9871
 30
5.07854
 10
25.9731
 20
-42.7278
 30
5.20775
 10
26.3677
 20
-42.4837
 30
5.50206
 10
26.6497
 20
-42.306
 30
5.90644
 10
26.9617
 20
-42.1092
 30
6.34957
 10
27.1351
 20
-41.9961
 30
6.92355
 10
27.1338
 20
-41.9971
 30
7.5
 10
27.1326
 20
-41.9975
 30
8.07799
 10
26.9689
 20
-42.1049
 30
8.66416
 10
26.6064
 20
-42.3332
 30
9.15328
 10
26.4333
 20
-42.442
 30
9.38576
 10
26.2045
 20
-42.5844
 30
9.60097
 10
25.93
 20
-42.7508
 30
9.75439
 10
25.6561
 20
-42.917
 30
9.90831
 10
25.3369
 20
-43.1068
 30
10.0003
 10
25
 20
-43.3013
 30
10
  0
LINE
  5
A72
330
A02
100
AcDbEntity
  8
Shape
100
AcDbLine
 10
22.5
 20
-38.9711
 30
10
 11
25
 21
-43.3013
 31
10
  0
SPLINE
  5
A73
330
A02
100
AcDbEntity
  8
Shape
100
AcDbSpline
210
0
220
0
230
1
 70
9
 71
3
 72
41
 73
37
 74
0
 40
0
 40
0
 40
0
 40
0
 40
0.0424095
 40
0.0424095
 40
0.0424095
 40
0.133503
 40
0.133503
 40
0.133503
 40
0.249311
 40
0.249311
 40
0.249311
 40
0.365427
 40
0.365427
 40
0.365427
 40
0.429948
 40
0.429948
 40
0.429948
 40
0.47072
 40
0.47072
 40
0.47072
 40
0.529694
 40
0.529694
 40
0.529694
 40
0.605753
 40
0.605753
 40
0.605753
 40
0.750256
 40
0.750256
 40
0.750256
 40
0.866572
 40
0.866572
 40
0.866572
 40
0.929995
 40
0.929995
 40
0.929995
 40
1
 40
1
 40
1
 40
1
 10
22.5
 20
-38.9711
 30
10
 10
22.2695
 20
-39.1044
 30
10.0003
 10
22.0326
 20
-39.224
 30
9.95637
 10
21.811
 20
-39.3229
 30
9.87764
 10
21.3333
 20
-39.5359
 30
9.70778
 10
20.9377
 20
-39.6551
 30
9.39265
 10
20.6599
 20
-39.7287
 30
9.03612
 10
20.3041
 20
-39.8209
 30
8.57949
 10
20.1227
 20
-39.8478
 30
8.04396
 10
20.1205
 20
-39.8497
 30
7.5103
 10
20.1181
 20
-39.8486
 30
6.9752
 10
20.2958
 20
-39.8225
 30
6.43738
 10
20.649
 20
-39.7316
 30
5.97787
 10
20.8451
 20
-39.6801
 30
5.72331
 10
21.0966
 20
-39.6065
 30
5.49235
 10
21.3978
 20
-39.493
 30
5.31537
 10
21.5897
 20
-39.4215
 30
5.20164
 10
21.7964
 20
-39.3327
 30
5.11658
 10
22.0178
 20
-39.2266
 30
5.06021
 10
22.3357
 20
-39.0735
 30
4.98016
 10
22.6708
 20
-38.88
 30
4.98016
 10
22.9624
 20
-38.6813
 30
5.06021
 10
23.3407
 20
-38.4245
 30
5.16211
 10
23.6404
 20
-38.1702
 30
5.38275
 10
23.8603
 20
-37.9655
 30
5.64939
 10
24.2774
 20
-37.5722
 30
6.1609
 10
24.4476
 20
-37.3477
 30
6.83485
 10
24.4506
 20
-37.3497
 30
7.5
 10
24.4494
 20
-37.3489
 30
8.03649
 10
24.3358
 20
-37.4922
 30
8.57535
 10
24.077
 20
-37.7554
 30
9.0346
 10
23.9352
 20
-37.8983
 30
9.28415
 10
23.7479
 20
-38.0768
 30
9.51053
 10
23.5031
 20
-38.2775
 30
9.68463
 10
23.2338
 20
-38.499
 30
9.87776
 10
22.8834
 20
-38.7506
 30
10.0014
 10
22.5
 20
-38.9711
 30
10
  0
LINE
  5
A74
330
A02
100
AcDbEntity
  8
Shape
100
AcDbLine
 10
22.5
 20
-38.9711
 30
10
 11
25
 21
-43.3013
 31
10
  0
SPLINE
  5
A75
330
A02
100
AcDbEntity
  8
Shape
100
AcDbSpline
210
0
220
0
230
1
 70
9
 71
3
 72
41
 73
37
 74
0
 40
0
 40
0
 40
0
 40
0
 40
0.0685441
 40
0.0685441
 40
0.0685441
 40
0.137088
 40
0.137088
 40
0.137088
 40
0.28065
 40
0.28065
 40
0.28065
 40
0.366606
 40
0.366606
 40
0.366606
 40
0.452562
 40
0.452562
 40
0.452562
 40
0.525492
 40
0.525492
 40
0.525492
 40
0.598422
 40
0.598422
 40
0.598422
 40
0.692583
 40
0.692583
 40
0.692583
 40
0.796163
 40
0.796163
 40
0.796163
 40
0.900454
 40
0.900454
 40
0.900454
 40
0.950227
 40
0.950227
 40
0.950227
 40
1
 40
1
 40
1
 40
1
 10
43.3013
 20
-25
 30
10
 10
43.1067
 20
-25.3371
 30
10.0003
 10
42.9169
 20
-25.6563
 30
9.90825
 10
42.7508
 20
-25.9301
 30
9.75436
 10
42.5844
 20
-26.2045
 30
9.60096
 10
42.442
 20
-26.4332
 30
9.38585
 10
42.3332
 20
-26.6064
 30
9.15328
 10
42.1049
 20
-26.9689
 30
8.66417
 10
41.9975
 20
-27.1326
 30
8.07797
 10
41.9971
 20
-27.1338
 30
7.5
 10
41.9968
 20
-27.1344
 30
7.15012
 10
42.0364
 20
-27.0729
 30
6.80884
 10
42.1158
 20
-26.9491
 30
6.47615
 10
42.1956
 20
-26.8244
 30
6.14706
 10
42.3168
 20
-26.6342
 30
5.83396
 10
42.4825
 20
-26.3674
 30
5.57372
 10
42.6227
 20
-26.1416
 30
5.35231
 10
42.8061
 20
-25.8418
 30
5.16265
 10
43.0051
 20
-25.506
 30
5.06973
 10
43.2039
 20
-25.1711
 30
4.97458
 10
43.4167
 20
-24.8023
 30
4.97653
 10
43.6088
 20
-24.4596
 30
5.07854
 10
43.8573
 20
-24.0168
 30
5.20775
 10
44.0769
 20
-23.6082
 30
5.50206
 10
44.2323
 20
-23.3132
 30
5.90644
 10
44.4042
 20
-22.9867
 30
6.34957
 10
44.4977
 20
-22.8021
 30
6.92355
 10
44.4971
 20
-22.8037
 30
7.5
 10
44.4963
 20
-22.8046
 30
8.07799
 10
44.4083
 20
-22.9795
 30
8.66416
 10
44.2084
 20
-23.3584
 30
9.15328
 10
44.1129
 20
-23.5392
 30
9.38576
 10
43.9859
 20
-23.7769
 30
9.60097
 10
43.8315
 20
-24.0583
 30
9.75439
 10
43.6774
 20
-24.3391
 30
9.90831
 10
43.4958
 20
-24.6631
 30
10.0003
 10
43.3013
 20
-25
 30
10
  0
LINE
  5
A76
330
A02
100
AcDbEntity
  8
Shape
100
AcDbLine
 10
38.9711
 20
-22.5
 30
10
 11
43.3013
 21
-25
 31
10
  0
SPLINE
  5
A77
330
A02
100
AcDbEntity
  8
Shape
100
AcDbSpline
210
0
220
0
230
1
 70
9
 71
3
 72
41
 73
37
 74
0
 40
0
 40
0
 40
0
 40
0
 40
0.0424095
 40
0.0424095
 40
0.0424095
 40
0.133503
 40
0.133503
 40
0.133503
 40
0.249311
 40
0.249311
 40
0.249311
 40
0.365426
 40
0.365426
 40
0.365426
 40
0.429948
 40
0.429948
 40
0.429948
 40
0.47072
 40
0.47072
 40
0.47072
 40
0.529694
 40
0.529694
 40
0.529694
 40
0.605753
 40
0.605753
 40
0.605753
 40
0.750256
 40
0.750256
 40
0.750256
 40
0.866572
 40
0.866572
 40
0.866572
 40
0.929995
 40
0.929995
 40
0.929995
 40
1
 40
1
 40
1
 40
1
 10
38.9711
 20
-22.5
 30
10
 10
38.8381
 20
-22.7307
 30
10.0003
 10
38.6928
 20
-22.9527
 30
9.95637
 10
38.5503
 20
-23.1491
 30
9.87764
 10
38.2431
 20
-23.5725
 30
9.70778
 10
37.9602
 20
-23.8735
 30
9.39265
 10
37.7563
 20
-24.0761
 30
9.03612
 10
37.4943
 20
-24.3339
 30
8.57949
 10
37.3507
 20
-24.4478
 30
8.04396
 10
37.3497
 20
-24.4506
 30
7.5103
 10
37.3471
 20
-24.4509
 30
6.9752
 10
37.488
 20
-24.3393
 30
6.43738
 10
37.7483
 20
-24.084
 30
5.97787
 10
37.8924
 20
-23.9414
 30
5.72331
 10
38.0734
 20
-23.7519
 30
5.49235
 10
38.2775
 20
-23.5031
 30
5.31537
 10
38.408
 20
-23.3452
 30
5.20164
 10
38.5426
 20
-23.165
 30
5.11658
 10
38.6813
 20
-22.9624
 30
5.06021
 10
38.88
 20
-22.6708
 30
4.98016
 10
39.0735
 20
-22.3357
 30
4.98016
 10
39.2266
 20
-22.0178
 30
5.06021
 10
39.4258
 20
-21.6063
 30
5.16211
 10
39.5583
 20
-21.2362
 30
5.38275
 10
39.6463
 20
-20.949
 30
5.64939
 10
39.8109
 20
-20.3998
 30
6.1609
 10
39.8461
 20
-20.1203
 30
6.83485
 10
39.8497
 20
-20.1205
 30
7.5
 10
39.8482
 20
-20.1204
 30
8.03649
 10
39.8215
 20
-20.3014
 30
8.57535
 10
39.729
 20
-20.6587
 30
9.0346
 10
39.6777
 20
-20.8532
 30
9.28415
 10
39.6047
 20
-21.1015
 30
9.51053
 10
39.493
 20
-21.3978
 30
9.68463
 10
39.3706
 20
-21.7242
 30
9.87776
 10
39.1929
 20
-22.1173
 30
10.0014
 10
38.9711
 20
-22.5
 30
10
  0
LINE
  5
A78
330
A02
100
AcDbEntity
  8
Shape
100
AcDbLine
 10
38.9711
 20
-22.5
 30
10
 11
43.3013
 21
-25
 31
10
  0
LINE
  5
A79
330
A02
100
AcDbEntity
  8
Shape
100
AcDbLine
 10
45
 20
-1.83697e-15
 30
10
 11
45
 21
-1.83697e-15
 31
15
  0
SPLINE
  5
A7A
330
A02
100
AcDbEntity
  8
Shape
100
AcDbSpline
210
0
220
0
230
1
 70
8
 71
3
 72
23
 73
19
 74
0
 40
0
 40
0
 40
0
 40
0
 40
0.0848143
 40
0.0848143
 40
0.0848143
 40
0.266991
 40
0.266991
 40
0.266991
 40
0.500082
 40
0.500082
 40
0.500082
 40
0.732915
 40
0.732915
 40
0.732915
 40
0.85987
 40
0.85987
 40
0.85987
 40
1
 40
1
 40
1
 40
1
 10
45
 20
-4.44089e-16
 30
10
 10
45.0002
 20
-0.266288
 30
10.0003
 10
44.9852
 20
-0.531217
 30
9.95637
 10
44.9601
 20
-0.772542
 30
9.87764
 10
44.9058
 20
-1.29281
 30
9.70778
 10
44.8112
 20
-1.69494
 30
9.39265
 10
44.736
 20
-1.97239
 30
9.03612
 10
44.6373
 20
-2.32889
 30
8.57655
 10
44.5697
 20
-2.49933
 30
8.03709
 10
44.5711
 20
-2.5
 30
7.5
 10
44.5697
 20
-2.49933
 30
6.96351
 10
44.6371
 20
-2.32926
 30
6.42465
 10
44.7357
 20
-1.97358
 30
5.9654
 10
44.7885
 20
-1.7794
 30
5.71585
 10
44.8494
 20
-1.52791
 30
5.48947
 10
44.9009
 20
-1.21549
 30
5.31537
 10
44.958
 20
-0.87156
 30
5.12224
 10
45.0007
 20
-0.44229
 30
4.99859
 10
45
 20
4.44089e-16
 30
5
  0
LINE
  5
A7B
330
A02
100
AcDbEntity
  8
Shape
100
AcDbLine
 10
45
 20
-1.83697e-15
 30
0
 11
45
 21
-1.83697e-15
 31
5
  0
CIRCLE
  5
A7C
330
A02
100
AcDbEntity
  8
Shape
100
AcDbCircle
 10
37.5
 20
0
 40
7.5
  0
LINE
  5
A7D
330
A02
100
AcDbEntity
  8
Shape
100
AcDbLine
 10
45
 20
-1.83697e-15
 30
0
 11
45
 21
-1.83697e-15
 31
5
  0
SPLINE
  5
A7E
330
A02
100
AcDbEntity
  8
Shape
100
AcDbSpline
210
0
220
0
230
1
 70
8
 71
3
 72
23
 73
19
 74
0
 40
0
 40
0
 40
0
 40
0
 40
0.0848144
 40
0.0848144
 40
0.0848144
 40
0.266991
 40
0.266991
 40
0.266991
 40
0.500082
 40
0.500082
 40
0.500082
 40
0.732916
 40
0.732916
 40
0.732916
 40
0.85987
 40
0.85987
 40
0.85987
 40
1
 40
1
 40
1
 40
1
 10
45
 20
1.22125e-15
 30
5
 10
45.0002
 20
0.266288
 30
4.9997
 10
44.9852
 20
0.531217
 30
5.04363
 10
44.9601
 20
0.772542
 30
5.12236
 10
44.9058
 20
1.29281
 30
5.29222
 10
44.8112
 20
1.69494
 30
5.60735
 10
44.736
 20
1.97239
 30
5.96388
 10
44.6373
 20
2.32889
 30
6.42345
 10
44.5697
 20
2.49933
 30
6.96291
 10
44.5711
 20
2.5
 30
7.5
 10
44.5697
 20
2.49933
 30
8.03649
 10
44.6371
 20
2.32926
 30
8.57535
 10
44.7357
 20
1.97358
 30
9.0346
 10
44.7885
 20
1.7794
 30
9.28415
 10
44.8494
 20
1.52791
 30
9.51053
 10
44.9009
 20
1.21549
 30
9.68463
 10
44.958
 20
0.87156
 30
9.87776
 10
45.0007
 20
0.44229
 30
10.0014
 10
45
 20
6.66134e-16
 30
10
  0
LINE
  5
A7F
330
A02
100
AcDbEntity
  8
Shape
100
AcDbLine
 10
45
 20
-1.83697e-15
 30
10
 11
45
 21
-1.83697e-15
 31
15
  0
CIRCLE
  5
A80
330
A02
100
AcDbEntity
  8
Shape
100
AcDbCircle
 10
37.5
 20
0
 40
7.5
  0
LINE
  5
A81
330
A02
100
AcDbEntity
  8
Shape
100
AcDbLine
 10
7.5
 20
-37.5
 30
0
 11
7.5
 21
-37.5
 31
15
  0
CIRCLE
  5
A82
330
A02
100
AcDbEntity
  8
Shape
100
AcDbCircle
 10
-6.88864e-15
 20
-37.5
 40
7.5
  0
LINE
  5
A83
330
A02
100
AcDbEntity
  8
Shape
100
AcDbLine
 10
7.5
 20
-37.5
 30
0
 11
7.5
 21
-37.5
 31
15
  0
CIRCLE
  5
A84
330
A02
100
AcDbEntity
  8
Shape
100
AcDbCircle
 10
-6.88864e-15
 20
-37.5
 40
7.5
  0
SPLINE
  5
A85
330
A02
100
AcDbEntity
  8
Shape
100
AcDbSpline
210
0
220
0
230
1
 70
9
 71
3
 72
41
 73
37
 74
0
 40
0
 40
0
 40
0
 40
0
 40
0.0424095
 40
0.0424095
 40
0.0424095
 40
0.133503
 40
0.133503
 40
0.133503
 40
0.249311
 40
0.249311
 40
0.249311
 40
0.365426
 40
0.365426
 40
0.365426
 40
0.429948
 40
0.429948
 40
0.429948
 40
0.47072
 40
0.47072
 40
0.47072
 40
0.529694
 40
0.529694
 40
0.529694
 40
0.605753
 40
0.605753
 40
0.605753
 40
0.750256
 40
0.750256
 40
0.750256
 40
0.866572
 40
0.866572
 40
0.866572
 40
0.929995
 40
0.929995
 40
0.929995
 40
1
 40
1
 40
1
 40
1
 10
-7.99361e-15
 20
-45
 30
10
 10
-0.266288
 20
-45.0002
 30
10.0003
 10
-0.531217
 20
-44.9852
 30
9.95637
 10
-0.772542
 20
-44.9601
 30
9.87764
 10
-1.29281
 20
-44.9058
 30
9.70778
 10
-1.69494
 20
-44.8112
 30
9.39265
 10
-1.97239
 20
-44.736
 30
9.03612
 10
-2.32662
 20
-44.6379
 30
8.57949
 10
-2.49712
 20
-44.5706
 30
8.04396
 10
-2.49998
 20
-44.5711
 30
7.5103
 10
-2.50153
 20
-44.569
 30
6.9752
 10
-2.33451
 20
-44.6352
 30
6.43738
 10
-1.98321
 20
-44.733
 30
5.97787
 10
-1.78768
 20
-44.7865
 30
5.72331
 10
-1.53308
 20
-44.8485
 30
5.49235
 10
-1.21549
 20
-44.9009
 30
5.31537
 10
-1.01354
 20
-44.9349
 30
5.20164
 10
-0.79016
 20
-44.9613
 30
5.11658
 10
-0.545358
 20
-44.9801
 30
5.06021
 10
-0.193458
 20
-45.0065
 30
4.98016
 10
0.193458
 20
-45.0065
 30
4.98016
 10
0.545358
 20
-44.9801
 30
5.06021
 10
1.00136
 20
-44.9469
 30
5.16211
 10
1.38812
 20
-44.8766
 30
5.38275
 10
1.68085
 20
-44.8092
 30
5.64939
 10
2.23874
 20
-44.6772
 30
6.1609
 10
2.49835
 20
-44.5679
 30
6.83485
 10
2.5
 20
-44.5711
 30
7.5
 10
2.49933
 20
-44.5697
 30
8.03649
 10
2.32926
 20
-44.6371
 30
8.57535
 10
1.97358
 20
-44.7357
 30
9.0346
 10
1.7794
 20
-44.7885
 30
9.28415
 10
1.52791
 20
-44.8494
 30
9.51053
 10
1.21549
 20
-44.9009
 30
9.68463
 10
0.87156
 20
-44.958
 30
9.87776
 10
0.44229
 20
-45.0007
 30
10.0014
 10
-7.99361e-15
 20
-45
 30
10
  0
LINE
  5
A86
330
A02
100
AcDbEntity
  8
Shape
100
AcDbLine
 10
-11.25
 20
-32.476
 30
0
 11
-11.25
 21
-32.476
 31
15
  0
CIRCLE
  5
A87
330
A02
100
AcDbEntity
  8
Shape
100
AcDbCircle
 10
-18.75
 20
-32.476
 40
7.5
  0
LINE
  5
A88
330
A02
100
AcDbEntity
  8
Shape
100
AcDbLine
 10
-11.25
 20
-32.476
 30
0
 11
-11.25
 21
-32.476
 31
15
  0
CIRCLE
  5
A89
330
A02
100
AcDbEntity
  8
Shape
100
AcDbCircle
 10
-18.75
 20
-32.476
 40
7.5
  0
SPLINE
  5
A8A
330
A02
100
AcDbEntity
  8
Shape
100
AcDbSpline
210
0
220
0
230
1
 70
9
 71
3
 72
41
 73
37
 74
0
 40
0
 40
0
 40
0
 40
0
 40
0.0424095
 40
0.0424095
 40
0.0424095
 40
0.133503
 40
0.133503
 40
0.133503
 40
0.249311
 40
0.249311
 40
0.249311
 40
0.365426
 40
0.365426
 40
0.365426
 40
0.429948
 40
0.429948
 40
0.429948
 40
0.47072
 40
0.47072
 40
0.47072
 40
0.529694
 40
0.529694
 40
0.529694
 40
0.605753
 40
0.605753
 40
0.605753
 40
0.750256
 40
0.750256
 40
0.750256
 40
0.866572
 40
0.866572
 40
0.866572
 40
0.929995
 40
0.929995
 40
0.929995
 40
1
 40
1
 40
1
 40
1
 10
-22.5
 20
-38.9711
 30
10
 10
-22.7307
 20
-38.8381
 30
10.0003
 10
-22.9527
 20
-38.6928
 30
9.95637
 10
-23.1491
 20
-38.5503
 30
9.87764
 10
-23.5725
 20
-38.2431
 30
9.70778
 10
-23.8735
 20
-37.9602
 30
9.39265
 10
-24.0761
 20
-37.7563
 30
9.03612
 10
-24.3339
 20
-37.4943
 30
8.57949
 10
-24.4478
 20
-37.3507
 30
8.04396
 10
-24.4506
 20
-37.3497
 30
7.5103
 10
-24.4509
 20
-37.3471
 30
6.9752
 10
-24.3393
 20
-37.488
 30
6.43738
 10
-24.084
 20
-37.7483
 30
5.97787
 10
-23.9414
 20
-37.8924
 30
5.72331
 10
-23.7519
 20
-38.0734
 30
5.49235
 10
-23.5031
 20
-38.2775
 30
5.31537
 10
-23.3452
 20
-38.408
 30
5.20164
 10
-23.165
 20
-38.5426
 30
5.11658
 10
-22.9624
 20
-38.6813
 30
5.06021
 10
-22.6708
 20
-38.88
 30
4.98016
 10
-22.3357
 20
-39.0735
 30
4.98016
 10
-22.0178
 20
-39.2266
 30
5.06021
 10
-21.6063
 20
-39.4258
 30
5.16211
 10
-21.2362
 20
-39.5583
 30
5.38275
 10
-20.949
 20
-39.6463
 30
5.64939
 10
-20.3998
 20
-39.8109
 30
6.1609
 10
-20.1203
 20
-39.8461
 30
6.83485
 10
-20.1205
 20
-39.8497
 30
7.5
 10
-20.1204
 20
-39.8482
 30
8.03649
 10
-20.3014
 20
-39.8215
 30
8.57535
 10
-20.6587
 20
-39.729
 30
9.0346
 10
-20.8532
 20
-39.6777
 30
9.28415
 10
-21.1015
 20
-39.6047
 30
9.51053
 10
-21.3978
 20
-39.493
 30
9.68463
 10
-21.7242
 20
-39.3706
 30
9.87776
 10
-22.1173
 20
-39.1929
 30
10.0014
 10
-22.5
 20
-38.9711
 30
10
  0
LINE
  5
A8B
330
A02
100
AcDbEntity
  8
Shape
100
AcDbLine
 10
-24.976
 20
-18.75
 30
0
 11
-24.976
 21
-18.75
 31
15
  0
CIRCLE
  5
A8C
330
A02
100
AcDbEntity
  8
Shape
100
AcDbCircle
 10
-32.476
 20
-18.75
 40
7.5
  0
LINE
  5
A8D
330
A02
100
AcDbEntity
  8
Shape
100
AcDbLine
 10
-24.976
 20
-18.75
 30
0
 11
-24.976
 21
-18.75
 31
15
  0
CIRCLE
  5
A8E
330
A02
100
AcDbEntity
  8
Shape
100
AcDbCircle
 10
-32.476
 20
-18.75
 40
7.5
  0
SPLINE
  5
A8F
330
A02
100
AcDbEntity
  8
Shape
100
AcDbSpline
210
0
220
0
230
1
 70
9
 71
3
 72
41
 73
37
 74
0
 40
0
 40
0
 40
0
 40
0
 40
0.0424095
 40
0.0424095
 40
0.0424095
 40
0.133503
 40
0.133503
 40
0.133503
 40
0.249311
 40
0.249311
 40
0.249311
 40
0.365426
 40
0.365426
 40
0.365426
 40
0.429948
 40
0.429948
 40
0.429948
 40
0.47072
 40
0.47072
 40
0.47072
 40
0.529694
 40
0.529694
 40
0.529694
 40
0.605753
 40
0.605753
 40
0.605753
 40
0.750256
 40
0.750256
 40
0.750256
 40
0.866572
 40
0.866572
 40
0.866572
 40
0.929995
 40
0.929995
 40
0.929995
 40
1
 40
1
 40
1
 40
1
 10
-38.9711
 20
-22.5
 30
10
 10
-39.1044
 20
-22.2695
 30
10.0003
 10
-39.224
 20
-22.0326
 30
9.95637
 10
-39.3229
 20
-21.811
 30
9.87764
 10
-39.5359
 20
-21.3333
 30
9.70778
 10
-39.6551
 20
-20.9377
 30
9.39265
 10
-39.7287
 20
-20.6599
 30
9.03612
 10
-39.8209
 20
-20.3041
 30
8.57949
 10
-39.8478
 20
-20.1227
 30
8.04396
 10
-39.8497
 20
-20.1205
 30
7.5103
 10
-39.8486
 20
-20.1181
 30
6.9752
 10
-39.8225
 20
-20.2958
 30
6.43738
 10
-39.7316
 20
-20.649
 30
5.97787
 10
-39.6801
 20
-20.8451
 30
5.72331
 10
-39.6065
 20
-21.0966
 30
5.49235
 10
-39.493
 20
-21.3978
 30
5.31537
 10
-39.4215
 20
-21.5897
 30
5.20164
 10
-39.3327
 20
-21.7964
 30
5.11658
 10
-39.2266
 20
-22.0178
 30
5.06021
 10
-39.0735
 20
-22.3357
 30
4.98016
 10
-38.88
 20
-22.6708
 30
4.98016
 10
-38.6813
 20
-22.9624
 30
5.06021
 10
-38.4245
 20
-23.3407
 30
5.16211
 10
-38.1702
 20
-23.6404
 30
5.38275
 10
-37.9655
 20
-23.8603
 30
5.64939
 10
-37.5722
 20
-24.2774
 30
6.1609
 10
-37.3477
 20
-24.4476
 30
6.83485
 10
-37.3497
 20
-24.4506
 30
7.5
 10
-37.3489
 20
-24.4494
 30
8.03649
 10
-37.4922
 20
-24.3358
 30
8.57535
 10
-37.7554
 20
-24.077
 30
9.0346
 10
-37.8983
 20
-23.9352
 30
9.28415
 10
-38.0768
 20
-23.7479
 30
9.51053
 10
-38.2775
 20
-23.5031
 30
9.68463
 10
-38.499
 20
-23.2338
 30
9.87776
 10
-38.7506
 20
-22.8834
 30
10.0014
 10
-38.9711
 20
-22.5
 30
10
  0
CIRCLE
  5
A90
330
A02
100
AcDbEntity
  8
Shape
100
AcDbCircle
 10
-16.25
 20
-16.25
 40
7.5
  0
LINE
  5
A91
330
A02
100
AcDbEntity
  8
Shape
100
AcDbLine
 10
-8.75
 20
-16.25
 30
0
 11
-8.75
 21
-16.25
 31
15
  0
CIRCLE
  5
A92
330
A02
100
AcDbEntity
  8
Shape
100
AcDbCircle
 10
-16.25
 20
-16.25
 40
7.5
  0
LINE
  5
A93
330
A02
100
AcDbEntity
  8
Shape
100
AcDbLine
 10
-8.75
 20
-16.25
 30
0
 11
-8.75
 21
-16.25
 31
15
  0
LINE
  5
A94
330
A02
100
AcDbEntity
  8
Shape
100
AcDbLine
 10
26.25
 20
-32.476
 30
0
 11
26.25
 21
-32.476
 31
15
  0
CIRCLE
  5
A95
330
A02
100
AcDbEntity
  8
Shape
100
AcDbCircle
 10
18.75
 20
-32.476
 40
7.5
  0
LINE
  5
A96
330
A02
100
AcDbEntity
  8
Shape
100
AcDbLine
 10
26.25
 20
-32.476
 30
0
 11
26.25
 21
-32.476
 31
15
  0
CIRCLE
  5
A97
330
A02
100
AcDbEntity
  8
Shape
100
AcDbCircle
 10
18.75
 20
-32.476
 40
7.5
  0
SPLINE
  5
A98
330
A02
100
AcDbEntity
  8
Shape
100
AcDbSpline
210
0
220
0
230
1
 70
9
 71
3
 72
41
 73
37
 74
0
 40
0
 40
0
 40
0
 40
0
 40
0.0424095
 40
0.0424095
 40
0.0424095
 40
0.133503
 40
0.133503
 40
0.133503
 40
0.249311
 40
0.249311
 40
0.249311
 40
0.365427
 40
0.365427
 40
0.365427
 40
0.429948
 40
0.429948
 40
0.429948
 40
0.47072
 40
0.47072
 40
0.47072
 40
0.529694
 40
0.529694
 40
0.529694
 40
0.605753
 40
0.605753
 40
0.605753
 40
0.750256
 40
0.750256
 40
0.750256
 40
0.866572
 40
0.866572
 40
0.866572
 40
0.929995
 40
0.929995
 40
0.929995
 40
1
 40
1
 40
1
 40
1
 10
22.5
 20
-38.9711
 30
10
 10
22.2695
 20
-39.1044
 30
10.0003
 10
22.0326
 20
-39.224
 30
9.95637
 10
21.811
 20
-39.3229
 30
9.87764
 10
21.3333
 20
-39.5359
 30
9.70778
 10
20.9377
 20
-39.6551
 30
9.39265
 10
20.6599
 20
-39.7287
 30
9.03612
 10
20.3041
 20
-39.8209
 30
8.57949
 10
20.1227
 20
-39.8478
 30
8.04396
 10
20.1205
 20
-39.8497
 30
7.5103
 10
20.1181
 20
-39.8486
 30
6.9752
 10
20.2958
 20
-39.8225
 30
6.43738
 10
20.649
 20
-39.7316
 30
5.97787
 10
20.8451
 20
-39.6801
 30
5.72331
 10
21.0966
 20
-39.6065
 30
5.49235
 10
21.3978
 20
-39.493
 30
5.31537
 10
21.5897
 20
-39.4215
 30
5.20164
 10
21.7964
 20
-39.3327
 30
5.11658
 10
22.0178
 20
-39.2266
 30
5.06021
 10
22.3357
 20
-39.0735
 30
4.98016
 10
22.6708
 20
-38.88
 30
4.98016
 10
22.9624
 20
-38.6813
 30
5.06021
 10
23.3407
 20
-38.4245
 30
5.16211
 10
23.6404
 20
-38.1702
 30
5.38275
 10
23.8603
 20
-37.9655
 30
5.64939
 10
24.2774
 20
-37.5722
 30
6.1609
 10
24.4476
 20
-37.3477
 30
6.83485
 10
24.4506
 20
-37.3497
 30
7.5
 10
24.4494
 20
-37.3489
 30
8.03649
 10
24.3358
 20
-37.4922
 30
8.57535
 10
24.077
 20
-37.7554
 30
9.0346
 10
23.9352
 20
-37.8983
 30
9.28415
 10
23.7479
 20
-38.0768
 30
9.51053
 10
23.5031
 20
-38.2775
 30
9.68463
 10
23.2338
 20
-38.499
 30
9.87776
 10
22.8834
 20
-38.7506
 30
10.0014
 10
22.5
 20
-38.9711
 30
10
  0
CIRCLE
  5
A99
330
A02
100
AcDbEntity
  8
Shape
100
AcDbCircle
 10
-3.2147e-15
 20
-17.5
 40
7.5
  0
LINE
  5
A9A
330
A02
100
AcDbEntity
  8
Shape
100
AcDbLine
 10
7.5
 20
-17.5
 30
0
 11
7.5
 21
-17.5
 31
15
  0
CIRCLE
  5
A9B
330
A02
100
AcDbEntity
  8
Shape
100
AcDbCircle
 10
-3.2147e-15
 20
-17.5
 40
7.5
  0
LINE
  5
A9C
330
A02
100
AcDbEntity
  8
Shape
100
AcDbLine
 10
7.5
 20
-17.5
 30
0
 11
7.5
 21
-17.5
 31
15
  0
CIRCLE
  5
A9D
330
A02
100
AcDbEntity
  8
Shape
100
AcDbCircle
 10
16.25
 20
-16.25
 40
7.5
  0
LINE
  5
A9E
330
A02
100
AcDbEntity
  8
Shape
100
AcDbLine
 10
23.75
 20
-16.25
 30
0
 11
23.75
 21
-16.25
 31
15
  0
CIRCLE
  5
A9F
330
A02
100
AcDbEntity
  8
Shape
100
AcDbCircle
 10
16.25
 20
-16.25
 40
7.5
  0
LINE
  5
AA0
330
A02
100
AcDbEntity
  8
Shape
100
AcDbLine
 10
23.75
 20
-16.25
 30
0
 11
23.75
 21
-16.25
 31
15
  0
LINE
  5
AA1
330
A02
100
AcDbEntity
  8
Shape
100
AcDbLine
 10
39.976
 20
-18.75
 30
0
 11
39.976
 21
-18.75
 31
15
  0
CIRCLE
  5
AA2
330
A02
100
AcDbEntity
  8
Shape
100
AcDbCircle
 10
32.476
 20
-18.75
 40
7.5
  0
LINE
  5
AA3
330
A02
100
AcDbEntity
  8
Shape
100
AcDbLine
 10
39.976
 20
-18.75
 30
0
 11
39.976
 21
-18.75
 31
15
  0
CIRCLE
  5
AA4
330
A02
100
AcDbEntity
  8
Shape
100
AcDbCircle
 10
32.476
 20
-18.75
 40
7.5
  0
SPLINE
  5
AA5
330
A02
100
AcDbEntity
  8
Shape
100
AcDbSpline
210
0
220
0
230
1
 70
9
 71
3
 72
41
 73
37
 74
0
 40
0
 40
0
 40
0
 40
0
 40
0.0424095
 40
0.0424095
 40
0.0424095
 40
0.133503
 40
0.133503
 40
0.133503
 40
0.249311
 40
0.249311
 40
0.249311
 40
0.365426
 40
0.365426
 40
0.365426
 40
0.429948
 40
0.429948
 40
0.429948
 40
0.47072
 40
0.47072
 40
0.47072
 40
0.529694
 40
0.529694
 40
0.529694
 40
0.605753
 40
0.605753
 40
0.605753
 40
0.750256
 40
0.750256
 40
0.750256
 40
0.866572
 40
0.866572
 40
0.866572
 40
0.929995
 40
0.929995
 40
0.929995
 40
1
 40
1
 40
1
 40
1
 10
38.9711
 20
-22.5
 30
10
 10
38.8381
 20
-22.7307
 30
10.0003
 10
38.6928
 20
-22.9527
 30
9.95637
 10
38.5503
 20
-23.1491
 30
9.87764
 10
38.2431
 20
-23.5725
 30
9.70778
 10
37.9602
 20
-23.8735
 30
9.39265
 10
37.7563
 20
-24.0761
 30
9.03612
 10
37.4943
 20
-24.3339
 30
8.57949
 10
37.3507
 20
-24.4478
 30
8.04396
 10
37.3497
 20
-24.4506
 30
7.5103
 10
37.3471
 20
-24.4509
 30
6.9752
 10
37.488
 20
-24.3393
 30
6.43738
 10
37.7483
 20
-24.084
 30
5.97787
 10
37.8924
 20
-23.9414
 30
5.72331
 10
38.0734
 20
-23.7519
 30
5.49235
 10
38.2775
 20
-23.5031
 30
5.31537
 10
38.408
 20
-23.3452
 30
5.20164
 10
38.5426
 20
-23.165
 30
5.11658
 10
38.6813
 20
-22.9624
 30
5.06021
 10
38.88
 20
-22.6708
 30
4.98016
 10
39.0735
 20
-22.3357
 30
4.98016
 10
39.2266
 20
-22.0178
 30
5.06021
 10
39.4258
 20
-21.6063
 30
5.16211
 10
39.5583
 20
-21.2362
 30
5.38275
 10
39.6463
 20
-20.949
 30
5.64939
 10
39.8109
 20
-20.3998
 30
6.1609
 10
39.8461
 20
-20.1203
 30
6.83485
 10
39.8497
 20
-20.1205
 30
7.5
 10
39.8482
 20
-20.1204
 30
8.03649
 10
39.8215
 20
-20.3014
 30
8.57535
 10
39.729
 20
-20.6587
 30
9.0346
 10
39.6777
 20
-20.8532
 30
9.28415
 10
39.6047
 20
-21.1015
 30
9.51053
 10
39.493
 20
-21.3978
 30
9.68463
 10
39.3706
 20
-21.7242
 30
9.87776
 10
39.1929
 20
-22.1173
 30
10.0014
 10
38.9711
 20
-22.5
 30
10
  0
LINE
  5
AA6
330
A02
100
AcDbEntity
  8
Shape
100
AcDbLine
 10
-30
 20
2.75546e-15
 30
0
 11
-30
 21
2.75546e-15
 31
15
  0
CIRCLE
  5
AA7
330
A02
100
AcDbEntity
  8
Shape
100
AcDbCircle
 10
-37.5
 20
4.59243e-15
 40
7.5
  0
LINE
  5
AA8
330
A02
100
AcDbEntity
  8
Shape
100
AcDbLine
 10
-30
 20
2.75546e-15
 30
0
 11
-30
 21
2.75546e-15
 31
15
  0
CIRCLE
  5
AA9
330
A02
100
AcDbEntity
  8
Shape
100
AcDbCircle
 10
-37.5
 20
4.59243e-15
 40
7.5
  0
SPLINE
  5
AAA
330
A02
100
AcDbEntity
  8
Shape
100
AcDbSpline
210
0
220
0
230
1
 70
9
 71
3
 72
41
 73
37
 74
0
 40
0
 40
0
 40
0
 40
0
 40
0.0423902
 40
0.0423902
 40
0.0423902
 40
0.133442
 40
0.133442
 40
0.133442
 40
0.249941
 40
0.249941
 40
0.249941
 40
0.366311
 40
0.366311
 40
0.366311
 40
0.429763
 40
0.429763
 40
0.429763
 40
0.470539
 40
0.470539
 40
0.470539
 40
0.529519
 40
0.529519
 40
0.529519
 40
0.605586
 40
0.605586
 40
0.605586
 40
0.750127
 40
0.750127
 40
0.750127
 40
0.866504
 40
0.866504
 40
0.866504
 40
0.929959
 40
0.929959
 40
0.929959
 40
1
 40
1
 40
1
 40
1
 10
-45
 20
7.99361e-15
 30
10
 10
-45.0002
 20
0.266288
 30
10.0003
 10
-44.9852
 20
0.531217
 30
9.95637
 10
-44.9601
 20
0.772542
 30
9.87764
 10
-44.9058
 20
1.29281
 30
9.70778
 10
-44.8112
 20
1.69494
 30
9.39265
 10
-44.736
 20
1.97239
 30
9.03612
 10
-44.6373
 20
2.32889
 30
8.57655
 10
-44.5697
 20
2.49933
 30
8.03709
 10
-44.5711
 20
2.5
 30
7.5
 10
-44.5697
 20
2.49933
 30
6.96351
 10
-44.6371
 20
2.32926
 30
6.42465
 10
-44.7357
 20
1.97358
 30
5.9654
 10
-44.7885
 20
1.7794
 30
5.71585
 10
-44.8494
 20
1.52791
 30
5.48947
 10
-44.9009
 20
1.21549
 30
5.31537
 10
-44.9349
 20
1.01354
 30
5.20164
 10
-44.9613
 20
0.79016
 30
5.11658
 10
-44.9801
 20
0.545358
 30
5.06021
 10
-45.0065
 20
0.193458
 30
4.98016
 10
-45.0065
 20
-0.193458
 30
4.98016
 10
-44.9801
 20
-0.545358
 30
5.06021
 10
-44.9469
 20
-1.00136
 30
5.16211
 10
-44.8766
 20
-1.38812
 30
5.38275
 10
-44.8092
 20
-1.68085
 30
5.64939
 10
-44.6771
 20
-2.23888
 30
6.16108
 10
-44.5679
 20
-2.49831
 30
6.83487
 10
-44.5711
 20
-2.5
 30
7.5
 10
-44.5697
 20
-2.49933
 30
8.03649
 10
-44.6371
 20
-2.32926
 30
8.57535
 10
-44.7357
 20
-1.97358
 30
9.0346
 10
-44.7885
 20
-1.7794
 30
9.28415
 10
-44.8494
 20
-1.52791
 30
9.51053
 10
-44.9009
 20
-1.21549
 30
9.68463
 10
-44.958
 20
-0.87156
 30
9.87776
 10
-45.0007
 20
-0.44229
 30
10.0014
 10
-45
 20
7.99361e-15
 30
10
  0
LINE
  5
AAB
330
A02
100
AcDbEntity
  8
Shape
100
AcDbLine
 10
-24.976
 20
18.75
 30
0
 11
-24.976
 21
18.75
 31
15
  0
CIRCLE
  5
AAC
330
A02
100
AcDbEntity
  8
Shape
100
AcDbCircle
 10
-32.476
 20
18.75
 40
7.5
  0
LINE
  5
AAD
330
A02
100
AcDbEntity
  8
Shape
100
AcDbLine
 10
-24.976
 20
18.75
 30
0
 11
-24.976
 21
18.75
 31
15
  0
CIRCLE
  5
AAE
330
A02
100
AcDbEntity
  8
Shape
100
AcDbCircle
 10
-32.476
 20
18.75
 40
7.5
  0
SPLINE
  5
AAF
330
A02
100
AcDbEntity
  8
Shape
100
AcDbSpline
210
0
220
0
230
1
 70
9
 71
3
 72
41
 73
37
 74
0
 40
0
 40
0
 40
0
 40
0
 40
0.0424095
 40
0.0424095
 40
0.0424095
 40
0.133503
 40
0.133503
 40
0.133503
 40
0.249311
 40
0.249311
 40
0.249311
 40
0.365426
 40
0.365426
 40
0.365426
 40
0.429948
 40
0.429948
 40
0.429948
 40
0.47072
 40
0.47072
 40
0.47072
 40
0.529694
 40
0.529694
 40
0.529694
 40
0.605753
 40
0.605753
 40
0.605753
 40
0.750256
 40
0.750256
 40
0.750256
 40
0.866572
 40
0.866572
 40
0.866572
 40
0.929995
 40
0.929995
 40
0.929995
 40
1
 40
1
 40
1
 40
1
 10
-38.9711
 20
22.5
 30
10
 10
-38.8381
 20
22.7307
 30
10.0003
 10
-38.6928
 20
22.9527
 30
9.95637
 10
-38.5503
 20
23.1491
 30
9.87764
 10
-38.2431
 20
23.5725
 30
9.70778
 10
-37.9602
 20
23.8735
 30
9.39265
 10
-37.7563
 20
24.0761
 30
9.03612
 10
-37.4943
 20
24.3339
 30
8.57949
 10
-37.3507
 20
24.4478
 30
8.04396
 10
-37.3497
 20
24.4506
 30
7.5103
 10
-37.3471
 20
24.4509
 30
6.9752
 10
-37.488
 20
24.3393
 30
6.43738
 10
-37.7483
 20
24.084
 30
5.97787
 10
-37.8924
 20
23.9414
 30
5.72331
 10
-38.0734
 20
23.7519
 30
5.49235
 10
-38.2775
 20
23.5031
 30
5.31537
 10
-38.408
 20
23.3452
 30
5.20164
 10
-38.5426
 20
23.165
 30
5.11658
 10
-38.6813
 20
22.9624
 30
5.06021
 10
-38.88
 20
22.6708
 30
4.98016
 10
-39.0735
 20
22.3357
 30
4.98016
 10
-39.2266
 20
22.0178
 30
5.06021
 10
-39.4258
 20
21.6063
 30
5.16211
 10
-39.5583
 20
21.2362
 30
5.38275
 10
-39.6463
 20
20.949
 30
5.64939
 10
-39.8109
 20
20.3998
 30
6.1609
 10
-39.8461
 20
20.1203
 30
6.83485
 10
-39.8497
 20
20.1205
 30
7.5
 10
-39.8482
 20
20.1204
 30
8.03649
 10
-39.8215
 20
20.3014
 30
8.57535
 10
-39.729
 20
20.6587
 30
9.0346
 10
-39.6777
 20
20.8532
 30
9.28415
 10
-39.6047
 20
21.1015
 30
9.51053
 10
-39.493
 20
21.3978
 30
9.68463
 10
-39.3706
 20
21.7242
 30
9.87776
 10
-39.1929
 20
22.1173
 30
10.0014
 10
-38.9711
 20
22.5
 30
10
  0
CIRCLE
  5
AB0
330
A02
100
AcDbEntity
  8
Shape
100
AcDbCircle
 10
-17.5
 20
2.14313e-15
 40
7.5
  0
LINE
  5
AB1
330
A02
100
AcDbEntity
  8
Shape
100
AcDbLine
 10
-10
 20
3.06162e-16
 30
0
 11
-10
 21
3.06162e-16
 31
15
  0
CIRCLE
  5
AB2
330
A02
100
AcDbEntity
  8
Shape
100
AcDbCircle
 10
-17.5
 20
2.14313e-15
 40
7.5
  0
LINE
  5
AB3
330
A02
100
AcDbEntity
  8
Shape
100
AcDbLine
 10
-10
 20
3.06162e-16
 30
0
 11
-10
 21
3.06162e-16
 31
15
  0
CIRCLE
  5
AB4
330
A02
100
AcDbEntity
  8
Shape
100
AcDbCircle
 10
-16.25
 20
16.25
 40
7.5
  0
LINE
  5
AB5
330
A02
100
AcDbEntity
  8
Shape
100
AcDbLine
 10
-8.75
 20
16.25
 30
0
 11
-8.75
 21
16.25
 31
15
  0
CIRCLE
  5
AB6
330
A02
100
AcDbEntity
  8
Shape
100
AcDbCircle
 10
-16.25
 20
16.25
 40
7.5
  0
LINE
  5
AB7
330
A02
100
AcDbEntity
  8
Shape
100
AcDbLine
 10
-8.75
 20
16.25
 30
0
 11
-8.75
 21
16.25
 31
15
  0
LINE
  5
AB8
330
A02
100
AcDbEntity
  8
Shape
100
AcDbLine
 10
-11.25
 20
32.476
 30
0
 11
-11.25
 21
32.476
 31
15
  0
CIRCLE
  5
AB9
330
A02
100
AcDbEntity
  8
Shape
100
AcDbCircle
 10
-18.75
 20
32.476
 40
7.5
  0
LINE
  5
ABA
330
A02
100
AcDbEntity
  8
Shape
100
AcDbLine
 10
-11.25
 20
32.476
 30
0
 11
-11.25
 21
32.476
 31
15
  0
CIRCLE
  5
ABB
330
A02
100
AcDbEntity
  8
Shape
100
AcDbCircle
 10
-18.75
 20
32.476
 40
7.5
  0
SPLINE
  5
ABC
330
A02
100
AcDbEntity
  8
Shape
100
AcDbSpline
210
0
220
0
230
1
 70
9
 71
3
 72
41
 73
37
 74
0
 40
0
 40
0
 40
0
 40
0
 40
0.0424095
 40
0.0424095
 40
0.0424095
 40
0.133503
 40
0.133503
 40
0.133503
 40
0.249311
 40
0.249311
 40
0.249311
 40
0.365427
 40
0.365427
 40
0.365427
 40
0.429948
 40
0.429948
 40
0.429948
 40
0.47072
 40
0.47072
 40
0.47072
 40
0.529694
 40
0.529694
 40
0.529694
 40
0.605753
 40
0.605753
 40
0.605753
 40
0.750256
 40
0.750256
 40
0.750256
 40
0.866572
 40
0.866572
 40
0.866572
 40
0.929995
 40
0.929995
 40
0.929995
 40
1
 40
1
 40
1
 40
1
 10
-22.5
 20
38.9711
 30
10
 10
-22.2695
 20
39.1044
 30
10.0003
 10
-22.0326
 20
39.224
 30
9.95637
 10
-21.811
 20
39.3229
 30
9.87764
 10
-21.3333
 20
39.5359
 30
9.70778
 10
-20.9377
 20
39.6551
 30
9.39265
 10
-20.6599
 20
39.7287
 30
9.03612
 10
-20.3041
 20
39.8209
 30
8.57949
 10
-20.1227
 20
39.8478
 30
8.04396
 10
-20.1205
 20
39.8497
 30
7.5103
 10
-20.1181
 20
39.8486
 30
6.9752
 10
-20.2958
 20
39.8225
 30
6.43738
 10
-20.649
 20
39.7316
 30
5.97787
 10
-20.8451
 20
39.6801
 30
5.72331
 10
-21.0966
 20
39.6065
 30
5.49235
 10
-21.3978
 20
39.493
 30
5.31537
 10
-21.5897
 20
39.4215
 30
5.20164
 10
-21.7964
 20
39.3327
 30
5.11658
 10
-22.0178
 20
39.2266
 30
5.06021
 10
-22.3357
 20
39.0735
 30
4.98016
 10
-22.6708
 20
38.88
 30
4.98016
 10
-22.9624
 20
38.6813
 30
5.06021
 10
-23.3407
 20
38.4245
 30
5.16211
 10
-23.6404
 20
38.1702
 30
5.38275
 10
-23.8603
 20
37.9655
 30
5.64939
 10
-24.2774
 20
37.5722
 30
6.1609
 10
-24.4476
 20
37.3477
 30
6.83485
 10
-24.4506
 20
37.3497
 30
7.5
 10
-24.4494
 20
37.3489
 30
8.03649
 10
-24.3358
 20
37.4922
 30
8.57535
 10
-24.077
 20
37.7554
 30
9.0346
 10
-23.9352
 20
37.8983
 30
9.28415
 10
-23.7479
 20
38.0768
 30
9.51053
 10
-23.5031
 20
38.2775
 30
9.68463
 10
-23.2338
 20
38.499
 30
9.87776
 10
-22.8834
 20
38.7506
 30
10.0014
 10
-22.5
 20
38.9711
 30
10
  0
CIRCLE
  5
ABD
330
A02
100
AcDbEntity
  8
Shape
100
AcDbCircle
 10
0
 20
0
 40
5
  0
LINE
  5
ABE
330
A02
100
AcDbEntity
  8
Shape
100
AcDbLine
 10
5
 20
-1.22465e-15
 30
0
 11
5
 21
-1.22465e-15
 31
15
  0
CIRCLE
  5
ABF
330
A02
100
AcDbEntity
  8
Shape
100
AcDbCircle
 10
0
 20
0
 40
5
  0
LINE
  5
AC0
330
A02
100
AcDbEntity
  8
Shape
100
AcDbLine
 10
5
 20
-1.22465e-15
 30
0
 11
5
 21
-1.22465e-15
 31
15
  0
CIRCLE
  5
AC1
330
A02
100
AcDbEntity
  8
Shape
100
AcDbCircle
 10
17.5
 20
0
 40
7.5
  0
LINE
  5
AC2
330
A02
100
AcDbEntity
  8
Shape
100
AcDbLine
 10
25
 20
-1.83697e-15
 30
0
 11
25
 21
-1.83697e-15
 31
15
  0
CIRCLE
  5
AC3
330
A02
100
AcDbEntity
  8
Shape
100
AcDbCircle
 10
17.5
 20
0
 40
7.5
  0
LINE
  5
AC4
330
A02
100
AcDbEntity
  8
Shape
100
AcDbLine
 10
25
 20
-1.83697e-15
 30
0
 11
25
 21
-1.83697e-15
 31
15
  0
CIRCLE
  5
AC5
330
A02
100
AcDbEntity
  8
Shape
100
AcDbCircle
 10
1.07157e-15
 20
17.5
 40
7.5
  0
LINE
  5
AC6
330
A02
100
AcDbEntity
  8
Shape
100
AcDbLine
 10
7.5
 20
17.5
 30
0
 11
7.5
 21
17.5
 31
15
  0
CIRCLE
  5
AC7
330
A02
100
AcDbEntity
  8
Shape
100
AcDbCircle
 10
1.07157e-15
 20
17.5
 40
7.5
  0
LINE
  5
AC8
330
A02
100
AcDbEntity
  8
Shape
100
AcDbLine
 10
7.5
 20
17.5
 30
0
 11
7.5
 21
17.5
 31
15
  0
CIRCLE
  5
AC9
330
A02
100
AcDbEntity
  8
Shape
100
AcDbCircle
 10
16.25
 20
16.25
 40
7.5
  0
LINE
  5
ACA
330
A02
100
AcDbEntity
  8
Shape
100
AcDbLine
 10
23.75
 20
16.25
 30
0
 11
23.75
 21
16.25
 31
15
  0
CIRCLE
  5
ACB
330
A02
100
AcDbEntity
  8
Shape
100
AcDbCircle
 10
16.25
 20
16.25
 40
7.5
  0
LINE
  5
ACC
330
A02
100
AcDbEntity
  8
Shape
100
AcDbLine
 10
23.75
 20
16.25
 30
0
 11
23.75
 21
16.25
 31
15
  0
LINE
  5
ACD
330
A02
100
AcDbEntity
  8
Shape
100
AcDbLine
 10
39.976
 20
18.75
 30
0
 11
39.976
 21
18.75
 31
15
  0
CIRCLE
  5
ACE
330
A02
100
AcDbEntity
  8
Shape
100
AcDbCircle
 10
32.476
 20
18.75
 40
7.5
  0
LINE
  5
ACF
330
A02
100
AcDbEntity
  8
Shape
100
AcDbLine
 10
39.976
 20
18.75
 30
0
 11
39.976
 21
18.75
 31
15
  0
CIRCLE
  5
AD0
330
A02
100
AcDbEntity
  8
Shape
100
AcDbCircle
 10
32.476
 20
18.75
 40
7.5
  0
SPLINE
  5
AD1
330
A02
100
AcDbEntity
  8
Shape
100
AcDbSpline
210
0
220
0
230
1
 70
9
 71
3
 72
41
 73
37
 74
0
 40
0
 40
0
 40
0
 40
0
 40
0.0424095
 40
0.0424095
 40
0.0424095
 40
0.133503
 40
0.133503
 40
0.133503
 40
0.249311
 40
0.249311
 40
0.249311
 40
0.365427
 40
0.365427
 40
0.365427
 40
0.429948
 40
0.429948
 40
0.429948
 40
0.47072
 40
0.47072
 40
0.47072
 40
0.529694
 40
0.529694
 40
0.529694
 40
0.605753
 40
0.605753
 40
0.605753
 40
0.750256
 40
0.750256
 40
0.750256
 40
0.866572
 40
0.866572
 40
0.866572
 40
0.929995
 40
0.929995
 40
0.929995
 40
1
 40
1
 40
1
 40
1
 10
38.9711
 20
22.5
 30
10
 10
39.1044
 20
22.2695
 30
10.0003
 10
39.224
 20
22.0326
 30
9.95637
 10
39.3229
 20
21.811
 30
9.87764
 10
39.5359
 20
21.3333
 30
9.70778
 10
39.6551
 20
20.9377
 30
9.39265
 10
39.7287
 20
20.6599
 30
9.03612
 10
39.8209
 20
20.3041
 30
8.57949
 10
39.8478
 20
20.1227
 30
8.04396
 10
39.8497
 20
20.1205
 30
7.5103
 10
39.8486
 20
20.1181
 30
6.9752
 10
39.8225
 20
20.2958
 30
6.43738
 10
39.7316
 20
20.649
 30
5.97787
 10
39.6801
 20
20.8451
 30
5.72331
 10
39.6065
 20
21.0966
 30
5.49235
 10
39.493
 20
21.3978
 30
5.31537
 10
39.4215
 20
21.5897
 30
5.20164
 10
39.3327
 20
21.7964
 30
5.11658
 10
39.2266
 20
22.0178
 30
5.06021
 10
39.0735
 20
22.3357
 30
4.98016
 10
38.88
 20
22.6708
 30
4.98016
 10
38.6813
 20
22.9624
 30
5.06021
 10
38.4245
 20
23.3407
 30
5.16211
 10
38.1702
 20
23.6404
 30
5.38275
 10
37.9655
 20
23.8603
 30
5.64939
 10
37.5722
 20
24.2774
 30
6.1609
 10
37.3477
 20
24.4476
 30
6.83485
 10
37.3497
 20
24.4506
 30
7.5
 10
37.3489
 20
24.4494
 30
8.03649
 10
37.4922
 20
24.3358
 30
8.57535
 10
37.7554
 20
24.077
 30
9.0346
 10
37.8983
 20
23.9352
 30
9.28415
 10
38.0768
 20
23.7479
 30
9.51053
 10
38.2775
 20
23.5031
 30
9.68463
 10
38.499
 20
23.2338
 30
9.87776
 10
38.7506
 20
22.8834
 30
10.0014
 10
38.9711
 20
22.5
 30
10
  0
LINE
  5
AD2
330
A02
100
AcDbEntity
  8
Shape
100
AcDbLine
 10
26.25
 20
32.476
 30
0
 11
26.25
 21
32.476
 31
15
  0
CIRCLE
  5
AD3
330
A02
100
AcDbEntity
  8
Shape
100
AcDbCircle
 10
18.75
 20
32.476
 40
7.5
  0
LINE
  5
AD4
330
A02
100
AcDbEntity
  8
Shape
100
AcDbLine
 10
26.25
 20
32.476
 30
0
 11
26.25
 21
32.476
 31
15
  0
CIRCLE
  5
AD5
330
A02
100
AcDbEntity
  8
Shape
100
AcDbCircle
 10
18.75
 20
32.476
 40
7.5
  0
SPLINE
  5
AD6
330
A02
100
AcDbEntity
  8
Shape
100
AcDbSpline
210
0
220
0
230
1
 70
9
 71
3
 72
41
 73
37
 74
0
 40
0
 40
0
 40
0
 40
0
 40
0.0424095
 40
0.0424095
 40
0.0424095
 40
0.133503
 40
0.133503
 40
0.133503
 40
0.249311
 40
0.249311
 40
0.249311
 40
0.365426
 40
0.365426
 40
0.365426
 40
0.429948
 40
0.429948
 40
0.429948
 40
0.47072
 40
0.47072
 40
0.47072
 40
0.529694
 40
0.529694
 40
0.529694
 40
0.605753
 40
0.605753
 40
0.605753
 40
0.750256
 40
0.750256
 40
0.750256
 40
0.866572
 40
0.866572
 40
0.866572
 40
0.929995
 40
0.929995
 40
0.929995
 40
1
 40
1
 40
1
 40
1
 10
22.5
 20
38.9711
 30
10
 10
22.7307
 20
38.8381
 30
10.0003
 10
22.9527
 20
38.6928
 30
9.95637
 10
23.1491
 20
38.5503
 30
9.87764
 10
23.5725
 20
38.2431
 30
9.70778
 10
23.8735
 20
37.9602
 30
9.39265
 10
24.0761
 20
37.7563
 30
9.03612
 10
24.3339
 20
37.4943
 30
8.57949
 10
24.4478
 20
37.3507
 30
8.04396
 10
24.4506
 20
37.3497
 30
7.5103
 10
24.4509
 20
37.3471
 30
6.9752
 10
24.3393
 20
37.488
 30
6.43738
 10
24.084
 20
37.7483
 30
5.97787
 10
23.9414
 20
37.8924
 30
5.72331
 10
23.7519
 20
38.0734
 30
5.49235
 10
23.5031
 20
38.2775
 30
5.31537
 10
23.3452
 20
38.408
 30
5.20164
 10
23.165
 20
38.5426
 30
5.11658
 10
22.9624
 20
38.6813
 30
5.06021
 10
22.6708
 20
38.88
 30
4.98016
 10
22.3357
 20
39.0735
 30
4.98016
 10
22.0178
 20
39.2266
 30
5.06021
 10
21.6063
 20
39.4258
 30
5.16211
 10
21.2362
 20
39.5583
 30
5.38275
 10
20.949
 20
39.6463
 30
5.64939
 10
20.3998
 20
39.8109
 30
6.1609
 10
20.1203
 20
39.8461
 30
6.83485
 10
20.1205
 20
39.8497
 30
7.5
 10
20.1204
 20
39.8482
 30
8.03649
 10
20.3014
 20
39.8215
 30
8.57535
 10
20.6587
 20
39.729
 30
9.0346
 10
20.8532
 20
39.6777
 30
9.28415
 10
21.1015
 20
39.6047
 30
9.51053
 10
21.3978
 20
39.493
 30
9.68463
 10
21.7242
 20
39.3706
 30
9.87776
 10
22.1173
 20
39.1929
 30
10.0014
 10
22.5
 20
38.9711
 30
10
  0
LINE
  5
AD7
330
A02
100
AcDbEntity
  8
Shape
100
AcDbLine
 10
7.5
 20
37.5
 30
0
 11
7.5
 21
37.5
 31
15
  0
CIRCLE
  5
AD8
330
A02
100
AcDbEntity
  8
Shape
100
AcDbCircle
 10
2.29621e-15
 20
37.5
 40
7.5
  0
LINE
  5
AD9
330
A02
100
AcDbEntity
  8
Shape
100
AcDbLine
 10
7.5
 20
37.5
 30
0
 11
7.5
 21
37.5
 31
15
  0
CIRCLE
  5
ADA
330
A02
100
AcDbEntity
  8
Shape
100
AcDbCircle
 10
2.29621e-15
 20
37.5
 40
7.5
  0
SPLINE
  5
ADB
330
A02
100
AcDbEntity
  8
Shape
100
AcDbSpline
210
0
220
0
230
1
 70
9
 71
3
 72
41
 73
37
 74
0
 40
0
 40
0
 40
0
 40
0
 40
0.0424095
 40
0.0424095
 40
0.0424095
 40
0.133503
 40
0.133503
 40
0.133503
 40
0.249311
 40
0.249311
 40
0.249311
 40
0.365427
 40
0.365427
 40
0.365427
 40
0.429948
 40
0.429948
 40
0.429948
 40
0.47072
 40
0.47072
 40
0.47072
 40
0.529694
 40
0.529694
 40
0.529694
 40
0.605753
 40
0.605753
 40
0.605753
 40
0.750256
 40
0.750256
 40
0.750256
 40
0.866572
 40
0.866572
 40
0.866572
 40
0.929995
 40
0.929995
 40
0.929995
 40
1
 40
1
 40
1
 40
1
 10
2.22045e-15
 20
45
 30
10
 10
0.266288
 20
45.0002
 30
10.0003
 10
0.531217
 20
44.9852
 30
9.95637
 10
0.772542
 20
44.9601
 30
9.87764
 10
1.29281
 20
44.9058
 30
9.70778
 10
1.69494
 20
44.8112
 30
9.39265
 10
1.97239
 20
44.736
 30
9.03612
 10
2.32662
 20
44.6379
 30
8.57949
 10
2.49712
 20
44.5706
 30
8.04396
 10
2.49998
 20
44.5711
 30
7.5103
 10
2.50153
 20
44.569
 30
6.9752
 10
2.33451
 20
44.6352
 30
6.43738
 10
1.98321
 20
44.733
 30
5.97787
 10
1.78768
 20
44.7865
 30
5.72331
 10
1.53308
 20
44.8485
 30
5.49235
 10
1.21549
 20
44.9009
 30
5.31537
 10
1.01354
 20
44.9349
 30
5.20164
 10
0.79016
 20
44.9613
 30
5.11658
 10
0.545358
 20
44.9801
 30
5.06021
 10
0.193458
 20
45.0065
 30
4.98016
 10
-0.193458
 20
45.0065
 30
4.98016
 10
-0.545358
 20
44.9801
 30
5.06021
 10
-1.00136
 20
44.9469
 30
5.16211
 10
-1.38812
 20
44.8766
 30
5.38275
 10
-1.68085
 20
44.8092
 30
5.64939
 10
-2.23874
 20
44.6772
 30
6.1609
 10
-2.49835
 20
44.5679
 30
6.83485
 10
-2.5
 20
44.5711
 30
7.5
 10
-2.49933
 20
44.5697
 30
8.03649
 10
-2.32926
 20
44.6371
 30
8.57535
 10
-1.97358
 20
44.7357
 30
9.0346
 10
-1.7794
 20
44.7885
 30
9.28415
 10
-1.52791
 20
44.8494
 30
9.51053
 10
-1.21549
 20
44.9009
 30
9.68463
 10
-0.87156
 20
44.958
 30
9.87776
 10
-0.44229
 20
45.0007
 30
10.0014
 10
2.22045e-15
 20
45
 30
10
  0
ENDSEC
  0
SECTION
  2
OBJECTS
  0
DICTIONARY
  5
F000
330
0
100
AcDbDictionary
  3
ACAD_GROUP
350
F001
  0
DICTIONARY
  5
F001
330
F000
100
AcDbDictionary
  0
ENDSEC
  0
EOF