  0
SECTION
  2
HEADER
  9
$ACADVER
  1
AC1009
  9
$INSBASE
 10
0.0
 20
0.0
 30
0.0
  9
$EXTMIN
 10
0.0
 20
0.0
 30
0.0
  9
$EXTMAX
 10
0.0
 20
0.0
 30
0.0
  0
ENDSEC
  0
SECTION
  2
TABLES
  0
TABLE
  2
VPORT
 70
0
  0
ENDTAB
  0
TABLE
  2
LTYPE
 70
1
  0
LTYPE
  2
CONTINUOUS
 70
0
  3
Solid line
 72
65
 73
0
 40
0.0
  0
ENDTAB
  0
TABLE
  2
LAYER
 70
1
  0
LAYER
  2
0
 70
64
 62
7
  6
continuous
  0
ENDTAB
  0
TABLE
  2
STYLE
 70
1
  0
STYLE
  2
STANDARD
 70
0
 40
0
 41
1.0
 50
0.0
 71
0
 42
1
 3
ARIAL.TTF
 4

  0
ENDTAB
  0
TABLE
  2
VIEW
 70
0
  0
ENDTAB
  0
ENDSEC
  0
SECTION
  2
BLOCKS
  0
BLOCK
  8
0
  2
SHAPE
 70
0
 10
0.0
 20
0.0
 30
0.0
  3
SHAPE
  0
CIRCLE
  8
0
 62
0
 10
0.0
 20
0.0
 30
0.0
 40
50.0
  0
CIRCLE
  8
0
 62
0
 10
-25.980762113533157
 20
-15.000000000000004
 30
0.0
 40
5.0
  0
CIRCLE
  8
0
 62
0
 10
-31.819805153394647
 20
-31.819805153394636
 30
0.0
 40
2.5
  0
CIRCLE
  8
0
 62
0
 10
-2.7554552980815444e-15
 20
-15.0
 30
0.0
 40
5.0
  0
CIRCLE
  8
0
 62
0
 10
-5.510910596163089e-15
 20
-30.0
 30
0.0
 40
5.0
  0
CIRCLE
  8
0
 62
0
 10
-15.000000000000014
 20
-25.980762113533153
 30
0.0
 40
5.0
  0
CIRCLE
  8
0
 62
0
 10
-22.50000000000002
 20
-38.971143170299726
 30
0.0
 40
2.5
  0
CIRCLE
  8
0
 62
0
 10
-11.646857029613429
 20
-43.466662183008076
 30
0.0
 40
2.5
  0
CIRCLE
  8
0
 62
0
 10
22.500000000000004
 20
-38.97114317029974
 30
0.0
 40
2.5
  0
CIRCLE
  8
0
 62
0
 10
11.64685702961345
 20
-43.46666218300807
 30
0.0
 40
2.5
  0
CIRCLE
  8
0
 62
0
 10
15.000000000000004
 20
-25.980762113533157
 30
0.0
 40
5.0
  0
CIRCLE
  8
0
 62
0
 10
25.980762113533153
 20
-15.000000000000014
 30
0.0
 40
5.0
  0
CIRCLE
  8
0
 62
0
 10
31.81980515339463
 20
-31.819805153394647
 30
0.0
 40
2.5
  0
CIRCLE
  8
0
 62
0
 10
31.81980515339464
 20
31.81980515339464
 30
0.0
 40
2.5
  0
CIRCLE
  8
0
 62
0
 10
15.000000000000004
 20
25.980762113533157
 30
0.0
 40
5.0
  0
CIRCLE
  8
0
 62
0
 10
15.0
 20
0.0
 30
0.0
 40
5.0
  0
CIRCLE
  8
0
 62
0
 10
30.0
 20
0.0
 30
0.0
 40
5.0
  0
CIRCLE
  8
0
 62
0
 10
25.98076211353316
 20
14.999999999999998
 30
0.0
 40
5.0
  0
CIRCLE
  8
0
 62
0
 10
1.83697019872103e-15
 20
30.0
 30
0.0
 40
5.0
  0
CIRCLE
  8
0
 62
0
 10
-30.0
 20
3.67394039744206e-15
 30
0.0
 40
5.0
  0
CIRCLE
  8
0
 62
0
 10
-25.98076211353316
 20
14.999999999999998
 30
0.0
 40
5.0
  0
CIRCLE
  8
0
 62
0
 10
-15.0
 20
1.83697019872103e-15
 30
0.0
 40
5.0
  0
CIRCLE
  8
0
 62
0
 10
0.0
 20
0.0
 30
0.0
 40
5.0
  0
CIRCLE
  8
0
 62
0
 10
9.18485099360515e-16
 20
15.0
 30
0.0
 40
5.0
  0
CIRCLE
  8
0
 62
0
 10
-31.819805153394636
 20
31.81980515339464
 30
0.0
 40
2.5
  0
CIRCLE
  8
0
 62
0
 10
-14.999999999999993
 20
25.98076211353316
 30
0.0
 40
5.0
  0
CIRCLE
  8
0
 62
0
 10
22.500000000000004
 20
38.97114317029974
 30
0.0
 40
2.5
  0
CIRCLE
  8
0
 62
0
 10
11.646857029613432
 20
43.466662183008076
 30
0.0
 40
2.5
  0
CIRCLE
  8
0
 62
0
 10
2.7554552980815448e-15
 20
45.0
 30
0.0
 40
2.5
  0
CIRCLE
  8
0
 62
0
 10
-11.646857029613438
 20
43.466662183008076
 30
0.0
 40
2.5
  0
CIRCLE
  8
0
 62
0
 10
-22.49999999999999
 20
38.97114317029974
 30
0.0
 40
2.5
  0
CIRCLE
  8
0
 62
0
 10
45.0
 20
0.0
 30
0.0
 40
2.5
  0
CIRCLE
  8
0
 62
0
 10
43.466662183008076
 20
11.646857029613432
 30
0.0
 40
2.5
  0
CIRCLE
  8
0
 62
0
 10
38.971143170299726
 20
-22.50000000000002
 30
0.0
 40
2.5
  0
CIRCLE
  8
0
 62
0
 10
43.466662183008076
 20
-11.64685702961343
 30
0.0
 40
2.5
  0
CIRCLE
  8
0
 62
0
 10
38.97114317029974
 20
22.499999999999996
 30
0.0
 40
2.5
  0
CIRCLE
  8
0
 62
0
 10
-8.266365894244634e-15
 20
-45.0
 30
0.0
 40
2.5
  0
CIRCLE
  8
0
 62
0
 10
-45.0
 20
5.5109105961630896e-15
 30
0.0
 40
2.5
  0
CIRCLE
  8
0
 62
0
 10
-43.466662183008076
 20
-11.646857029613416
 30
0.0
 40
2.5
  0
CIRCLE
  8
0
 62
0
 10
-38.97114317029974
 20
-22.500000000000004
 30
0.0
 40
2.5
  0
CIRCLE
  8
0
 62
0
 10
-38.97114317029974
 20
22.499999999999996
 30
0.0
 40
2.5
  0
CIRCLE
  8
0
 62
0
 10
-43.46666218300807
 20
11.646857029613447
 30
0.0
 40
2.5
  0
ENDBLK
  0
ENDSEC
  0
SECTION
  2
ENTITIES
  0
INSERT
  2
SHAPE
  8
0
 62
0
 10
0.0
 20
0.0
 30
0.0
  0
ENDSEC
  0
EOF
