  0
SECTION
  2
HEADER
  9
$ACADVER
  1
AC1009
  9
$INSBASE
 10
0.0
 20
0.0
 30
0.0
  9
$EXTMIN
 10
0.0
 20
0.0
 30
0.0
  9
$EXTMAX
 10
0.0
 20
0.0
 30
0.0
  0
ENDSEC
  0
SECTION
  2
TABLES
  0
TABLE
  2
VPORT
 70
0
  0
ENDTAB
  0
TABLE
  2
LTYPE
 70
1
  0
LTYPE
  2
CONTINUOUS
 70
0
  3
Solid line
 72
65
 73
0
 40
0.0
  0
ENDTAB
  0
TABLE
  2
LAYER
 70
1
  0
LAYER
  2
0
 70
64
 62
7
  6
continuous
  0
ENDTAB
  0
TABLE
  2
STYLE
 70
1
  0
STYLE
  2
STANDARD
 70
0
 40
0
 41
1.0
 50
0.0
 71
0
 42
1
 3
ARIAL.TTF
 4

  0
ENDTAB
  0
TABLE
  2
VIEW
 70
0
  0
ENDTAB
  0
ENDSEC
  0
SECTION
  2
BLOCKS
  0
BLOCK
  8
0
  2
SHAPE
 70
0
 10
0.0
 20
0.0
 30
0.0
  3
SHAPE
  0
ARC
  8
0
 62
0
 10
0.0
 20
0.0
 30
0.0
 40
35.0
 50
10.655995808003805
 51
19.344004191997584
  0
ARC
  8
0
 62
0
 10
35.0
 20
0.0
 30
0.0
 40
6.5
 50
95.32799790400253
 51
-95.32799790400264
  0
ARC
  8
0
 62
0
 10
0.0
 20
0.0
 30
0.0
 40
35.0
 50
-19.344004191997662
 51
-10.655995808003805
  0
ARC
  8
0
 62
0
 10
30.310889132455344
 20
-17.500000000000014
 30
0.0
 40
6.5
 50
65.3279979040008
 51
-125.32799790400247
  0
ARC
  8
0
 62
0
 10
0.0
 20
0.0
 30
0.0
 40
35.0
 50
-49.34400419199747
 51
-40.65599580800251
  0
ARC
  8
0
 62
0
 10
17.500000000000004
 20
-30.31088913245535
 30
0.0
 40
6.5
 50
35.3279979040021
 51
-155.3279979040003
  0
ARC
  8
0
 62
0
 10
0.0
 20
0.0
 30
0.0
 40
35.0
 50
-79.34400419199758
 51
-70.65599580800237
  0
ARC
  8
0
 62
0
 10
-6.429395695523604e-15
 20
-35.0
 30
0.0
 40
6.5
 50
5.327997904001569
 51
174.67200209600009
  0
ARC
  8
0
 62
0
 10
0.0
 20
0.0
 30
0.0
 40
35.0
 50
-109.34400419199771
 51
-100.65599580800239
  0
ARC
  8
0
 62
0
 10
-17.500000000000014
 20
-30.310889132455344
 30
0.0
 40
6.5
 50
-24.67200209599892
 51
-0.0
  0
ARC
  8
0
 62
0
 10
-17.500000000000014
 20
-30.310889132455344
 30
0.0
 40
6.5
 50
-0.0
 51
144.67200209599955
  0
ARC
  8
0
 62
0
 10
0.0
 20
0.0
 30
0.0
 40
35.0
 50
-139.3440041919976
 51
-130.65599580800244
  0
ARC
  8
0
 62
0
 10
-30.31088913245535
 20
-17.500000000000004
 30
0.0
 40
6.5
 50
-54.672002095999574
 51
-0.0
  0
ARC
  8
0
 62
0
 10
-30.31088913245535
 20
-17.500000000000004
 30
0.0
 40
6.5
 50
-0.0
 51
114.67200209599784
  0
ARC
  8
0
 62
0
 10
0.0
 20
0.0
 30
0.0
 40
35.0
 50
-169.34400419199764
 51
-160.65599580800242
  0
ARC
  8
0
 62
0
 10
-35.0
 20
4.2862637970157365e-15
 30
0.0
 40
6.5
 50
-84.6720020959995
 51
-0.0
  0
ARC
  8
0
 62
0
 10
-35.0
 20
4.2862637970157365e-15
 30
0.0
 40
6.5
 50
-0.0
 51
84.67200209599943
  0
ARC
  8
0
 62
0
 10
0.0
 20
0.0
 30
0.0
 40
35.0
 50
160.65599580800244
 51
169.3440041919976
  0
ARC
  8
0
 62
0
 10
-30.310889132455355
 20
17.499999999999996
 30
0.0
 40
6.5
 50
-114.67200209599787
 51
-0.0
  0
ARC
  8
0
 62
0
 10
-30.310889132455355
 20
17.499999999999996
 30
0.0
 40
6.5
 50
-0.0
 51
54.6720020959995
  0
ARC
  8
0
 62
0
 10
0.0
 20
0.0
 30
0.0
 40
35.0
 50
130.6559958080024
 51
139.3440041919976
  0
ARC
  8
0
 62
0
 10
-17.499999999999993
 20
30.310889132455355
 30
0.0
 40
6.5
 50
-144.67200209599972
 51
-0.0
  0
ARC
  8
0
 62
0
 10
-17.499999999999993
 20
30.310889132455355
 30
0.0
 40
6.5
 50
-0.0
 51
24.672002095998828
  0
ARC
  8
0
 62
0
 10
0.0
 20
0.0
 30
0.0
 40
35.0
 50
100.65599580800237
 51
109.34400419199758
  0
ARC
  8
0
 62
0
 10
2.1431318985078682e-15
 20
35.0
 30
0.0
 40
6.5
 50
-174.67200209600009
 51
-5.327997904001569
  0
ARC
  8
0
 62
0
 10
0.0
 20
0.0
 30
0.0
 40
35.0
 50
70.65599580800239
 51
79.34400419199757
  0
ARC
  8
0
 62
0
 10
17.500000000000004
 20
30.31088913245535
 30
0.0
 40
6.5
 50
155.32799790400026
 51
-35.32799790400047
  0
ARC
  8
0
 62
0
 10
0.0
 20
0.0
 30
0.0
 40
35.0
 50
40.65599580800245
 51
49.3440041919976
  0
ARC
  8
0
 62
0
 10
30.310889132455355
 20
17.499999999999996
 30
0.0
 40
6.5
 50
125.32799790400243
 51
-65.32799790400091
  0
CIRCLE
  8
0
 62
0
 10
-15.0
 20
1.83697019872103e-15
 30
0.0
 40
2.5
  0
CIRCLE
  8
0
 62
0
 10
0.0
 20
0.0
 30
0.0
 40
2.5
  0
CIRCLE
  8
0
 62
0
 10
15.0
 20
0.0
 30
0.0
 40
2.5
  0
ENDBLK
  0
ENDSEC
  0
SECTION
  2
ENTITIES
  0
INSERT
  2
SHAPE
  8
0
 62
0
 10
0.0
 20
0.0
 30
0.0
  0
ENDSEC
  0
EOF
